G04 (created by PCBNEW (2013-07-07 BZR 4022)-stable) date 1/25/2016 6:15:25 PM*
%MOIN*%
G04 Gerber Fmt 3.4, Leading zero omitted, Abs format*
%FSLAX34Y34*%
G01*
G70*
G90*
G04 APERTURE LIST*
%ADD10C,0.005*%
%ADD11C,0.00393701*%
%ADD12C,0.00787402*%
%ADD13C,0.011811*%
G04 APERTURE END LIST*
G54D10*
G54D11*
X61250Y-11350D02*
X58450Y-11350D01*
X61250Y-97300D02*
X61250Y-11350D01*
X60950Y-97300D02*
X61250Y-97300D01*
X11400Y-97300D02*
X60950Y-97300D01*
X11400Y-81100D02*
X11400Y-97300D01*
X11400Y-11350D02*
X58450Y-11350D01*
X11400Y-81100D02*
X11400Y-11350D01*
G54D12*
X13481Y-22670D02*
X13796Y-22985D01*
X13796Y-22670D02*
X13481Y-22985D01*
X13481Y-26607D02*
X13796Y-26922D01*
X13796Y-26607D02*
X13481Y-26922D01*
X13481Y-30544D02*
X13796Y-30859D01*
X13796Y-30544D02*
X13481Y-30859D01*
X13481Y-34403D02*
X13796Y-34718D01*
X13796Y-34403D02*
X13481Y-34718D01*
X13481Y-38458D02*
X13796Y-38773D01*
X13796Y-38458D02*
X13481Y-38773D01*
X13481Y-42395D02*
X13796Y-42710D01*
X13796Y-42395D02*
X13481Y-42710D01*
X13481Y-57946D02*
X13796Y-58261D01*
X13796Y-57946D02*
X13481Y-58261D01*
X13481Y-61883D02*
X13796Y-62198D01*
X13796Y-61883D02*
X13481Y-62198D01*
X13481Y-65820D02*
X13796Y-66135D01*
X13796Y-65820D02*
X13481Y-66135D01*
X13481Y-69757D02*
X13796Y-70072D01*
X13796Y-69757D02*
X13481Y-70072D01*
X13481Y-73694D02*
X13796Y-74009D01*
X13796Y-73694D02*
X13481Y-74009D01*
X13481Y-77631D02*
X13796Y-77946D01*
X13796Y-77631D02*
X13481Y-77946D01*
X14481Y-22670D02*
X14796Y-22985D01*
X14796Y-22670D02*
X14481Y-22985D01*
X14481Y-26607D02*
X14796Y-26922D01*
X14796Y-26607D02*
X14481Y-26922D01*
X14481Y-30544D02*
X14796Y-30859D01*
X14796Y-30544D02*
X14481Y-30859D01*
X14481Y-34403D02*
X14796Y-34718D01*
X14796Y-34403D02*
X14481Y-34718D01*
X14481Y-38458D02*
X14796Y-38773D01*
X14796Y-38458D02*
X14481Y-38773D01*
X14481Y-42395D02*
X14796Y-42710D01*
X14796Y-42395D02*
X14481Y-42710D01*
X14481Y-57946D02*
X14796Y-58261D01*
X14796Y-57946D02*
X14481Y-58261D01*
X14481Y-61883D02*
X14796Y-62198D01*
X14796Y-61883D02*
X14481Y-62198D01*
X14481Y-65820D02*
X14796Y-66135D01*
X14796Y-65820D02*
X14481Y-66135D01*
X14481Y-69757D02*
X14796Y-70072D01*
X14796Y-69757D02*
X14481Y-70072D01*
X14481Y-73694D02*
X14796Y-74009D01*
X14796Y-73694D02*
X14481Y-74009D01*
X14481Y-77631D02*
X14796Y-77946D01*
X14796Y-77631D02*
X14481Y-77946D01*
X15449Y-18733D02*
X15764Y-19048D01*
X15764Y-18733D02*
X15449Y-19048D01*
X15449Y-46332D02*
X15764Y-46647D01*
X15764Y-46332D02*
X15449Y-46647D01*
X15449Y-54009D02*
X15764Y-54324D01*
X15764Y-54009D02*
X15449Y-54324D01*
X15449Y-81568D02*
X15764Y-81883D01*
X15764Y-81568D02*
X15449Y-81883D01*
X16449Y-18733D02*
X16764Y-19048D01*
X16764Y-18733D02*
X16449Y-19048D01*
X16449Y-46332D02*
X16764Y-46647D01*
X16764Y-46332D02*
X16449Y-46647D01*
X16449Y-54009D02*
X16764Y-54324D01*
X16764Y-54009D02*
X16449Y-54324D01*
X16449Y-81568D02*
X16764Y-81883D01*
X16764Y-81568D02*
X16449Y-81883D01*
X17418Y-22670D02*
X17733Y-22985D01*
X17733Y-22670D02*
X17418Y-22985D01*
X17418Y-26607D02*
X17733Y-26922D01*
X17733Y-26607D02*
X17418Y-26922D01*
X17418Y-30544D02*
X17733Y-30859D01*
X17733Y-30544D02*
X17418Y-30859D01*
X17418Y-34481D02*
X17733Y-34796D01*
X17733Y-34481D02*
X17418Y-34796D01*
X17418Y-38418D02*
X17733Y-38733D01*
X17733Y-38418D02*
X17418Y-38733D01*
X17418Y-42395D02*
X17733Y-42710D01*
X17733Y-42395D02*
X17418Y-42710D01*
X17418Y-57946D02*
X17733Y-58261D01*
X17733Y-57946D02*
X17418Y-58261D01*
X17418Y-61883D02*
X17733Y-62198D01*
X17733Y-61883D02*
X17418Y-62198D01*
X17418Y-65820D02*
X17733Y-66135D01*
X17733Y-65820D02*
X17418Y-66135D01*
X17418Y-69757D02*
X17733Y-70072D01*
X17733Y-69757D02*
X17418Y-70072D01*
X17418Y-73694D02*
X17733Y-74009D01*
X17733Y-73694D02*
X17418Y-74009D01*
X17418Y-77631D02*
X17733Y-77946D01*
X17733Y-77631D02*
X17418Y-77946D01*
X18418Y-22670D02*
X18733Y-22985D01*
X18733Y-22670D02*
X18418Y-22985D01*
X18418Y-26607D02*
X18733Y-26922D01*
X18733Y-26607D02*
X18418Y-26922D01*
X18418Y-30544D02*
X18733Y-30859D01*
X18733Y-30544D02*
X18418Y-30859D01*
X18418Y-34481D02*
X18733Y-34796D01*
X18733Y-34481D02*
X18418Y-34796D01*
X18418Y-38418D02*
X18733Y-38733D01*
X18733Y-38418D02*
X18418Y-38733D01*
X18418Y-42395D02*
X18733Y-42710D01*
X18733Y-42395D02*
X18418Y-42710D01*
X18418Y-57946D02*
X18733Y-58261D01*
X18733Y-57946D02*
X18418Y-58261D01*
X18418Y-61883D02*
X18733Y-62198D01*
X18733Y-61883D02*
X18418Y-62198D01*
X18418Y-65820D02*
X18733Y-66135D01*
X18733Y-65820D02*
X18418Y-66135D01*
X18418Y-69757D02*
X18733Y-70072D01*
X18733Y-69757D02*
X18418Y-70072D01*
X18418Y-73694D02*
X18733Y-74009D01*
X18733Y-73694D02*
X18418Y-74009D01*
X18418Y-77631D02*
X18733Y-77946D01*
X18733Y-77631D02*
X18418Y-77946D01*
X19886Y-14296D02*
X20201Y-14611D01*
X20201Y-14296D02*
X19886Y-14611D01*
X19886Y-15296D02*
X20201Y-15611D01*
X20201Y-15296D02*
X19886Y-15611D01*
X19886Y-49572D02*
X20201Y-49887D01*
X20201Y-49572D02*
X19886Y-49887D01*
X19886Y-50572D02*
X20201Y-50887D01*
X20201Y-50572D02*
X19886Y-50887D01*
X19886Y-85005D02*
X20201Y-85320D01*
X20201Y-85005D02*
X19886Y-85320D01*
X19886Y-86005D02*
X20201Y-86320D01*
X20201Y-86005D02*
X19886Y-86320D01*
X23823Y-12328D02*
X24138Y-12643D01*
X24138Y-12328D02*
X23823Y-12643D01*
X23823Y-13328D02*
X24138Y-13643D01*
X24138Y-13328D02*
X23823Y-13643D01*
X23823Y-16265D02*
X24138Y-16580D01*
X24138Y-16265D02*
X23823Y-16580D01*
X23823Y-17265D02*
X24138Y-17580D01*
X24138Y-17265D02*
X23823Y-17580D01*
X23823Y-47603D02*
X24138Y-47918D01*
X24138Y-47603D02*
X23823Y-47918D01*
X23823Y-48603D02*
X24138Y-48918D01*
X24138Y-48603D02*
X23823Y-48918D01*
X23823Y-51540D02*
X24138Y-51855D01*
X24138Y-51540D02*
X23823Y-51855D01*
X23823Y-52540D02*
X24138Y-52855D01*
X24138Y-52540D02*
X23823Y-52855D01*
X23823Y-83036D02*
X24138Y-83351D01*
X24138Y-83036D02*
X23823Y-83351D01*
X23823Y-84036D02*
X24138Y-84351D01*
X24138Y-84036D02*
X23823Y-84351D01*
X23823Y-86973D02*
X24138Y-87288D01*
X24138Y-86973D02*
X23823Y-87288D01*
X23823Y-87973D02*
X24138Y-88288D01*
X24138Y-87973D02*
X23823Y-88288D01*
X27760Y-12328D02*
X28075Y-12643D01*
X28075Y-12328D02*
X27760Y-12643D01*
X27760Y-13328D02*
X28075Y-13643D01*
X28075Y-13328D02*
X27760Y-13643D01*
X27760Y-16265D02*
X28075Y-16580D01*
X28075Y-16265D02*
X27760Y-16580D01*
X27760Y-17265D02*
X28075Y-17580D01*
X28075Y-17265D02*
X27760Y-17580D01*
X27760Y-47603D02*
X28075Y-47918D01*
X28075Y-47603D02*
X27760Y-47918D01*
X27760Y-48603D02*
X28075Y-48918D01*
X28075Y-48603D02*
X27760Y-48918D01*
X27760Y-51540D02*
X28075Y-51855D01*
X28075Y-51540D02*
X27760Y-51855D01*
X27760Y-52540D02*
X28075Y-52855D01*
X28075Y-52540D02*
X27760Y-52855D01*
X27760Y-83036D02*
X28075Y-83351D01*
X28075Y-83036D02*
X27760Y-83351D01*
X27760Y-84036D02*
X28075Y-84351D01*
X28075Y-84036D02*
X27760Y-84351D01*
X27760Y-86973D02*
X28075Y-87288D01*
X28075Y-86973D02*
X27760Y-87288D01*
X27760Y-87973D02*
X28075Y-88288D01*
X28075Y-87973D02*
X27760Y-88288D01*
X31697Y-12328D02*
X32012Y-12643D01*
X32012Y-12328D02*
X31697Y-12643D01*
X31697Y-13328D02*
X32012Y-13643D01*
X32012Y-13328D02*
X31697Y-13643D01*
X31697Y-16265D02*
X32012Y-16580D01*
X32012Y-16265D02*
X31697Y-16580D01*
X31697Y-17265D02*
X32012Y-17580D01*
X32012Y-17265D02*
X31697Y-17580D01*
X31697Y-47603D02*
X32012Y-47918D01*
X32012Y-47603D02*
X31697Y-47918D01*
X31697Y-48603D02*
X32012Y-48918D01*
X32012Y-48603D02*
X31697Y-48918D01*
X31697Y-51540D02*
X32012Y-51855D01*
X32012Y-51540D02*
X31697Y-51855D01*
X31697Y-52540D02*
X32012Y-52855D01*
X32012Y-52540D02*
X31697Y-52855D01*
X31697Y-83036D02*
X32012Y-83351D01*
X32012Y-83036D02*
X31697Y-83351D01*
X31697Y-84036D02*
X32012Y-84351D01*
X32012Y-84036D02*
X31697Y-84351D01*
X31697Y-86973D02*
X32012Y-87288D01*
X32012Y-86973D02*
X31697Y-87288D01*
X31697Y-87973D02*
X32012Y-88288D01*
X32012Y-87973D02*
X31697Y-88288D01*
X35634Y-12328D02*
X35949Y-12643D01*
X35949Y-12328D02*
X35634Y-12643D01*
X35634Y-13328D02*
X35949Y-13643D01*
X35949Y-13328D02*
X35634Y-13643D01*
X35634Y-16265D02*
X35949Y-16580D01*
X35949Y-16265D02*
X35634Y-16580D01*
X35634Y-17265D02*
X35949Y-17580D01*
X35949Y-17265D02*
X35634Y-17580D01*
X35634Y-47603D02*
X35949Y-47918D01*
X35949Y-47603D02*
X35634Y-47918D01*
X35634Y-48603D02*
X35949Y-48918D01*
X35949Y-48603D02*
X35634Y-48918D01*
X35634Y-51540D02*
X35949Y-51855D01*
X35949Y-51540D02*
X35634Y-51855D01*
X35634Y-52540D02*
X35949Y-52855D01*
X35949Y-52540D02*
X35634Y-52855D01*
X35634Y-83036D02*
X35949Y-83351D01*
X35949Y-83036D02*
X35634Y-83351D01*
X35634Y-84036D02*
X35949Y-84351D01*
X35949Y-84036D02*
X35634Y-84351D01*
X35634Y-86973D02*
X35949Y-87288D01*
X35949Y-86973D02*
X35634Y-87288D01*
X35634Y-87973D02*
X35949Y-88288D01*
X35949Y-87973D02*
X35634Y-88288D01*
X39571Y-12328D02*
X39886Y-12643D01*
X39886Y-12328D02*
X39571Y-12643D01*
X39571Y-13328D02*
X39886Y-13643D01*
X39886Y-13328D02*
X39571Y-13643D01*
X39571Y-16265D02*
X39886Y-16580D01*
X39886Y-16265D02*
X39571Y-16580D01*
X39571Y-17265D02*
X39886Y-17580D01*
X39886Y-17265D02*
X39571Y-17580D01*
X39571Y-47603D02*
X39886Y-47918D01*
X39886Y-47603D02*
X39571Y-47918D01*
X39571Y-48603D02*
X39886Y-48918D01*
X39886Y-48603D02*
X39571Y-48918D01*
X39571Y-51540D02*
X39886Y-51855D01*
X39886Y-51540D02*
X39571Y-51855D01*
X39571Y-52540D02*
X39886Y-52855D01*
X39886Y-52540D02*
X39571Y-52855D01*
X39571Y-83036D02*
X39886Y-83351D01*
X39886Y-83036D02*
X39571Y-83351D01*
X39571Y-84036D02*
X39886Y-84351D01*
X39886Y-84036D02*
X39571Y-84351D01*
X39571Y-86973D02*
X39886Y-87288D01*
X39886Y-86973D02*
X39571Y-87288D01*
X39571Y-87973D02*
X39886Y-88288D01*
X39886Y-87973D02*
X39571Y-88288D01*
X43508Y-12328D02*
X43823Y-12643D01*
X43823Y-12328D02*
X43508Y-12643D01*
X43508Y-13328D02*
X43823Y-13643D01*
X43823Y-13328D02*
X43508Y-13643D01*
X43508Y-16265D02*
X43823Y-16580D01*
X43823Y-16265D02*
X43508Y-16580D01*
X43508Y-17265D02*
X43823Y-17580D01*
X43823Y-17265D02*
X43508Y-17580D01*
X43508Y-47603D02*
X43823Y-47918D01*
X43823Y-47603D02*
X43508Y-47918D01*
X43508Y-48603D02*
X43823Y-48918D01*
X43823Y-48603D02*
X43508Y-48918D01*
X43508Y-51540D02*
X43823Y-51855D01*
X43823Y-51540D02*
X43508Y-51855D01*
X43508Y-52540D02*
X43823Y-52855D01*
X43823Y-52540D02*
X43508Y-52855D01*
X43508Y-83036D02*
X43823Y-83351D01*
X43823Y-83036D02*
X43508Y-83351D01*
X43508Y-84036D02*
X43823Y-84351D01*
X43823Y-84036D02*
X43508Y-84351D01*
X43508Y-86973D02*
X43823Y-87288D01*
X43823Y-86973D02*
X43508Y-87288D01*
X43508Y-87973D02*
X43823Y-88288D01*
X43823Y-87973D02*
X43508Y-88288D01*
X47445Y-14296D02*
X47760Y-14611D01*
X47760Y-14296D02*
X47445Y-14611D01*
X47445Y-15296D02*
X47760Y-15611D01*
X47760Y-15296D02*
X47445Y-15611D01*
X47445Y-49572D02*
X47760Y-49887D01*
X47760Y-49572D02*
X47445Y-49887D01*
X47445Y-50572D02*
X47760Y-50887D01*
X47760Y-50572D02*
X47445Y-50887D01*
X47445Y-85005D02*
X47760Y-85320D01*
X47760Y-85005D02*
X47445Y-85320D01*
X47445Y-86005D02*
X47760Y-86320D01*
X47760Y-86005D02*
X47445Y-86320D01*
X48914Y-22670D02*
X49229Y-22985D01*
X49229Y-22670D02*
X48914Y-22985D01*
X48914Y-26607D02*
X49229Y-26922D01*
X49229Y-26607D02*
X48914Y-26922D01*
X48914Y-30544D02*
X49229Y-30859D01*
X49229Y-30544D02*
X48914Y-30859D01*
X48914Y-34363D02*
X49229Y-34678D01*
X49229Y-34363D02*
X48914Y-34678D01*
X48914Y-38379D02*
X49229Y-38694D01*
X49229Y-38379D02*
X48914Y-38694D01*
X48914Y-42395D02*
X49229Y-42710D01*
X49229Y-42395D02*
X48914Y-42710D01*
X48914Y-57946D02*
X49229Y-58261D01*
X49229Y-57946D02*
X48914Y-58261D01*
X48914Y-61883D02*
X49229Y-62198D01*
X49229Y-61883D02*
X48914Y-62198D01*
X48914Y-65820D02*
X49229Y-66135D01*
X49229Y-65820D02*
X48914Y-66135D01*
X48914Y-69757D02*
X49229Y-70072D01*
X49229Y-69757D02*
X48914Y-70072D01*
X48914Y-73694D02*
X49229Y-74009D01*
X49229Y-73694D02*
X48914Y-74009D01*
X48914Y-77631D02*
X49229Y-77946D01*
X49229Y-77631D02*
X48914Y-77946D01*
X49914Y-22670D02*
X50229Y-22985D01*
X50229Y-22670D02*
X49914Y-22985D01*
X49914Y-26607D02*
X50229Y-26922D01*
X50229Y-26607D02*
X49914Y-26922D01*
X49914Y-30544D02*
X50229Y-30859D01*
X50229Y-30544D02*
X49914Y-30859D01*
X49914Y-34363D02*
X50229Y-34678D01*
X50229Y-34363D02*
X49914Y-34678D01*
X49914Y-38379D02*
X50229Y-38694D01*
X50229Y-38379D02*
X49914Y-38694D01*
X49914Y-42395D02*
X50229Y-42710D01*
X50229Y-42395D02*
X49914Y-42710D01*
X49914Y-57946D02*
X50229Y-58261D01*
X50229Y-57946D02*
X49914Y-58261D01*
X49914Y-61883D02*
X50229Y-62198D01*
X50229Y-61883D02*
X49914Y-62198D01*
X49914Y-65820D02*
X50229Y-66135D01*
X50229Y-65820D02*
X49914Y-66135D01*
X49914Y-69757D02*
X50229Y-70072D01*
X50229Y-69757D02*
X49914Y-70072D01*
X49914Y-73694D02*
X50229Y-74009D01*
X50229Y-73694D02*
X49914Y-74009D01*
X49914Y-77631D02*
X50229Y-77946D01*
X50229Y-77631D02*
X49914Y-77946D01*
X50882Y-18733D02*
X51197Y-19048D01*
X51197Y-18733D02*
X50882Y-19048D01*
X50882Y-46135D02*
X51197Y-46450D01*
X51197Y-46135D02*
X50882Y-46450D01*
X50882Y-54009D02*
X51197Y-54324D01*
X51197Y-54009D02*
X50882Y-54324D01*
X50882Y-81568D02*
X51197Y-81883D01*
X51197Y-81568D02*
X50882Y-81883D01*
X51882Y-18733D02*
X52197Y-19048D01*
X52197Y-18733D02*
X51882Y-19048D01*
X51882Y-46135D02*
X52197Y-46450D01*
X52197Y-46135D02*
X51882Y-46450D01*
X51882Y-54009D02*
X52197Y-54324D01*
X52197Y-54009D02*
X51882Y-54324D01*
X51882Y-81568D02*
X52197Y-81883D01*
X52197Y-81568D02*
X51882Y-81883D01*
X52851Y-22670D02*
X53166Y-22985D01*
X53166Y-22670D02*
X52851Y-22985D01*
X52851Y-26607D02*
X53166Y-26922D01*
X53166Y-26607D02*
X52851Y-26922D01*
X52851Y-30544D02*
X53166Y-30859D01*
X53166Y-30544D02*
X52851Y-30859D01*
X52851Y-34481D02*
X53166Y-34796D01*
X53166Y-34481D02*
X52851Y-34796D01*
X52851Y-38418D02*
X53166Y-38733D01*
X53166Y-38418D02*
X52851Y-38733D01*
X52851Y-42434D02*
X53166Y-42749D01*
X53166Y-42434D02*
X52851Y-42749D01*
X52851Y-57946D02*
X53166Y-58261D01*
X53166Y-57946D02*
X52851Y-58261D01*
X52851Y-61883D02*
X53166Y-62198D01*
X53166Y-61883D02*
X52851Y-62198D01*
X52851Y-65820D02*
X53166Y-66135D01*
X53166Y-65820D02*
X52851Y-66135D01*
X52851Y-69757D02*
X53166Y-70072D01*
X53166Y-69757D02*
X52851Y-70072D01*
X52851Y-73694D02*
X53166Y-74009D01*
X53166Y-73694D02*
X52851Y-74009D01*
X52851Y-77631D02*
X53166Y-77946D01*
X53166Y-77631D02*
X52851Y-77946D01*
X53851Y-22670D02*
X54166Y-22985D01*
X54166Y-22670D02*
X53851Y-22985D01*
X53851Y-26607D02*
X54166Y-26922D01*
X54166Y-26607D02*
X53851Y-26922D01*
X53851Y-30544D02*
X54166Y-30859D01*
X54166Y-30544D02*
X53851Y-30859D01*
X53851Y-34481D02*
X54166Y-34796D01*
X54166Y-34481D02*
X53851Y-34796D01*
X53851Y-38418D02*
X54166Y-38733D01*
X54166Y-38418D02*
X53851Y-38733D01*
X53851Y-42434D02*
X54166Y-42749D01*
X54166Y-42434D02*
X53851Y-42749D01*
X53851Y-57946D02*
X54166Y-58261D01*
X54166Y-57946D02*
X53851Y-58261D01*
X53851Y-61883D02*
X54166Y-62198D01*
X54166Y-61883D02*
X53851Y-62198D01*
X53851Y-65820D02*
X54166Y-66135D01*
X54166Y-65820D02*
X53851Y-66135D01*
X53851Y-69757D02*
X54166Y-70072D01*
X54166Y-69757D02*
X53851Y-70072D01*
X53851Y-73694D02*
X54166Y-74009D01*
X54166Y-73694D02*
X53851Y-74009D01*
X53851Y-77631D02*
X54166Y-77946D01*
X54166Y-77631D02*
X53851Y-77946D01*
X58842Y-85342D02*
X59157Y-85657D01*
X59157Y-85342D02*
X58842Y-85657D01*
X58842Y-86342D02*
X59157Y-86657D01*
X59157Y-86342D02*
X58842Y-86657D01*
X20221Y-91679D02*
G75*
G03X20221Y-91679I-160J0D01*
G74*
G01*
X21221Y-91679D02*
G75*
G03X21221Y-91679I-160J0D01*
G74*
G01*
X22221Y-91679D02*
G75*
G03X22221Y-91679I-160J0D01*
G74*
G01*
X23221Y-91679D02*
G75*
G03X23221Y-91679I-160J0D01*
G74*
G01*
X24221Y-91679D02*
G75*
G03X24221Y-91679I-160J0D01*
G74*
G01*
X25221Y-91679D02*
G75*
G03X25221Y-91679I-160J0D01*
G74*
G01*
X26221Y-91679D02*
G75*
G03X26221Y-91679I-160J0D01*
G74*
G01*
X27221Y-91679D02*
G75*
G03X27221Y-91679I-160J0D01*
G74*
G01*
X37264Y-91679D02*
G75*
G03X37264Y-91679I-160J0D01*
G74*
G01*
X38264Y-91679D02*
G75*
G03X38264Y-91679I-160J0D01*
G74*
G01*
X39264Y-91679D02*
G75*
G03X39264Y-91679I-160J0D01*
G74*
G01*
X40264Y-91679D02*
G75*
G03X40264Y-91679I-160J0D01*
G74*
G01*
X41264Y-91679D02*
G75*
G03X41264Y-91679I-160J0D01*
G74*
G01*
X42264Y-91679D02*
G75*
G03X42264Y-91679I-160J0D01*
G74*
G01*
X43264Y-91679D02*
G75*
G03X43264Y-91679I-160J0D01*
G74*
G01*
X44264Y-91679D02*
G75*
G03X44264Y-91679I-160J0D01*
G74*
G01*
X13850Y-48175D02*
X13850Y-48625D01*
X13625Y-48400D02*
X14075Y-48400D01*
X19850Y-48175D02*
X19850Y-48625D01*
X19625Y-48400D02*
X20075Y-48400D01*
X46200Y-88025D02*
X46200Y-88475D01*
X45975Y-88250D02*
X46425Y-88250D01*
X46200Y-94025D02*
X46200Y-94475D01*
X45975Y-94250D02*
X46425Y-94250D01*
X47850Y-87875D02*
X47850Y-88325D01*
X47625Y-88100D02*
X48075Y-88100D01*
X53850Y-87875D02*
X53850Y-88325D01*
X53625Y-88100D02*
X54075Y-88100D01*
X49373Y-95273D02*
X49373Y-94926D01*
X49026Y-94926D01*
X49026Y-95273D01*
X49373Y-95273D01*
X51373Y-95273D02*
X51373Y-94926D01*
X51026Y-94926D01*
X51026Y-95273D01*
X51373Y-95273D01*
X14000Y-95887D02*
X14787Y-95100D01*
X14000Y-94312D01*
X13212Y-95100D01*
X14000Y-95887D01*
X57850Y-14387D02*
X58637Y-13600D01*
X57850Y-12812D01*
X57062Y-13600D01*
X57850Y-14387D01*
X57850Y-95887D02*
X58637Y-95100D01*
X57850Y-94312D01*
X57062Y-95100D01*
X57850Y-95887D01*
X13203Y-12803D02*
X14796Y-14396D01*
X14796Y-12803D02*
X13203Y-14396D01*
X14796Y-13600D02*
G75*
G03X14796Y-13600I-796J0D01*
G74*
G01*
G54D13*
X12448Y-99096D02*
X12448Y-97915D01*
X12730Y-97915D01*
X12898Y-97972D01*
X13011Y-98084D01*
X13067Y-98197D01*
X13123Y-98422D01*
X13123Y-98590D01*
X13067Y-98815D01*
X13011Y-98928D01*
X12898Y-99040D01*
X12730Y-99096D01*
X12448Y-99096D01*
X13630Y-99096D02*
X13630Y-98309D01*
X13630Y-98534D02*
X13686Y-98422D01*
X13742Y-98365D01*
X13855Y-98309D01*
X13967Y-98309D01*
X14361Y-99096D02*
X14361Y-98309D01*
X14361Y-97915D02*
X14304Y-97972D01*
X14361Y-98028D01*
X14417Y-97972D01*
X14361Y-97915D01*
X14361Y-98028D01*
X15092Y-99096D02*
X14979Y-99040D01*
X14923Y-98928D01*
X14923Y-97915D01*
X15711Y-99096D02*
X15598Y-99040D01*
X15542Y-98928D01*
X15542Y-97915D01*
X17060Y-99096D02*
X17060Y-97915D01*
X17454Y-98759D01*
X17848Y-97915D01*
X17848Y-99096D01*
X18916Y-99096D02*
X18916Y-98478D01*
X18860Y-98365D01*
X18748Y-98309D01*
X18523Y-98309D01*
X18410Y-98365D01*
X18916Y-99040D02*
X18804Y-99096D01*
X18523Y-99096D01*
X18410Y-99040D01*
X18354Y-98928D01*
X18354Y-98815D01*
X18410Y-98703D01*
X18523Y-98647D01*
X18804Y-98647D01*
X18916Y-98590D01*
X19479Y-98309D02*
X19479Y-99490D01*
X19479Y-98365D02*
X19591Y-98309D01*
X19816Y-98309D01*
X19929Y-98365D01*
X19985Y-98422D01*
X20041Y-98534D01*
X20041Y-98871D01*
X19985Y-98984D01*
X19929Y-99040D01*
X19816Y-99096D01*
X19591Y-99096D01*
X19479Y-99040D01*
X20547Y-98984D02*
X20604Y-99040D01*
X20547Y-99096D01*
X20491Y-99040D01*
X20547Y-98984D01*
X20547Y-99096D01*
X20547Y-98365D02*
X20604Y-98422D01*
X20547Y-98478D01*
X20491Y-98422D01*
X20547Y-98365D01*
X20547Y-98478D01*
X11065Y-100941D02*
X11380Y-101256D01*
X11380Y-100941D02*
X11065Y-101256D01*
X12673Y-100396D02*
X12786Y-100396D01*
X12898Y-100452D01*
X12955Y-100508D01*
X13011Y-100621D01*
X13067Y-100846D01*
X13067Y-101127D01*
X13011Y-101352D01*
X12955Y-101464D01*
X12898Y-101521D01*
X12786Y-101577D01*
X12673Y-101577D01*
X12561Y-101521D01*
X12505Y-101464D01*
X12448Y-101352D01*
X12392Y-101127D01*
X12392Y-100846D01*
X12448Y-100621D01*
X12505Y-100508D01*
X12561Y-100452D01*
X12673Y-100396D01*
X13573Y-101464D02*
X13630Y-101521D01*
X13573Y-101577D01*
X13517Y-101521D01*
X13573Y-101464D01*
X13573Y-101577D01*
X14304Y-100902D02*
X14192Y-100846D01*
X14136Y-100789D01*
X14079Y-100677D01*
X14079Y-100621D01*
X14136Y-100508D01*
X14192Y-100452D01*
X14304Y-100396D01*
X14529Y-100396D01*
X14642Y-100452D01*
X14698Y-100508D01*
X14754Y-100621D01*
X14754Y-100677D01*
X14698Y-100789D01*
X14642Y-100846D01*
X14529Y-100902D01*
X14304Y-100902D01*
X14192Y-100958D01*
X14136Y-101014D01*
X14079Y-101127D01*
X14079Y-101352D01*
X14136Y-101464D01*
X14192Y-101521D01*
X14304Y-101577D01*
X14529Y-101577D01*
X14642Y-101521D01*
X14698Y-101464D01*
X14754Y-101352D01*
X14754Y-101127D01*
X14698Y-101014D01*
X14642Y-100958D01*
X14529Y-100902D01*
X15486Y-100396D02*
X15598Y-100396D01*
X15711Y-100452D01*
X15767Y-100508D01*
X15823Y-100621D01*
X15879Y-100846D01*
X15879Y-101127D01*
X15823Y-101352D01*
X15767Y-101464D01*
X15711Y-101521D01*
X15598Y-101577D01*
X15486Y-101577D01*
X15373Y-101521D01*
X15317Y-101464D01*
X15261Y-101352D01*
X15204Y-101127D01*
X15204Y-100846D01*
X15261Y-100621D01*
X15317Y-100508D01*
X15373Y-100452D01*
X15486Y-100396D01*
X16385Y-101577D02*
X16385Y-100789D01*
X16385Y-100902D02*
X16442Y-100846D01*
X16554Y-100789D01*
X16723Y-100789D01*
X16835Y-100846D01*
X16892Y-100958D01*
X16892Y-101577D01*
X16892Y-100958D02*
X16948Y-100846D01*
X17060Y-100789D01*
X17229Y-100789D01*
X17342Y-100846D01*
X17398Y-100958D01*
X17398Y-101577D01*
X17960Y-101577D02*
X17960Y-100789D01*
X17960Y-100902D02*
X18016Y-100846D01*
X18129Y-100789D01*
X18298Y-100789D01*
X18410Y-100846D01*
X18466Y-100958D01*
X18466Y-101577D01*
X18466Y-100958D02*
X18523Y-100846D01*
X18635Y-100789D01*
X18804Y-100789D01*
X18916Y-100846D01*
X18973Y-100958D01*
X18973Y-101577D01*
X21279Y-100339D02*
X20266Y-101858D01*
X22797Y-100396D02*
X22910Y-100396D01*
X23022Y-100452D01*
X23078Y-100508D01*
X23135Y-100621D01*
X23191Y-100846D01*
X23191Y-101127D01*
X23135Y-101352D01*
X23078Y-101464D01*
X23022Y-101521D01*
X22910Y-101577D01*
X22797Y-101577D01*
X22685Y-101521D01*
X22628Y-101464D01*
X22572Y-101352D01*
X22516Y-101127D01*
X22516Y-100846D01*
X22572Y-100621D01*
X22628Y-100508D01*
X22685Y-100452D01*
X22797Y-100396D01*
X23697Y-101464D02*
X23753Y-101521D01*
X23697Y-101577D01*
X23641Y-101521D01*
X23697Y-101464D01*
X23697Y-101577D01*
X24484Y-100396D02*
X24597Y-100396D01*
X24709Y-100452D01*
X24766Y-100508D01*
X24822Y-100621D01*
X24878Y-100846D01*
X24878Y-101127D01*
X24822Y-101352D01*
X24766Y-101464D01*
X24709Y-101521D01*
X24597Y-101577D01*
X24484Y-101577D01*
X24372Y-101521D01*
X24316Y-101464D01*
X24259Y-101352D01*
X24203Y-101127D01*
X24203Y-100846D01*
X24259Y-100621D01*
X24316Y-100508D01*
X24372Y-100452D01*
X24484Y-100396D01*
X25272Y-100396D02*
X26003Y-100396D01*
X25609Y-100846D01*
X25778Y-100846D01*
X25891Y-100902D01*
X25947Y-100958D01*
X26003Y-101071D01*
X26003Y-101352D01*
X25947Y-101464D01*
X25891Y-101521D01*
X25778Y-101577D01*
X25441Y-101577D01*
X25328Y-101521D01*
X25272Y-101464D01*
X26453Y-100508D02*
X26509Y-100452D01*
X26622Y-100396D01*
X26903Y-100396D01*
X27015Y-100452D01*
X27072Y-100508D01*
X27128Y-100621D01*
X27128Y-100733D01*
X27072Y-100902D01*
X26397Y-101577D01*
X27128Y-101577D01*
X27578Y-100396D02*
X27578Y-100621D01*
X28028Y-100396D02*
X28028Y-100621D01*
X29771Y-102027D02*
X29715Y-101970D01*
X29603Y-101802D01*
X29546Y-101689D01*
X29490Y-101521D01*
X29434Y-101239D01*
X29434Y-101014D01*
X29490Y-100733D01*
X29546Y-100564D01*
X29603Y-100452D01*
X29715Y-100283D01*
X29771Y-100227D01*
X30840Y-101577D02*
X30165Y-101577D01*
X30502Y-101577D02*
X30502Y-100396D01*
X30390Y-100564D01*
X30277Y-100677D01*
X30165Y-100733D01*
X31402Y-101577D02*
X31627Y-101577D01*
X31740Y-101521D01*
X31796Y-101464D01*
X31908Y-101296D01*
X31965Y-101071D01*
X31965Y-100621D01*
X31908Y-100508D01*
X31852Y-100452D01*
X31740Y-100396D01*
X31515Y-100396D01*
X31402Y-100452D01*
X31346Y-100508D01*
X31290Y-100621D01*
X31290Y-100902D01*
X31346Y-101014D01*
X31402Y-101071D01*
X31515Y-101127D01*
X31740Y-101127D01*
X31852Y-101071D01*
X31908Y-101014D01*
X31965Y-100902D01*
X32640Y-100902D02*
X32527Y-100846D01*
X32471Y-100789D01*
X32415Y-100677D01*
X32415Y-100621D01*
X32471Y-100508D01*
X32527Y-100452D01*
X32640Y-100396D01*
X32865Y-100396D01*
X32977Y-100452D01*
X33033Y-100508D01*
X33090Y-100621D01*
X33090Y-100677D01*
X33033Y-100789D01*
X32977Y-100846D01*
X32865Y-100902D01*
X32640Y-100902D01*
X32527Y-100958D01*
X32471Y-101014D01*
X32415Y-101127D01*
X32415Y-101352D01*
X32471Y-101464D01*
X32527Y-101521D01*
X32640Y-101577D01*
X32865Y-101577D01*
X32977Y-101521D01*
X33033Y-101464D01*
X33090Y-101352D01*
X33090Y-101127D01*
X33033Y-101014D01*
X32977Y-100958D01*
X32865Y-100902D01*
X34496Y-101577D02*
X34496Y-100396D01*
X35002Y-101577D02*
X35002Y-100958D01*
X34946Y-100846D01*
X34833Y-100789D01*
X34664Y-100789D01*
X34552Y-100846D01*
X34496Y-100902D01*
X35733Y-101577D02*
X35621Y-101521D01*
X35564Y-101464D01*
X35508Y-101352D01*
X35508Y-101014D01*
X35564Y-100902D01*
X35621Y-100846D01*
X35733Y-100789D01*
X35902Y-100789D01*
X36014Y-100846D01*
X36070Y-100902D01*
X36127Y-101014D01*
X36127Y-101352D01*
X36070Y-101464D01*
X36014Y-101521D01*
X35902Y-101577D01*
X35733Y-101577D01*
X36802Y-101577D02*
X36689Y-101521D01*
X36633Y-101408D01*
X36633Y-100396D01*
X37702Y-101521D02*
X37589Y-101577D01*
X37364Y-101577D01*
X37252Y-101521D01*
X37195Y-101408D01*
X37195Y-100958D01*
X37252Y-100846D01*
X37364Y-100789D01*
X37589Y-100789D01*
X37702Y-100846D01*
X37758Y-100958D01*
X37758Y-101071D01*
X37195Y-101183D01*
X38208Y-101521D02*
X38320Y-101577D01*
X38545Y-101577D01*
X38658Y-101521D01*
X38714Y-101408D01*
X38714Y-101352D01*
X38658Y-101239D01*
X38545Y-101183D01*
X38376Y-101183D01*
X38264Y-101127D01*
X38208Y-101014D01*
X38208Y-100958D01*
X38264Y-100846D01*
X38376Y-100789D01*
X38545Y-100789D01*
X38658Y-100846D01*
X39108Y-102027D02*
X39164Y-101970D01*
X39276Y-101802D01*
X39333Y-101689D01*
X39389Y-101521D01*
X39445Y-101239D01*
X39445Y-101014D01*
X39389Y-100733D01*
X39333Y-100564D01*
X39276Y-100452D01*
X39164Y-100283D01*
X39108Y-100227D01*
G54D12*
X11380Y-102658D02*
G75*
G03X11380Y-102658I-160J0D01*
G74*
G01*
G54D13*
X12673Y-101955D02*
X12786Y-101955D01*
X12898Y-102011D01*
X12955Y-102067D01*
X13011Y-102180D01*
X13067Y-102405D01*
X13067Y-102686D01*
X13011Y-102911D01*
X12955Y-103023D01*
X12898Y-103080D01*
X12786Y-103136D01*
X12673Y-103136D01*
X12561Y-103080D01*
X12505Y-103023D01*
X12448Y-102911D01*
X12392Y-102686D01*
X12392Y-102405D01*
X12448Y-102180D01*
X12505Y-102067D01*
X12561Y-102011D01*
X12673Y-101955D01*
X13573Y-103023D02*
X13630Y-103080D01*
X13573Y-103136D01*
X13517Y-103080D01*
X13573Y-103023D01*
X13573Y-103136D01*
X14304Y-102461D02*
X14192Y-102405D01*
X14136Y-102348D01*
X14079Y-102236D01*
X14079Y-102180D01*
X14136Y-102067D01*
X14192Y-102011D01*
X14304Y-101955D01*
X14529Y-101955D01*
X14642Y-102011D01*
X14698Y-102067D01*
X14754Y-102180D01*
X14754Y-102236D01*
X14698Y-102348D01*
X14642Y-102405D01*
X14529Y-102461D01*
X14304Y-102461D01*
X14192Y-102517D01*
X14136Y-102573D01*
X14079Y-102686D01*
X14079Y-102911D01*
X14136Y-103023D01*
X14192Y-103080D01*
X14304Y-103136D01*
X14529Y-103136D01*
X14642Y-103080D01*
X14698Y-103023D01*
X14754Y-102911D01*
X14754Y-102686D01*
X14698Y-102573D01*
X14642Y-102517D01*
X14529Y-102461D01*
X15879Y-103136D02*
X15204Y-103136D01*
X15542Y-103136D02*
X15542Y-101955D01*
X15429Y-102123D01*
X15317Y-102236D01*
X15204Y-102292D01*
X16385Y-103136D02*
X16385Y-102348D01*
X16385Y-102461D02*
X16442Y-102405D01*
X16554Y-102348D01*
X16723Y-102348D01*
X16835Y-102405D01*
X16892Y-102517D01*
X16892Y-103136D01*
X16892Y-102517D02*
X16948Y-102405D01*
X17060Y-102348D01*
X17229Y-102348D01*
X17342Y-102405D01*
X17398Y-102517D01*
X17398Y-103136D01*
X17960Y-103136D02*
X17960Y-102348D01*
X17960Y-102461D02*
X18016Y-102405D01*
X18129Y-102348D01*
X18298Y-102348D01*
X18410Y-102405D01*
X18466Y-102517D01*
X18466Y-103136D01*
X18466Y-102517D02*
X18523Y-102405D01*
X18635Y-102348D01*
X18804Y-102348D01*
X18916Y-102405D01*
X18973Y-102517D01*
X18973Y-103136D01*
X21279Y-101898D02*
X20266Y-103417D01*
X22797Y-101955D02*
X22910Y-101955D01*
X23022Y-102011D01*
X23078Y-102067D01*
X23135Y-102180D01*
X23191Y-102405D01*
X23191Y-102686D01*
X23135Y-102911D01*
X23078Y-103023D01*
X23022Y-103080D01*
X22910Y-103136D01*
X22797Y-103136D01*
X22685Y-103080D01*
X22628Y-103023D01*
X22572Y-102911D01*
X22516Y-102686D01*
X22516Y-102405D01*
X22572Y-102180D01*
X22628Y-102067D01*
X22685Y-102011D01*
X22797Y-101955D01*
X23697Y-103023D02*
X23753Y-103080D01*
X23697Y-103136D01*
X23641Y-103080D01*
X23697Y-103023D01*
X23697Y-103136D01*
X24484Y-101955D02*
X24597Y-101955D01*
X24709Y-102011D01*
X24766Y-102067D01*
X24822Y-102180D01*
X24878Y-102405D01*
X24878Y-102686D01*
X24822Y-102911D01*
X24766Y-103023D01*
X24709Y-103080D01*
X24597Y-103136D01*
X24484Y-103136D01*
X24372Y-103080D01*
X24316Y-103023D01*
X24259Y-102911D01*
X24203Y-102686D01*
X24203Y-102405D01*
X24259Y-102180D01*
X24316Y-102067D01*
X24372Y-102011D01*
X24484Y-101955D01*
X25272Y-101955D02*
X26003Y-101955D01*
X25609Y-102405D01*
X25778Y-102405D01*
X25891Y-102461D01*
X25947Y-102517D01*
X26003Y-102630D01*
X26003Y-102911D01*
X25947Y-103023D01*
X25891Y-103080D01*
X25778Y-103136D01*
X25441Y-103136D01*
X25328Y-103080D01*
X25272Y-103023D01*
X26453Y-102067D02*
X26509Y-102011D01*
X26622Y-101955D01*
X26903Y-101955D01*
X27015Y-102011D01*
X27072Y-102067D01*
X27128Y-102180D01*
X27128Y-102292D01*
X27072Y-102461D01*
X26397Y-103136D01*
X27128Y-103136D01*
X27578Y-101955D02*
X27578Y-102180D01*
X28028Y-101955D02*
X28028Y-102180D01*
X29771Y-103586D02*
X29715Y-103530D01*
X29603Y-103361D01*
X29546Y-103248D01*
X29490Y-103080D01*
X29434Y-102798D01*
X29434Y-102573D01*
X29490Y-102292D01*
X29546Y-102123D01*
X29603Y-102011D01*
X29715Y-101842D01*
X29771Y-101786D01*
X30840Y-103136D02*
X30165Y-103136D01*
X30502Y-103136D02*
X30502Y-101955D01*
X30390Y-102123D01*
X30277Y-102236D01*
X30165Y-102292D01*
X31852Y-101955D02*
X31627Y-101955D01*
X31515Y-102011D01*
X31459Y-102067D01*
X31346Y-102236D01*
X31290Y-102461D01*
X31290Y-102911D01*
X31346Y-103023D01*
X31402Y-103080D01*
X31515Y-103136D01*
X31740Y-103136D01*
X31852Y-103080D01*
X31908Y-103023D01*
X31965Y-102911D01*
X31965Y-102630D01*
X31908Y-102517D01*
X31852Y-102461D01*
X31740Y-102405D01*
X31515Y-102405D01*
X31402Y-102461D01*
X31346Y-102517D01*
X31290Y-102630D01*
X33371Y-103136D02*
X33371Y-101955D01*
X33877Y-103136D02*
X33877Y-102517D01*
X33821Y-102405D01*
X33708Y-102348D01*
X33540Y-102348D01*
X33427Y-102405D01*
X33371Y-102461D01*
X34608Y-103136D02*
X34496Y-103080D01*
X34439Y-103023D01*
X34383Y-102911D01*
X34383Y-102573D01*
X34439Y-102461D01*
X34496Y-102405D01*
X34608Y-102348D01*
X34777Y-102348D01*
X34889Y-102405D01*
X34946Y-102461D01*
X35002Y-102573D01*
X35002Y-102911D01*
X34946Y-103023D01*
X34889Y-103080D01*
X34777Y-103136D01*
X34608Y-103136D01*
X35677Y-103136D02*
X35564Y-103080D01*
X35508Y-102967D01*
X35508Y-101955D01*
X36577Y-103080D02*
X36464Y-103136D01*
X36239Y-103136D01*
X36127Y-103080D01*
X36070Y-102967D01*
X36070Y-102517D01*
X36127Y-102405D01*
X36239Y-102348D01*
X36464Y-102348D01*
X36577Y-102405D01*
X36633Y-102517D01*
X36633Y-102630D01*
X36070Y-102742D01*
X37083Y-103080D02*
X37195Y-103136D01*
X37420Y-103136D01*
X37533Y-103080D01*
X37589Y-102967D01*
X37589Y-102911D01*
X37533Y-102798D01*
X37420Y-102742D01*
X37252Y-102742D01*
X37139Y-102686D01*
X37083Y-102573D01*
X37083Y-102517D01*
X37139Y-102405D01*
X37252Y-102348D01*
X37420Y-102348D01*
X37533Y-102405D01*
X37983Y-103586D02*
X38039Y-103530D01*
X38151Y-103361D01*
X38208Y-103248D01*
X38264Y-103080D01*
X38320Y-102798D01*
X38320Y-102573D01*
X38264Y-102292D01*
X38208Y-102123D01*
X38151Y-102011D01*
X38039Y-101842D01*
X37983Y-101786D01*
X11155Y-103992D02*
X11155Y-104442D01*
X10930Y-104217D02*
X11380Y-104217D01*
X13067Y-104695D02*
X12392Y-104695D01*
X12730Y-104695D02*
X12730Y-103514D01*
X12617Y-103683D01*
X12505Y-103795D01*
X12392Y-103851D01*
X13573Y-104582D02*
X13630Y-104639D01*
X13573Y-104695D01*
X13517Y-104639D01*
X13573Y-104582D01*
X13573Y-104695D01*
X14754Y-104695D02*
X14079Y-104695D01*
X14417Y-104695D02*
X14417Y-103514D01*
X14304Y-103683D01*
X14192Y-103795D01*
X14079Y-103851D01*
X15767Y-103907D02*
X15767Y-104695D01*
X15486Y-103458D02*
X15204Y-104301D01*
X15935Y-104301D01*
X16385Y-104695D02*
X16385Y-103907D01*
X16385Y-104020D02*
X16442Y-103964D01*
X16554Y-103907D01*
X16723Y-103907D01*
X16835Y-103964D01*
X16892Y-104076D01*
X16892Y-104695D01*
X16892Y-104076D02*
X16948Y-103964D01*
X17060Y-103907D01*
X17229Y-103907D01*
X17342Y-103964D01*
X17398Y-104076D01*
X17398Y-104695D01*
X17960Y-104695D02*
X17960Y-103907D01*
X17960Y-104020D02*
X18016Y-103964D01*
X18129Y-103907D01*
X18298Y-103907D01*
X18410Y-103964D01*
X18466Y-104076D01*
X18466Y-104695D01*
X18466Y-104076D02*
X18523Y-103964D01*
X18635Y-103907D01*
X18804Y-103907D01*
X18916Y-103964D01*
X18973Y-104076D01*
X18973Y-104695D01*
X21279Y-103458D02*
X20266Y-104976D01*
X22797Y-103514D02*
X22910Y-103514D01*
X23022Y-103570D01*
X23078Y-103626D01*
X23135Y-103739D01*
X23191Y-103964D01*
X23191Y-104245D01*
X23135Y-104470D01*
X23078Y-104582D01*
X23022Y-104639D01*
X22910Y-104695D01*
X22797Y-104695D01*
X22685Y-104639D01*
X22628Y-104582D01*
X22572Y-104470D01*
X22516Y-104245D01*
X22516Y-103964D01*
X22572Y-103739D01*
X22628Y-103626D01*
X22685Y-103570D01*
X22797Y-103514D01*
X23697Y-104582D02*
X23753Y-104639D01*
X23697Y-104695D01*
X23641Y-104639D01*
X23697Y-104582D01*
X23697Y-104695D01*
X24484Y-103514D02*
X24597Y-103514D01*
X24709Y-103570D01*
X24766Y-103626D01*
X24822Y-103739D01*
X24878Y-103964D01*
X24878Y-104245D01*
X24822Y-104470D01*
X24766Y-104582D01*
X24709Y-104639D01*
X24597Y-104695D01*
X24484Y-104695D01*
X24372Y-104639D01*
X24316Y-104582D01*
X24259Y-104470D01*
X24203Y-104245D01*
X24203Y-103964D01*
X24259Y-103739D01*
X24316Y-103626D01*
X24372Y-103570D01*
X24484Y-103514D01*
X25891Y-103907D02*
X25891Y-104695D01*
X25609Y-103458D02*
X25328Y-104301D01*
X26059Y-104301D01*
X27072Y-103514D02*
X26509Y-103514D01*
X26453Y-104076D01*
X26509Y-104020D01*
X26622Y-103964D01*
X26903Y-103964D01*
X27015Y-104020D01*
X27072Y-104076D01*
X27128Y-104189D01*
X27128Y-104470D01*
X27072Y-104582D01*
X27015Y-104639D01*
X26903Y-104695D01*
X26622Y-104695D01*
X26509Y-104639D01*
X26453Y-104582D01*
X27578Y-103514D02*
X27578Y-103739D01*
X28028Y-103514D02*
X28028Y-103739D01*
X29771Y-105145D02*
X29715Y-105089D01*
X29603Y-104920D01*
X29546Y-104807D01*
X29490Y-104639D01*
X29434Y-104357D01*
X29434Y-104132D01*
X29490Y-103851D01*
X29546Y-103683D01*
X29603Y-103570D01*
X29715Y-103401D01*
X29771Y-103345D01*
X30727Y-103514D02*
X30502Y-103514D01*
X30390Y-103570D01*
X30334Y-103626D01*
X30221Y-103795D01*
X30165Y-104020D01*
X30165Y-104470D01*
X30221Y-104582D01*
X30277Y-104639D01*
X30390Y-104695D01*
X30615Y-104695D01*
X30727Y-104639D01*
X30784Y-104582D01*
X30840Y-104470D01*
X30840Y-104189D01*
X30784Y-104076D01*
X30727Y-104020D01*
X30615Y-103964D01*
X30390Y-103964D01*
X30277Y-104020D01*
X30221Y-104076D01*
X30165Y-104189D01*
X32246Y-104695D02*
X32246Y-103514D01*
X32752Y-104695D02*
X32752Y-104076D01*
X32696Y-103964D01*
X32583Y-103907D01*
X32415Y-103907D01*
X32302Y-103964D01*
X32246Y-104020D01*
X33483Y-104695D02*
X33371Y-104639D01*
X33315Y-104582D01*
X33258Y-104470D01*
X33258Y-104132D01*
X33315Y-104020D01*
X33371Y-103964D01*
X33483Y-103907D01*
X33652Y-103907D01*
X33765Y-103964D01*
X33821Y-104020D01*
X33877Y-104132D01*
X33877Y-104470D01*
X33821Y-104582D01*
X33765Y-104639D01*
X33652Y-104695D01*
X33483Y-104695D01*
X34552Y-104695D02*
X34439Y-104639D01*
X34383Y-104526D01*
X34383Y-103514D01*
X35452Y-104639D02*
X35339Y-104695D01*
X35114Y-104695D01*
X35002Y-104639D01*
X34946Y-104526D01*
X34946Y-104076D01*
X35002Y-103964D01*
X35114Y-103907D01*
X35339Y-103907D01*
X35452Y-103964D01*
X35508Y-104076D01*
X35508Y-104189D01*
X34946Y-104301D01*
X35958Y-104639D02*
X36070Y-104695D01*
X36295Y-104695D01*
X36408Y-104639D01*
X36464Y-104526D01*
X36464Y-104470D01*
X36408Y-104357D01*
X36295Y-104301D01*
X36127Y-104301D01*
X36014Y-104245D01*
X35958Y-104132D01*
X35958Y-104076D01*
X36014Y-103964D01*
X36127Y-103907D01*
X36295Y-103907D01*
X36408Y-103964D01*
X36858Y-105145D02*
X36914Y-105089D01*
X37027Y-104920D01*
X37083Y-104807D01*
X37139Y-104639D01*
X37195Y-104357D01*
X37195Y-104132D01*
X37139Y-103851D01*
X37083Y-103683D01*
X37027Y-103570D01*
X36914Y-103401D01*
X36858Y-103345D01*
G54D12*
X11308Y-105950D02*
X11308Y-105602D01*
X10960Y-105602D01*
X10960Y-105950D01*
X11308Y-105950D01*
G54D13*
X13067Y-106254D02*
X12392Y-106254D01*
X12730Y-106254D02*
X12730Y-105073D01*
X12617Y-105242D01*
X12505Y-105354D01*
X12392Y-105410D01*
X13573Y-106141D02*
X13630Y-106198D01*
X13573Y-106254D01*
X13517Y-106198D01*
X13573Y-106141D01*
X13573Y-106254D01*
X14079Y-105185D02*
X14136Y-105129D01*
X14248Y-105073D01*
X14529Y-105073D01*
X14642Y-105129D01*
X14698Y-105185D01*
X14754Y-105298D01*
X14754Y-105410D01*
X14698Y-105579D01*
X14023Y-106254D01*
X14754Y-106254D01*
X15823Y-105073D02*
X15261Y-105073D01*
X15204Y-105635D01*
X15261Y-105579D01*
X15373Y-105523D01*
X15654Y-105523D01*
X15767Y-105579D01*
X15823Y-105635D01*
X15879Y-105748D01*
X15879Y-106029D01*
X15823Y-106141D01*
X15767Y-106198D01*
X15654Y-106254D01*
X15373Y-106254D01*
X15261Y-106198D01*
X15204Y-106141D01*
X16385Y-106254D02*
X16385Y-105467D01*
X16385Y-105579D02*
X16442Y-105523D01*
X16554Y-105467D01*
X16723Y-105467D01*
X16835Y-105523D01*
X16892Y-105635D01*
X16892Y-106254D01*
X16892Y-105635D02*
X16948Y-105523D01*
X17060Y-105467D01*
X17229Y-105467D01*
X17342Y-105523D01*
X17398Y-105635D01*
X17398Y-106254D01*
X17960Y-106254D02*
X17960Y-105467D01*
X17960Y-105579D02*
X18016Y-105523D01*
X18129Y-105467D01*
X18298Y-105467D01*
X18410Y-105523D01*
X18466Y-105635D01*
X18466Y-106254D01*
X18466Y-105635D02*
X18523Y-105523D01*
X18635Y-105467D01*
X18804Y-105467D01*
X18916Y-105523D01*
X18973Y-105635D01*
X18973Y-106254D01*
X21279Y-105017D02*
X20266Y-106535D01*
X22797Y-105073D02*
X22910Y-105073D01*
X23022Y-105129D01*
X23078Y-105185D01*
X23135Y-105298D01*
X23191Y-105523D01*
X23191Y-105804D01*
X23135Y-106029D01*
X23078Y-106141D01*
X23022Y-106198D01*
X22910Y-106254D01*
X22797Y-106254D01*
X22685Y-106198D01*
X22628Y-106141D01*
X22572Y-106029D01*
X22516Y-105804D01*
X22516Y-105523D01*
X22572Y-105298D01*
X22628Y-105185D01*
X22685Y-105129D01*
X22797Y-105073D01*
X23697Y-106141D02*
X23753Y-106198D01*
X23697Y-106254D01*
X23641Y-106198D01*
X23697Y-106141D01*
X23697Y-106254D01*
X24484Y-105073D02*
X24597Y-105073D01*
X24709Y-105129D01*
X24766Y-105185D01*
X24822Y-105298D01*
X24878Y-105523D01*
X24878Y-105804D01*
X24822Y-106029D01*
X24766Y-106141D01*
X24709Y-106198D01*
X24597Y-106254D01*
X24484Y-106254D01*
X24372Y-106198D01*
X24316Y-106141D01*
X24259Y-106029D01*
X24203Y-105804D01*
X24203Y-105523D01*
X24259Y-105298D01*
X24316Y-105185D01*
X24372Y-105129D01*
X24484Y-105073D01*
X25891Y-105467D02*
X25891Y-106254D01*
X25609Y-105017D02*
X25328Y-105860D01*
X26059Y-105860D01*
X26565Y-106254D02*
X26790Y-106254D01*
X26903Y-106198D01*
X26959Y-106141D01*
X27072Y-105973D01*
X27128Y-105748D01*
X27128Y-105298D01*
X27072Y-105185D01*
X27015Y-105129D01*
X26903Y-105073D01*
X26678Y-105073D01*
X26565Y-105129D01*
X26509Y-105185D01*
X26453Y-105298D01*
X26453Y-105579D01*
X26509Y-105692D01*
X26565Y-105748D01*
X26678Y-105804D01*
X26903Y-105804D01*
X27015Y-105748D01*
X27072Y-105692D01*
X27128Y-105579D01*
X27578Y-105073D02*
X27578Y-105298D01*
X28028Y-105073D02*
X28028Y-105298D01*
X29771Y-106704D02*
X29715Y-106648D01*
X29603Y-106479D01*
X29546Y-106366D01*
X29490Y-106198D01*
X29434Y-105916D01*
X29434Y-105692D01*
X29490Y-105410D01*
X29546Y-105242D01*
X29603Y-105129D01*
X29715Y-104960D01*
X29771Y-104904D01*
X30165Y-105185D02*
X30221Y-105129D01*
X30334Y-105073D01*
X30615Y-105073D01*
X30727Y-105129D01*
X30784Y-105185D01*
X30840Y-105298D01*
X30840Y-105410D01*
X30784Y-105579D01*
X30109Y-106254D01*
X30840Y-106254D01*
X32246Y-106254D02*
X32246Y-105073D01*
X32752Y-106254D02*
X32752Y-105635D01*
X32696Y-105523D01*
X32583Y-105467D01*
X32415Y-105467D01*
X32302Y-105523D01*
X32246Y-105579D01*
X33483Y-106254D02*
X33371Y-106198D01*
X33315Y-106141D01*
X33258Y-106029D01*
X33258Y-105692D01*
X33315Y-105579D01*
X33371Y-105523D01*
X33483Y-105467D01*
X33652Y-105467D01*
X33765Y-105523D01*
X33821Y-105579D01*
X33877Y-105692D01*
X33877Y-106029D01*
X33821Y-106141D01*
X33765Y-106198D01*
X33652Y-106254D01*
X33483Y-106254D01*
X34552Y-106254D02*
X34439Y-106198D01*
X34383Y-106085D01*
X34383Y-105073D01*
X35452Y-106198D02*
X35339Y-106254D01*
X35114Y-106254D01*
X35002Y-106198D01*
X34946Y-106085D01*
X34946Y-105635D01*
X35002Y-105523D01*
X35114Y-105467D01*
X35339Y-105467D01*
X35452Y-105523D01*
X35508Y-105635D01*
X35508Y-105748D01*
X34946Y-105860D01*
X35958Y-106198D02*
X36070Y-106254D01*
X36295Y-106254D01*
X36408Y-106198D01*
X36464Y-106085D01*
X36464Y-106029D01*
X36408Y-105916D01*
X36295Y-105860D01*
X36127Y-105860D01*
X36014Y-105804D01*
X35958Y-105692D01*
X35958Y-105635D01*
X36014Y-105523D01*
X36127Y-105467D01*
X36295Y-105467D01*
X36408Y-105523D01*
X36858Y-106704D02*
X36914Y-106648D01*
X37027Y-106479D01*
X37083Y-106366D01*
X37139Y-106198D01*
X37195Y-105916D01*
X37195Y-105692D01*
X37139Y-105410D01*
X37083Y-105242D01*
X37027Y-105129D01*
X36914Y-104960D01*
X36858Y-104904D01*
G54D12*
X10592Y-108122D02*
X11380Y-107335D01*
X10592Y-106548D01*
X9805Y-107335D01*
X10592Y-108122D01*
G54D13*
X12955Y-107026D02*
X12955Y-107813D01*
X12673Y-106576D02*
X12392Y-107419D01*
X13123Y-107419D01*
X13573Y-107701D02*
X13630Y-107757D01*
X13573Y-107813D01*
X13517Y-107757D01*
X13573Y-107701D01*
X13573Y-107813D01*
X14361Y-106632D02*
X14473Y-106632D01*
X14586Y-106688D01*
X14642Y-106744D01*
X14698Y-106857D01*
X14754Y-107082D01*
X14754Y-107363D01*
X14698Y-107588D01*
X14642Y-107701D01*
X14586Y-107757D01*
X14473Y-107813D01*
X14361Y-107813D01*
X14248Y-107757D01*
X14192Y-107701D01*
X14136Y-107588D01*
X14079Y-107363D01*
X14079Y-107082D01*
X14136Y-106857D01*
X14192Y-106744D01*
X14248Y-106688D01*
X14361Y-106632D01*
X15486Y-106632D02*
X15598Y-106632D01*
X15711Y-106688D01*
X15767Y-106744D01*
X15823Y-106857D01*
X15879Y-107082D01*
X15879Y-107363D01*
X15823Y-107588D01*
X15767Y-107701D01*
X15711Y-107757D01*
X15598Y-107813D01*
X15486Y-107813D01*
X15373Y-107757D01*
X15317Y-107701D01*
X15261Y-107588D01*
X15204Y-107363D01*
X15204Y-107082D01*
X15261Y-106857D01*
X15317Y-106744D01*
X15373Y-106688D01*
X15486Y-106632D01*
X16385Y-107813D02*
X16385Y-107026D01*
X16385Y-107138D02*
X16442Y-107082D01*
X16554Y-107026D01*
X16723Y-107026D01*
X16835Y-107082D01*
X16892Y-107194D01*
X16892Y-107813D01*
X16892Y-107194D02*
X16948Y-107082D01*
X17060Y-107026D01*
X17229Y-107026D01*
X17342Y-107082D01*
X17398Y-107194D01*
X17398Y-107813D01*
X17960Y-107813D02*
X17960Y-107026D01*
X17960Y-107138D02*
X18016Y-107082D01*
X18129Y-107026D01*
X18298Y-107026D01*
X18410Y-107082D01*
X18466Y-107194D01*
X18466Y-107813D01*
X18466Y-107194D02*
X18523Y-107082D01*
X18635Y-107026D01*
X18804Y-107026D01*
X18916Y-107082D01*
X18973Y-107194D01*
X18973Y-107813D01*
X21279Y-106576D02*
X20266Y-108094D01*
X22797Y-106632D02*
X22910Y-106632D01*
X23022Y-106688D01*
X23078Y-106744D01*
X23135Y-106857D01*
X23191Y-107082D01*
X23191Y-107363D01*
X23135Y-107588D01*
X23078Y-107701D01*
X23022Y-107757D01*
X22910Y-107813D01*
X22797Y-107813D01*
X22685Y-107757D01*
X22628Y-107701D01*
X22572Y-107588D01*
X22516Y-107363D01*
X22516Y-107082D01*
X22572Y-106857D01*
X22628Y-106744D01*
X22685Y-106688D01*
X22797Y-106632D01*
X23697Y-107701D02*
X23753Y-107757D01*
X23697Y-107813D01*
X23641Y-107757D01*
X23697Y-107701D01*
X23697Y-107813D01*
X24878Y-107813D02*
X24203Y-107813D01*
X24541Y-107813D02*
X24541Y-106632D01*
X24428Y-106801D01*
X24316Y-106913D01*
X24203Y-106969D01*
X25947Y-106632D02*
X25384Y-106632D01*
X25328Y-107194D01*
X25384Y-107138D01*
X25497Y-107082D01*
X25778Y-107082D01*
X25891Y-107138D01*
X25947Y-107194D01*
X26003Y-107307D01*
X26003Y-107588D01*
X25947Y-107701D01*
X25891Y-107757D01*
X25778Y-107813D01*
X25497Y-107813D01*
X25384Y-107757D01*
X25328Y-107701D01*
X26397Y-106632D02*
X27184Y-106632D01*
X26678Y-107813D01*
X27578Y-106632D02*
X27578Y-106857D01*
X28028Y-106632D02*
X28028Y-106857D01*
X29771Y-108263D02*
X29715Y-108207D01*
X29603Y-108038D01*
X29546Y-107925D01*
X29490Y-107757D01*
X29434Y-107476D01*
X29434Y-107251D01*
X29490Y-106969D01*
X29546Y-106801D01*
X29603Y-106688D01*
X29715Y-106519D01*
X29771Y-106463D01*
X30109Y-106632D02*
X30840Y-106632D01*
X30446Y-107082D01*
X30615Y-107082D01*
X30727Y-107138D01*
X30784Y-107194D01*
X30840Y-107307D01*
X30840Y-107588D01*
X30784Y-107701D01*
X30727Y-107757D01*
X30615Y-107813D01*
X30277Y-107813D01*
X30165Y-107757D01*
X30109Y-107701D01*
X32246Y-107813D02*
X32246Y-106632D01*
X32752Y-107813D02*
X32752Y-107194D01*
X32696Y-107082D01*
X32583Y-107026D01*
X32415Y-107026D01*
X32302Y-107082D01*
X32246Y-107138D01*
X33483Y-107813D02*
X33371Y-107757D01*
X33315Y-107701D01*
X33258Y-107588D01*
X33258Y-107251D01*
X33315Y-107138D01*
X33371Y-107082D01*
X33483Y-107026D01*
X33652Y-107026D01*
X33765Y-107082D01*
X33821Y-107138D01*
X33877Y-107251D01*
X33877Y-107588D01*
X33821Y-107701D01*
X33765Y-107757D01*
X33652Y-107813D01*
X33483Y-107813D01*
X34552Y-107813D02*
X34439Y-107757D01*
X34383Y-107644D01*
X34383Y-106632D01*
X35452Y-107757D02*
X35339Y-107813D01*
X35114Y-107813D01*
X35002Y-107757D01*
X34946Y-107644D01*
X34946Y-107194D01*
X35002Y-107082D01*
X35114Y-107026D01*
X35339Y-107026D01*
X35452Y-107082D01*
X35508Y-107194D01*
X35508Y-107307D01*
X34946Y-107419D01*
X35958Y-107757D02*
X36070Y-107813D01*
X36295Y-107813D01*
X36408Y-107757D01*
X36464Y-107644D01*
X36464Y-107588D01*
X36408Y-107476D01*
X36295Y-107419D01*
X36127Y-107419D01*
X36014Y-107363D01*
X35958Y-107251D01*
X35958Y-107194D01*
X36014Y-107082D01*
X36127Y-107026D01*
X36295Y-107026D01*
X36408Y-107082D01*
X36858Y-108263D02*
X36914Y-108207D01*
X37027Y-108038D01*
X37083Y-107925D01*
X37139Y-107757D01*
X37195Y-107476D01*
X37195Y-107251D01*
X37139Y-106969D01*
X37083Y-106801D01*
X37027Y-106688D01*
X36914Y-106519D01*
X36858Y-106463D01*
X9786Y-108625D02*
X11380Y-110218D01*
X11380Y-108625D02*
X9786Y-110218D01*
G54D12*
X11380Y-109422D02*
G75*
G03X11380Y-109422I-796J0D01*
G74*
G01*
G54D13*
X12955Y-109112D02*
X12955Y-109900D01*
X12673Y-108662D02*
X12392Y-109506D01*
X13123Y-109506D01*
X13573Y-109787D02*
X13630Y-109843D01*
X13573Y-109900D01*
X13517Y-109843D01*
X13573Y-109787D01*
X13573Y-109900D01*
X14361Y-108719D02*
X14473Y-108719D01*
X14586Y-108775D01*
X14642Y-108831D01*
X14698Y-108943D01*
X14754Y-109168D01*
X14754Y-109450D01*
X14698Y-109675D01*
X14642Y-109787D01*
X14586Y-109843D01*
X14473Y-109900D01*
X14361Y-109900D01*
X14248Y-109843D01*
X14192Y-109787D01*
X14136Y-109675D01*
X14079Y-109450D01*
X14079Y-109168D01*
X14136Y-108943D01*
X14192Y-108831D01*
X14248Y-108775D01*
X14361Y-108719D01*
X15823Y-108719D02*
X15261Y-108719D01*
X15204Y-109281D01*
X15261Y-109225D01*
X15373Y-109168D01*
X15654Y-109168D01*
X15767Y-109225D01*
X15823Y-109281D01*
X15879Y-109393D01*
X15879Y-109675D01*
X15823Y-109787D01*
X15767Y-109843D01*
X15654Y-109900D01*
X15373Y-109900D01*
X15261Y-109843D01*
X15204Y-109787D01*
X16385Y-109900D02*
X16385Y-109112D01*
X16385Y-109225D02*
X16442Y-109168D01*
X16554Y-109112D01*
X16723Y-109112D01*
X16835Y-109168D01*
X16892Y-109281D01*
X16892Y-109900D01*
X16892Y-109281D02*
X16948Y-109168D01*
X17060Y-109112D01*
X17229Y-109112D01*
X17342Y-109168D01*
X17398Y-109281D01*
X17398Y-109900D01*
X17960Y-109900D02*
X17960Y-109112D01*
X17960Y-109225D02*
X18016Y-109168D01*
X18129Y-109112D01*
X18298Y-109112D01*
X18410Y-109168D01*
X18466Y-109281D01*
X18466Y-109900D01*
X18466Y-109281D02*
X18523Y-109168D01*
X18635Y-109112D01*
X18804Y-109112D01*
X18916Y-109168D01*
X18973Y-109281D01*
X18973Y-109900D01*
X21279Y-108662D02*
X20266Y-110181D01*
X22797Y-108719D02*
X22910Y-108719D01*
X23022Y-108775D01*
X23078Y-108831D01*
X23135Y-108943D01*
X23191Y-109168D01*
X23191Y-109450D01*
X23135Y-109675D01*
X23078Y-109787D01*
X23022Y-109843D01*
X22910Y-109900D01*
X22797Y-109900D01*
X22685Y-109843D01*
X22628Y-109787D01*
X22572Y-109675D01*
X22516Y-109450D01*
X22516Y-109168D01*
X22572Y-108943D01*
X22628Y-108831D01*
X22685Y-108775D01*
X22797Y-108719D01*
X23697Y-109787D02*
X23753Y-109843D01*
X23697Y-109900D01*
X23641Y-109843D01*
X23697Y-109787D01*
X23697Y-109900D01*
X24878Y-109900D02*
X24203Y-109900D01*
X24541Y-109900D02*
X24541Y-108719D01*
X24428Y-108887D01*
X24316Y-109000D01*
X24203Y-109056D01*
X25947Y-108719D02*
X25384Y-108719D01*
X25328Y-109281D01*
X25384Y-109225D01*
X25497Y-109168D01*
X25778Y-109168D01*
X25891Y-109225D01*
X25947Y-109281D01*
X26003Y-109393D01*
X26003Y-109675D01*
X25947Y-109787D01*
X25891Y-109843D01*
X25778Y-109900D01*
X25497Y-109900D01*
X25384Y-109843D01*
X25328Y-109787D01*
X26565Y-109900D02*
X26790Y-109900D01*
X26903Y-109843D01*
X26959Y-109787D01*
X27072Y-109618D01*
X27128Y-109393D01*
X27128Y-108943D01*
X27072Y-108831D01*
X27015Y-108775D01*
X26903Y-108719D01*
X26678Y-108719D01*
X26565Y-108775D01*
X26509Y-108831D01*
X26453Y-108943D01*
X26453Y-109225D01*
X26509Y-109337D01*
X26565Y-109393D01*
X26678Y-109450D01*
X26903Y-109450D01*
X27015Y-109393D01*
X27072Y-109337D01*
X27128Y-109225D01*
X27578Y-108719D02*
X27578Y-108943D01*
X28028Y-108719D02*
X28028Y-108943D01*
X29771Y-110350D02*
X29715Y-110293D01*
X29603Y-110125D01*
X29546Y-110012D01*
X29490Y-109843D01*
X29434Y-109562D01*
X29434Y-109337D01*
X29490Y-109056D01*
X29546Y-108887D01*
X29603Y-108775D01*
X29715Y-108606D01*
X29771Y-108550D01*
X30840Y-109900D02*
X30165Y-109900D01*
X30502Y-109900D02*
X30502Y-108719D01*
X30390Y-108887D01*
X30277Y-109000D01*
X30165Y-109056D01*
X32246Y-109900D02*
X32246Y-108719D01*
X32752Y-109900D02*
X32752Y-109281D01*
X32696Y-109168D01*
X32583Y-109112D01*
X32415Y-109112D01*
X32302Y-109168D01*
X32246Y-109225D01*
X33483Y-109900D02*
X33371Y-109843D01*
X33315Y-109787D01*
X33258Y-109675D01*
X33258Y-109337D01*
X33315Y-109225D01*
X33371Y-109168D01*
X33483Y-109112D01*
X33652Y-109112D01*
X33765Y-109168D01*
X33821Y-109225D01*
X33877Y-109337D01*
X33877Y-109675D01*
X33821Y-109787D01*
X33765Y-109843D01*
X33652Y-109900D01*
X33483Y-109900D01*
X34552Y-109900D02*
X34439Y-109843D01*
X34383Y-109731D01*
X34383Y-108719D01*
X35452Y-109843D02*
X35339Y-109900D01*
X35114Y-109900D01*
X35002Y-109843D01*
X34946Y-109731D01*
X34946Y-109281D01*
X35002Y-109168D01*
X35114Y-109112D01*
X35339Y-109112D01*
X35452Y-109168D01*
X35508Y-109281D01*
X35508Y-109393D01*
X34946Y-109506D01*
X35902Y-110350D02*
X35958Y-110293D01*
X36070Y-110125D01*
X36127Y-110012D01*
X36183Y-109843D01*
X36239Y-109562D01*
X36239Y-109337D01*
X36183Y-109056D01*
X36127Y-108887D01*
X36070Y-108775D01*
X35958Y-108606D01*
X35902Y-108550D01*
M02*
