M48
;DRILL file {Pcbnew (2013-07-07 BZR 4022)-stable} date 1/25/2016 6:15:24 PM
;FORMAT={-:-/ absolute / inch / decimal}
FMAT,2
INCH,TZ
T1C0.032
T2C0.032
T3C0.045
T4C0.049
T5C0.157
T6C0.159
%
G90
G05
M72
T1
X1.3639Y-2.2828
X1.3639Y-2.6765
X1.3639Y-3.0702
X1.3639Y-3.4561
X1.3639Y-3.8616
X1.3639Y-4.2553
X1.3639Y-5.8104
X1.3639Y-6.2041
X1.3639Y-6.5978
X1.3639Y-6.9915
X1.3639Y-7.3852
X1.3639Y-7.7789
X1.4639Y-2.2828
X1.4639Y-2.6765
X1.4639Y-3.0702
X1.4639Y-3.4561
X1.4639Y-3.8616
X1.4639Y-4.2553
X1.4639Y-5.8104
X1.4639Y-6.2041
X1.4639Y-6.5978
X1.4639Y-6.9915
X1.4639Y-7.3852
X1.4639Y-7.7789
X1.5607Y-1.8891
X1.5607Y-4.649
X1.5607Y-5.4167
X1.5607Y-8.1726
X1.6607Y-1.8891
X1.6607Y-4.649
X1.6607Y-5.4167
X1.6607Y-8.1726
X1.7576Y-2.2828
X1.7576Y-2.6765
X1.7576Y-3.0702
X1.7576Y-3.4639
X1.7576Y-3.8576
X1.7576Y-4.2553
X1.7576Y-5.8104
X1.7576Y-6.2041
X1.7576Y-6.5978
X1.7576Y-6.9915
X1.7576Y-7.3852
X1.7576Y-7.7789
X1.8576Y-2.2828
X1.8576Y-2.6765
X1.8576Y-3.0702
X1.8576Y-3.4639
X1.8576Y-3.8576
X1.8576Y-4.2553
X1.8576Y-5.8104
X1.8576Y-6.2041
X1.8576Y-6.5978
X1.8576Y-6.9915
X1.8576Y-7.3852
X1.8576Y-7.7789
X2.0044Y-1.4454
X2.0044Y-1.5454
X2.0044Y-4.973
X2.0044Y-5.073
X2.0044Y-8.5163
X2.0044Y-8.6163
X2.3981Y-1.2486
X2.3981Y-1.3486
X2.3981Y-1.6423
X2.3981Y-1.7423
X2.3981Y-4.7761
X2.3981Y-4.8761
X2.3981Y-5.1698
X2.3981Y-5.2698
X2.3981Y-8.3194
X2.3981Y-8.4194
X2.3981Y-8.7131
X2.3981Y-8.8131
X2.7918Y-1.2486
X2.7918Y-1.3486
X2.7918Y-1.6423
X2.7918Y-1.7423
X2.7918Y-4.7761
X2.7918Y-4.8761
X2.7918Y-5.1698
X2.7918Y-5.2698
X2.7918Y-8.3194
X2.7918Y-8.4194
X2.7918Y-8.7131
X2.7918Y-8.8131
X3.1855Y-1.2486
X3.1855Y-1.3486
X3.1855Y-1.6423
X3.1855Y-1.7423
X3.1855Y-4.7761
X3.1855Y-4.8761
X3.1855Y-5.1698
X3.1855Y-5.2698
X3.1855Y-8.3194
X3.1855Y-8.4194
X3.1855Y-8.7131
X3.1855Y-8.8131
X3.5792Y-1.2486
X3.5792Y-1.3486
X3.5792Y-1.6423
X3.5792Y-1.7423
X3.5792Y-4.7761
X3.5792Y-4.8761
X3.5792Y-5.1698
X3.5792Y-5.2698
X3.5792Y-8.3194
X3.5792Y-8.4194
X3.5792Y-8.7131
X3.5792Y-8.8131
X3.9729Y-1.2486
X3.9729Y-1.3486
X3.9729Y-1.6423
X3.9729Y-1.7423
X3.9729Y-4.7761
X3.9729Y-4.8761
X3.9729Y-5.1698
X3.9729Y-5.2698
X3.9729Y-8.3194
X3.9729Y-8.4194
X3.9729Y-8.7131
X3.9729Y-8.8131
X4.3666Y-1.2486
X4.3666Y-1.3486
X4.3666Y-1.6423
X4.3666Y-1.7423
X4.3666Y-4.7761
X4.3666Y-4.8761
X4.3666Y-5.1698
X4.3666Y-5.2698
X4.3666Y-8.3194
X4.3666Y-8.4194
X4.3666Y-8.7131
X4.3666Y-8.8131
X4.7603Y-1.4454
X4.7603Y-1.5454
X4.7603Y-4.973
X4.7603Y-5.073
X4.7603Y-8.5163
X4.7603Y-8.6163
X4.9072Y-2.2828
X4.9072Y-2.6765
X4.9072Y-3.0702
X4.9072Y-3.4521
X4.9072Y-3.8537
X4.9072Y-4.2553
X4.9072Y-5.8104
X4.9072Y-6.2041
X4.9072Y-6.5978
X4.9072Y-6.9915
X4.9072Y-7.3852
X4.9072Y-7.7789
X5.0072Y-2.2828
X5.0072Y-2.6765
X5.0072Y-3.0702
X5.0072Y-3.4521
X5.0072Y-3.8537
X5.0072Y-4.2553
X5.0072Y-5.8104
X5.0072Y-6.2041
X5.0072Y-6.5978
X5.0072Y-6.9915
X5.0072Y-7.3852
X5.0072Y-7.7789
X5.104Y-1.8891
X5.104Y-4.6293
X5.104Y-5.4167
X5.104Y-8.1726
X5.204Y-1.8891
X5.204Y-4.6293
X5.204Y-5.4167
X5.204Y-8.1726
X5.3009Y-2.2828
X5.3009Y-2.6765
X5.3009Y-3.0702
X5.3009Y-3.4639
X5.3009Y-3.8576
X5.3009Y-4.2592
X5.3009Y-5.8104
X5.3009Y-6.2041
X5.3009Y-6.5978
X5.3009Y-6.9915
X5.3009Y-7.3852
X5.3009Y-7.7789
X5.4009Y-2.2828
X5.4009Y-2.6765
X5.4009Y-3.0702
X5.4009Y-3.4639
X5.4009Y-3.8576
X5.4009Y-4.2592
X5.4009Y-5.8104
X5.4009Y-6.2041
X5.4009Y-6.5978
X5.4009Y-6.9915
X5.4009Y-7.3852
X5.4009Y-7.7789
X5.9Y-8.55
X5.9Y-8.65
T2
X2.0061Y-9.168
X2.1061Y-9.168
X2.2061Y-9.168
X2.3061Y-9.168
X2.4061Y-9.168
X2.5061Y-9.168
X2.6061Y-9.168
X2.7061Y-9.168
X3.7104Y-9.168
X3.8104Y-9.168
X3.9104Y-9.168
X4.0104Y-9.168
X4.1104Y-9.168
X4.2104Y-9.168
X4.3104Y-9.168
X4.4104Y-9.168
T3
X1.385Y-4.84
X1.985Y-4.84
X4.62Y-8.825
X4.62Y-9.425
X4.785Y-8.81
X5.385Y-8.81
T4
X4.92Y-9.51
X5.12Y-9.51
T5
X1.4Y-9.51
X5.785Y-1.36
X5.785Y-9.51
T6
X1.4Y-1.36
T0
M30
