G04 (created by PCBNEW (2013-07-07 BZR 4022)-stable) date 1/25/2016 6:15:22 PM*
%MOIN*%
G04 Gerber Fmt 3.4, Leading zero omitted, Abs format*
%FSLAX34Y34*%
G01*
G70*
G90*
G04 APERTURE LIST*
%ADD10C,0.00590551*%
%ADD11C,0.011811*%
%ADD12C,0.0118*%
%ADD13C,0.012*%
%ADD14C,0.01*%
%ADD15C,0.015*%
%ADD16C,0.008*%
%ADD17C,0.0107*%
G04 APERTURE END LIST*
G54D10*
G54D11*
X26411Y-90839D02*
X26411Y-90248D01*
X26551Y-90248D01*
X26635Y-90276D01*
X26692Y-90332D01*
X26720Y-90389D01*
X26748Y-90501D01*
X26748Y-90585D01*
X26720Y-90698D01*
X26692Y-90754D01*
X26635Y-90810D01*
X26551Y-90839D01*
X26411Y-90839D01*
X27114Y-90248D02*
X27226Y-90248D01*
X27282Y-90276D01*
X27339Y-90332D01*
X27367Y-90445D01*
X27367Y-90642D01*
X27339Y-90754D01*
X27282Y-90810D01*
X27226Y-90839D01*
X27114Y-90839D01*
X27057Y-90810D01*
X27001Y-90754D01*
X26973Y-90642D01*
X26973Y-90445D01*
X27001Y-90332D01*
X27057Y-90276D01*
X27114Y-90248D01*
X27535Y-90248D02*
X27873Y-90248D01*
X27704Y-90839D02*
X27704Y-90248D01*
X19959Y-90670D02*
X20240Y-90670D01*
X19903Y-90839D02*
X20100Y-90248D01*
X20296Y-90839D01*
X36909Y-92970D02*
X37190Y-92970D01*
X36853Y-93139D02*
X37050Y-92548D01*
X37246Y-93139D01*
X43511Y-93239D02*
X43511Y-92648D01*
X43651Y-92648D01*
X43735Y-92676D01*
X43792Y-92732D01*
X43820Y-92789D01*
X43848Y-92901D01*
X43848Y-92985D01*
X43820Y-93098D01*
X43792Y-93154D01*
X43735Y-93210D01*
X43651Y-93239D01*
X43511Y-93239D01*
X44214Y-92648D02*
X44326Y-92648D01*
X44382Y-92676D01*
X44439Y-92732D01*
X44467Y-92845D01*
X44467Y-93042D01*
X44439Y-93154D01*
X44382Y-93210D01*
X44326Y-93239D01*
X44214Y-93239D01*
X44157Y-93210D01*
X44101Y-93154D01*
X44073Y-93042D01*
X44073Y-92845D01*
X44101Y-92732D01*
X44157Y-92676D01*
X44214Y-92648D01*
X44635Y-92648D02*
X44973Y-92648D01*
X44804Y-93239D02*
X44804Y-92648D01*
X52843Y-95339D02*
X52843Y-94748D01*
X52984Y-94748D01*
X53068Y-94776D01*
X53125Y-94832D01*
X53153Y-94889D01*
X53181Y-95001D01*
X53181Y-95085D01*
X53153Y-95198D01*
X53125Y-95254D01*
X53068Y-95310D01*
X52984Y-95339D01*
X52843Y-95339D01*
X53434Y-95339D02*
X53434Y-94748D01*
X54024Y-94776D02*
X53968Y-94748D01*
X53884Y-94748D01*
X53800Y-94776D01*
X53743Y-94832D01*
X53715Y-94889D01*
X53687Y-95001D01*
X53687Y-95085D01*
X53715Y-95198D01*
X53743Y-95254D01*
X53800Y-95310D01*
X53884Y-95339D01*
X53940Y-95339D01*
X54024Y-95310D01*
X54053Y-95282D01*
X54053Y-95085D01*
X53940Y-95085D01*
X54306Y-95339D02*
X54306Y-94748D01*
X54503Y-94748D02*
X54840Y-94748D01*
X54671Y-95339D02*
X54671Y-94748D01*
G54D12*
X13154Y-65398D02*
X13154Y-66556D01*
X13158Y-66564D02*
G75*
G03X14725Y-66958I980J586D01*
G74*
G01*
X14718Y-64994D02*
G75*
G03X13154Y-65398I-579J-983D01*
G74*
G01*
X14138Y-67119D02*
G75*
G03X15280Y-65977I0J1142D01*
G74*
G01*
X15280Y-65977D02*
G75*
G03X14138Y-64835I-1142J0D01*
G74*
G01*
X15122Y-65977D02*
G75*
G03X15122Y-65977I-984J0D01*
G74*
G01*
X17091Y-30123D02*
X17091Y-31281D01*
X17095Y-31289D02*
G75*
G03X18662Y-31682I980J586D01*
G74*
G01*
X18655Y-29718D02*
G75*
G03X17091Y-30122I-579J-983D01*
G74*
G01*
X18075Y-31844D02*
G75*
G03X19217Y-30702I0J1142D01*
G74*
G01*
X19217Y-30702D02*
G75*
G03X18075Y-29560I-1142J0D01*
G74*
G01*
X19059Y-30702D02*
G75*
G03X19059Y-30702I-984J0D01*
G74*
G01*
X17091Y-26186D02*
X17091Y-27344D01*
X17095Y-27351D02*
G75*
G03X18662Y-27745I980J586D01*
G74*
G01*
X18655Y-25781D02*
G75*
G03X17091Y-26185I-579J-983D01*
G74*
G01*
X18075Y-27907D02*
G75*
G03X19217Y-26765I0J1142D01*
G74*
G01*
X19217Y-26765D02*
G75*
G03X18075Y-25623I-1142J0D01*
G74*
G01*
X19059Y-26765D02*
G75*
G03X19059Y-26765I-984J0D01*
G74*
G01*
X15123Y-81146D02*
X15123Y-82304D01*
X15126Y-82312D02*
G75*
G03X16693Y-82706I980J586D01*
G74*
G01*
X16686Y-80742D02*
G75*
G03X15123Y-81146I-579J-983D01*
G74*
G01*
X16107Y-82867D02*
G75*
G03X17249Y-81725I0J1142D01*
G74*
G01*
X17249Y-81725D02*
G75*
G03X16107Y-80583I-1142J0D01*
G74*
G01*
X17091Y-81725D02*
G75*
G03X17091Y-81725I-984J0D01*
G74*
G01*
X15123Y-53587D02*
X15123Y-54745D01*
X15126Y-54753D02*
G75*
G03X16693Y-55147I980J586D01*
G74*
G01*
X16686Y-53183D02*
G75*
G03X15123Y-53587I-579J-983D01*
G74*
G01*
X16107Y-55308D02*
G75*
G03X17249Y-54166I0J1142D01*
G74*
G01*
X17249Y-54166D02*
G75*
G03X16107Y-53024I-1142J0D01*
G74*
G01*
X17091Y-54166D02*
G75*
G03X17091Y-54166I-984J0D01*
G74*
G01*
X17091Y-69335D02*
X17091Y-70493D01*
X17095Y-70501D02*
G75*
G03X18662Y-70895I980J586D01*
G74*
G01*
X18655Y-68931D02*
G75*
G03X17091Y-69335I-579J-983D01*
G74*
G01*
X18075Y-71056D02*
G75*
G03X19217Y-69914I0J1142D01*
G74*
G01*
X19217Y-69914D02*
G75*
G03X18075Y-68772I-1142J0D01*
G74*
G01*
X19059Y-69914D02*
G75*
G03X19059Y-69914I-984J0D01*
G74*
G01*
X17091Y-65398D02*
X17091Y-66556D01*
X17095Y-66564D02*
G75*
G03X18662Y-66958I980J586D01*
G74*
G01*
X18655Y-64994D02*
G75*
G03X17091Y-65398I-579J-983D01*
G74*
G01*
X18075Y-67119D02*
G75*
G03X19217Y-65977I0J1142D01*
G74*
G01*
X19217Y-65977D02*
G75*
G03X18075Y-64835I-1142J0D01*
G74*
G01*
X19059Y-65977D02*
G75*
G03X19059Y-65977I-984J0D01*
G74*
G01*
X17091Y-61461D02*
X17091Y-62619D01*
X17095Y-62627D02*
G75*
G03X18662Y-63021I980J586D01*
G74*
G01*
X18655Y-61057D02*
G75*
G03X17091Y-61461I-579J-983D01*
G74*
G01*
X18075Y-63182D02*
G75*
G03X19217Y-62040I0J1142D01*
G74*
G01*
X19217Y-62040D02*
G75*
G03X18075Y-60898I-1142J0D01*
G74*
G01*
X19059Y-62040D02*
G75*
G03X19059Y-62040I-984J0D01*
G74*
G01*
X17091Y-57524D02*
X17091Y-58682D01*
X17095Y-58690D02*
G75*
G03X18662Y-59084I980J586D01*
G74*
G01*
X18655Y-57120D02*
G75*
G03X17091Y-57524I-579J-983D01*
G74*
G01*
X18075Y-59245D02*
G75*
G03X19217Y-58103I0J1142D01*
G74*
G01*
X19217Y-58103D02*
G75*
G03X18075Y-56961I-1142J0D01*
G74*
G01*
X19059Y-58103D02*
G75*
G03X19059Y-58103I-984J0D01*
G74*
G01*
X13154Y-69335D02*
X13154Y-70493D01*
X13158Y-70501D02*
G75*
G03X14725Y-70895I980J586D01*
G74*
G01*
X14718Y-68931D02*
G75*
G03X13154Y-69335I-579J-983D01*
G74*
G01*
X14138Y-71056D02*
G75*
G03X15280Y-69914I0J1142D01*
G74*
G01*
X15280Y-69914D02*
G75*
G03X14138Y-68772I-1142J0D01*
G74*
G01*
X15122Y-69914D02*
G75*
G03X15122Y-69914I-984J0D01*
G74*
G01*
X17091Y-37997D02*
X17091Y-39155D01*
X17095Y-39163D02*
G75*
G03X18662Y-39556I980J586D01*
G74*
G01*
X18655Y-37592D02*
G75*
G03X17091Y-37996I-579J-983D01*
G74*
G01*
X18075Y-39718D02*
G75*
G03X19217Y-38576I0J1142D01*
G74*
G01*
X19217Y-38576D02*
G75*
G03X18075Y-37434I-1142J0D01*
G74*
G01*
X19059Y-38576D02*
G75*
G03X19059Y-38576I-984J0D01*
G74*
G01*
X13154Y-61461D02*
X13154Y-62619D01*
X13158Y-62627D02*
G75*
G03X14725Y-63021I980J586D01*
G74*
G01*
X14718Y-61057D02*
G75*
G03X13154Y-61461I-579J-983D01*
G74*
G01*
X14138Y-63182D02*
G75*
G03X15280Y-62040I0J1142D01*
G74*
G01*
X15280Y-62040D02*
G75*
G03X14138Y-60898I-1142J0D01*
G74*
G01*
X15122Y-62040D02*
G75*
G03X15122Y-62040I-984J0D01*
G74*
G01*
X13154Y-57524D02*
X13154Y-58682D01*
X13158Y-58690D02*
G75*
G03X14725Y-59084I980J586D01*
G74*
G01*
X14718Y-57120D02*
G75*
G03X13154Y-57524I-579J-983D01*
G74*
G01*
X14138Y-59245D02*
G75*
G03X15280Y-58103I0J1142D01*
G74*
G01*
X15280Y-58103D02*
G75*
G03X14138Y-56961I-1142J0D01*
G74*
G01*
X15122Y-58103D02*
G75*
G03X15122Y-58103I-984J0D01*
G74*
G01*
X47024Y-15938D02*
X48182Y-15938D01*
X48189Y-15934D02*
G75*
G03X48583Y-14367I-586J980D01*
G74*
G01*
X46619Y-14374D02*
G75*
G03X47023Y-15938I983J-579D01*
G74*
G01*
X48745Y-14954D02*
G75*
G03X47603Y-13812I-1142J0D01*
G74*
G01*
X47603Y-13812D02*
G75*
G03X46461Y-14954I0J-1142D01*
G74*
G01*
X48587Y-14954D02*
G75*
G03X48587Y-14954I-984J0D01*
G74*
G01*
X23402Y-13969D02*
X24560Y-13969D01*
X24567Y-13966D02*
G75*
G03X24961Y-12399I-586J980D01*
G74*
G01*
X22997Y-12406D02*
G75*
G03X23401Y-13969I983J-579D01*
G74*
G01*
X25123Y-12985D02*
G75*
G03X23981Y-11843I-1142J0D01*
G74*
G01*
X23981Y-11843D02*
G75*
G03X22839Y-12985I0J-1142D01*
G74*
G01*
X24965Y-12985D02*
G75*
G03X24965Y-12985I-984J0D01*
G74*
G01*
X19465Y-15938D02*
X20623Y-15938D01*
X20630Y-15934D02*
G75*
G03X21024Y-14367I-586J980D01*
G74*
G01*
X19060Y-14374D02*
G75*
G03X19464Y-15938I983J-579D01*
G74*
G01*
X21186Y-14954D02*
G75*
G03X20044Y-13812I-1142J0D01*
G74*
G01*
X20044Y-13812D02*
G75*
G03X18902Y-14954I0J-1142D01*
G74*
G01*
X21028Y-14954D02*
G75*
G03X21028Y-14954I-984J0D01*
G74*
G01*
X31276Y-13969D02*
X32434Y-13969D01*
X32441Y-13966D02*
G75*
G03X32835Y-12399I-586J980D01*
G74*
G01*
X30871Y-12406D02*
G75*
G03X31275Y-13969I983J-579D01*
G74*
G01*
X32997Y-12985D02*
G75*
G03X31855Y-11843I-1141J0D01*
G74*
G01*
X31855Y-11843D02*
G75*
G03X30713Y-12985I0J-1142D01*
G74*
G01*
X32839Y-12985D02*
G75*
G03X32839Y-12985I-983J0D01*
G74*
G01*
X35213Y-13969D02*
X36371Y-13969D01*
X36378Y-13966D02*
G75*
G03X36772Y-12399I-586J980D01*
G74*
G01*
X34808Y-12406D02*
G75*
G03X35212Y-13969I983J-579D01*
G74*
G01*
X36934Y-12985D02*
G75*
G03X35792Y-11843I-1142J0D01*
G74*
G01*
X35792Y-11843D02*
G75*
G03X34650Y-12985I0J-1142D01*
G74*
G01*
X36776Y-12985D02*
G75*
G03X36776Y-12985I-984J0D01*
G74*
G01*
X39150Y-49245D02*
X40308Y-49245D01*
X40315Y-49241D02*
G75*
G03X40709Y-47674I-586J980D01*
G74*
G01*
X38745Y-47681D02*
G75*
G03X39149Y-49245I983J-579D01*
G74*
G01*
X40871Y-48261D02*
G75*
G03X39729Y-47119I-1142J0D01*
G74*
G01*
X39729Y-47119D02*
G75*
G03X38587Y-48261I0J-1142D01*
G74*
G01*
X40713Y-48261D02*
G75*
G03X40713Y-48261I-984J0D01*
G74*
G01*
X19465Y-51213D02*
X20623Y-51213D01*
X20630Y-51210D02*
G75*
G03X21024Y-49643I-586J980D01*
G74*
G01*
X19060Y-49650D02*
G75*
G03X19464Y-51213I983J-579D01*
G74*
G01*
X21186Y-50229D02*
G75*
G03X20044Y-49087I-1142J0D01*
G74*
G01*
X20044Y-49087D02*
G75*
G03X18902Y-50229I0J-1142D01*
G74*
G01*
X21028Y-50229D02*
G75*
G03X21028Y-50229I-984J0D01*
G74*
G01*
X47024Y-51213D02*
X48182Y-51213D01*
X48189Y-51210D02*
G75*
G03X48583Y-49643I-586J980D01*
G74*
G01*
X46619Y-49650D02*
G75*
G03X47023Y-51213I983J-579D01*
G74*
G01*
X48745Y-50229D02*
G75*
G03X47603Y-49087I-1142J0D01*
G74*
G01*
X47603Y-49087D02*
G75*
G03X46461Y-50229I0J-1142D01*
G74*
G01*
X48587Y-50229D02*
G75*
G03X48587Y-50229I-984J0D01*
G74*
G01*
X43087Y-53182D02*
X44245Y-53182D01*
X44252Y-53178D02*
G75*
G03X44646Y-51611I-586J980D01*
G74*
G01*
X42682Y-51618D02*
G75*
G03X43086Y-53182I983J-579D01*
G74*
G01*
X44808Y-52198D02*
G75*
G03X43666Y-51056I-1142J0D01*
G74*
G01*
X43666Y-51056D02*
G75*
G03X42524Y-52198I0J-1142D01*
G74*
G01*
X44650Y-52198D02*
G75*
G03X44650Y-52198I-984J0D01*
G74*
G01*
X39150Y-53182D02*
X40308Y-53182D01*
X40315Y-53178D02*
G75*
G03X40709Y-51611I-586J980D01*
G74*
G01*
X38745Y-51618D02*
G75*
G03X39149Y-53182I983J-579D01*
G74*
G01*
X40871Y-52198D02*
G75*
G03X39729Y-51056I-1142J0D01*
G74*
G01*
X39729Y-51056D02*
G75*
G03X38587Y-52198I0J-1142D01*
G74*
G01*
X40713Y-52198D02*
G75*
G03X40713Y-52198I-984J0D01*
G74*
G01*
X35213Y-53182D02*
X36371Y-53182D01*
X36378Y-53178D02*
G75*
G03X36772Y-51611I-586J980D01*
G74*
G01*
X34808Y-51618D02*
G75*
G03X35212Y-53182I983J-579D01*
G74*
G01*
X36934Y-52198D02*
G75*
G03X35792Y-51056I-1142J0D01*
G74*
G01*
X35792Y-51056D02*
G75*
G03X34650Y-52198I0J-1142D01*
G74*
G01*
X36776Y-52198D02*
G75*
G03X36776Y-52198I-984J0D01*
G74*
G01*
X31276Y-53182D02*
X32434Y-53182D01*
X32441Y-53178D02*
G75*
G03X32835Y-51611I-586J980D01*
G74*
G01*
X30871Y-51618D02*
G75*
G03X31275Y-53182I983J-579D01*
G74*
G01*
X32997Y-52198D02*
G75*
G03X31855Y-51056I-1141J0D01*
G74*
G01*
X31855Y-51056D02*
G75*
G03X30713Y-52198I0J-1142D01*
G74*
G01*
X32839Y-52198D02*
G75*
G03X32839Y-52198I-983J0D01*
G74*
G01*
X31276Y-49245D02*
X32434Y-49245D01*
X32441Y-49241D02*
G75*
G03X32835Y-47674I-586J980D01*
G74*
G01*
X30871Y-47681D02*
G75*
G03X31275Y-49245I983J-579D01*
G74*
G01*
X32997Y-48261D02*
G75*
G03X31855Y-47119I-1141J0D01*
G74*
G01*
X31855Y-47119D02*
G75*
G03X30713Y-48261I0J-1142D01*
G74*
G01*
X32839Y-48261D02*
G75*
G03X32839Y-48261I-983J0D01*
G74*
G01*
X35213Y-49245D02*
X36371Y-49245D01*
X36378Y-49241D02*
G75*
G03X36772Y-47674I-586J980D01*
G74*
G01*
X34808Y-47681D02*
G75*
G03X35212Y-49245I983J-579D01*
G74*
G01*
X36934Y-48261D02*
G75*
G03X35792Y-47119I-1142J0D01*
G74*
G01*
X35792Y-47119D02*
G75*
G03X34650Y-48261I0J-1142D01*
G74*
G01*
X36776Y-48261D02*
G75*
G03X36776Y-48261I-984J0D01*
G74*
G01*
X17091Y-34060D02*
X17091Y-35218D01*
X17095Y-35226D02*
G75*
G03X18662Y-35619I980J586D01*
G74*
G01*
X18655Y-33655D02*
G75*
G03X17091Y-34059I-579J-983D01*
G74*
G01*
X18075Y-35781D02*
G75*
G03X19217Y-34639I0J1142D01*
G74*
G01*
X19217Y-34639D02*
G75*
G03X18075Y-33497I-1142J0D01*
G74*
G01*
X19059Y-34639D02*
G75*
G03X19059Y-34639I-984J0D01*
G74*
G01*
X43087Y-49245D02*
X44245Y-49245D01*
X44252Y-49241D02*
G75*
G03X44646Y-47674I-586J980D01*
G74*
G01*
X42682Y-47681D02*
G75*
G03X43086Y-49245I983J-579D01*
G74*
G01*
X44808Y-48261D02*
G75*
G03X43666Y-47119I-1142J0D01*
G74*
G01*
X43666Y-47119D02*
G75*
G03X42524Y-48261I0J-1142D01*
G74*
G01*
X44650Y-48261D02*
G75*
G03X44650Y-48261I-984J0D01*
G74*
G01*
X13154Y-41973D02*
X13154Y-43131D01*
X13158Y-43139D02*
G75*
G03X14725Y-43532I980J586D01*
G74*
G01*
X14718Y-41569D02*
G75*
G03X13154Y-41973I-579J-983D01*
G74*
G01*
X14138Y-43694D02*
G75*
G03X15280Y-42552I0J1142D01*
G74*
G01*
X15280Y-42552D02*
G75*
G03X14138Y-41410I-1142J0D01*
G74*
G01*
X15122Y-42552D02*
G75*
G03X15122Y-42552I-984J0D01*
G74*
G01*
X17091Y-22249D02*
X17091Y-23407D01*
X17095Y-23414D02*
G75*
G03X18662Y-23808I980J586D01*
G74*
G01*
X18655Y-21844D02*
G75*
G03X17091Y-22248I-579J-983D01*
G74*
G01*
X18075Y-23970D02*
G75*
G03X19217Y-22828I0J1142D01*
G74*
G01*
X19217Y-22828D02*
G75*
G03X18075Y-21686I-1142J0D01*
G74*
G01*
X19059Y-22828D02*
G75*
G03X19059Y-22828I-984J0D01*
G74*
G01*
X15123Y-18312D02*
X15123Y-19470D01*
X15126Y-19477D02*
G75*
G03X16693Y-19871I980J586D01*
G74*
G01*
X16686Y-17907D02*
G75*
G03X15123Y-18311I-579J-983D01*
G74*
G01*
X16107Y-20033D02*
G75*
G03X17249Y-18891I0J1142D01*
G74*
G01*
X17249Y-18891D02*
G75*
G03X16107Y-17749I-1142J0D01*
G74*
G01*
X17091Y-18891D02*
G75*
G03X17091Y-18891I-984J0D01*
G74*
G01*
X13154Y-26186D02*
X13154Y-27344D01*
X13158Y-27351D02*
G75*
G03X14725Y-27745I980J586D01*
G74*
G01*
X14718Y-25781D02*
G75*
G03X13154Y-26185I-579J-983D01*
G74*
G01*
X14138Y-27907D02*
G75*
G03X15280Y-26765I0J1142D01*
G74*
G01*
X15280Y-26765D02*
G75*
G03X14138Y-25623I-1142J0D01*
G74*
G01*
X15122Y-26765D02*
G75*
G03X15122Y-26765I-984J0D01*
G74*
G01*
X13154Y-22249D02*
X13154Y-23407D01*
X13158Y-23414D02*
G75*
G03X14725Y-23808I980J586D01*
G74*
G01*
X14718Y-21844D02*
G75*
G03X13154Y-22248I-579J-983D01*
G74*
G01*
X14138Y-23970D02*
G75*
G03X15280Y-22828I0J1142D01*
G74*
G01*
X15280Y-22828D02*
G75*
G03X14138Y-21686I-1142J0D01*
G74*
G01*
X15122Y-22828D02*
G75*
G03X15122Y-22828I-984J0D01*
G74*
G01*
X13154Y-30123D02*
X13154Y-31281D01*
X13158Y-31289D02*
G75*
G03X14725Y-31682I980J586D01*
G74*
G01*
X14718Y-29718D02*
G75*
G03X13154Y-30122I-579J-983D01*
G74*
G01*
X14138Y-31844D02*
G75*
G03X15280Y-30702I0J1142D01*
G74*
G01*
X15280Y-30702D02*
G75*
G03X14138Y-29560I-1142J0D01*
G74*
G01*
X15122Y-30702D02*
G75*
G03X15122Y-30702I-984J0D01*
G74*
G01*
X27339Y-13969D02*
X28497Y-13969D01*
X28504Y-13966D02*
G75*
G03X28898Y-12399I-586J980D01*
G74*
G01*
X26934Y-12406D02*
G75*
G03X27338Y-13969I983J-579D01*
G74*
G01*
X29060Y-12985D02*
G75*
G03X27918Y-11843I-1142J0D01*
G74*
G01*
X27918Y-11843D02*
G75*
G03X26776Y-12985I0J-1142D01*
G74*
G01*
X28902Y-12985D02*
G75*
G03X28902Y-12985I-984J0D01*
G74*
G01*
X31276Y-84678D02*
X32434Y-84678D01*
X32441Y-84674D02*
G75*
G03X32835Y-83107I-586J980D01*
G74*
G01*
X30871Y-83115D02*
G75*
G03X31275Y-84678I983J-579D01*
G74*
G01*
X32997Y-83694D02*
G75*
G03X31855Y-82552I-1141J0D01*
G74*
G01*
X31855Y-82552D02*
G75*
G03X30713Y-83694I0J-1142D01*
G74*
G01*
X32839Y-83694D02*
G75*
G03X32839Y-83694I-983J0D01*
G74*
G01*
X48587Y-65398D02*
X48587Y-66556D01*
X48591Y-66564D02*
G75*
G03X50158Y-66958I980J586D01*
G74*
G01*
X50151Y-64994D02*
G75*
G03X48587Y-65398I-579J-983D01*
G74*
G01*
X49571Y-67119D02*
G75*
G03X50713Y-65977I0J1142D01*
G74*
G01*
X50713Y-65977D02*
G75*
G03X49571Y-64835I-1142J0D01*
G74*
G01*
X50555Y-65977D02*
G75*
G03X50555Y-65977I-984J0D01*
G74*
G01*
X48587Y-77209D02*
X48587Y-78367D01*
X48591Y-78375D02*
G75*
G03X50158Y-78769I980J586D01*
G74*
G01*
X50151Y-76805D02*
G75*
G03X48587Y-77209I-579J-983D01*
G74*
G01*
X49571Y-78930D02*
G75*
G03X50713Y-77788I0J1142D01*
G74*
G01*
X50713Y-77788D02*
G75*
G03X49571Y-76646I-1142J0D01*
G74*
G01*
X50555Y-77788D02*
G75*
G03X50555Y-77788I-984J0D01*
G74*
G01*
X52524Y-73272D02*
X52524Y-74430D01*
X52528Y-74438D02*
G75*
G03X54095Y-74832I980J586D01*
G74*
G01*
X54088Y-72868D02*
G75*
G03X52524Y-73272I-579J-983D01*
G74*
G01*
X53508Y-74993D02*
G75*
G03X54650Y-73851I0J1142D01*
G74*
G01*
X54650Y-73851D02*
G75*
G03X53508Y-72709I-1142J0D01*
G74*
G01*
X54492Y-73851D02*
G75*
G03X54492Y-73851I-984J0D01*
G74*
G01*
X52524Y-69335D02*
X52524Y-70493D01*
X52528Y-70501D02*
G75*
G03X54095Y-70895I980J586D01*
G74*
G01*
X54088Y-68931D02*
G75*
G03X52524Y-69335I-579J-983D01*
G74*
G01*
X53508Y-71056D02*
G75*
G03X54650Y-69914I0J1142D01*
G74*
G01*
X54650Y-69914D02*
G75*
G03X53508Y-68772I-1142J0D01*
G74*
G01*
X54492Y-69914D02*
G75*
G03X54492Y-69914I-984J0D01*
G74*
G01*
X52524Y-65398D02*
X52524Y-66556D01*
X52528Y-66564D02*
G75*
G03X54095Y-66958I980J586D01*
G74*
G01*
X54088Y-64994D02*
G75*
G03X52524Y-65398I-579J-983D01*
G74*
G01*
X53508Y-67119D02*
G75*
G03X54650Y-65977I0J1142D01*
G74*
G01*
X54650Y-65977D02*
G75*
G03X53508Y-64835I-1142J0D01*
G74*
G01*
X54492Y-65977D02*
G75*
G03X54492Y-65977I-984J0D01*
G74*
G01*
X43087Y-84678D02*
X44245Y-84678D01*
X44252Y-84674D02*
G75*
G03X44646Y-83107I-586J980D01*
G74*
G01*
X42682Y-83115D02*
G75*
G03X43086Y-84678I983J-579D01*
G74*
G01*
X44808Y-83694D02*
G75*
G03X43666Y-82552I-1142J0D01*
G74*
G01*
X43666Y-82552D02*
G75*
G03X42524Y-83694I0J-1142D01*
G74*
G01*
X44650Y-83694D02*
G75*
G03X44650Y-83694I-984J0D01*
G74*
G01*
X39150Y-84678D02*
X40308Y-84678D01*
X40315Y-84674D02*
G75*
G03X40709Y-83107I-586J980D01*
G74*
G01*
X38745Y-83115D02*
G75*
G03X39149Y-84678I983J-579D01*
G74*
G01*
X40871Y-83694D02*
G75*
G03X39729Y-82552I-1142J0D01*
G74*
G01*
X39729Y-82552D02*
G75*
G03X38587Y-83694I0J-1142D01*
G74*
G01*
X40713Y-83694D02*
G75*
G03X40713Y-83694I-984J0D01*
G74*
G01*
X35213Y-84678D02*
X36371Y-84678D01*
X36378Y-84674D02*
G75*
G03X36772Y-83107I-586J980D01*
G74*
G01*
X34808Y-83115D02*
G75*
G03X35212Y-84678I983J-579D01*
G74*
G01*
X36934Y-83694D02*
G75*
G03X35792Y-82552I-1142J0D01*
G74*
G01*
X35792Y-82552D02*
G75*
G03X34650Y-83694I0J-1142D01*
G74*
G01*
X36776Y-83694D02*
G75*
G03X36776Y-83694I-984J0D01*
G74*
G01*
X35213Y-17906D02*
X36371Y-17906D01*
X36378Y-17903D02*
G75*
G03X36772Y-16336I-586J980D01*
G74*
G01*
X34808Y-16343D02*
G75*
G03X35212Y-17906I983J-579D01*
G74*
G01*
X36934Y-16922D02*
G75*
G03X35792Y-15780I-1142J0D01*
G74*
G01*
X35792Y-15780D02*
G75*
G03X34650Y-16922I0J-1142D01*
G74*
G01*
X36776Y-16922D02*
G75*
G03X36776Y-16922I-984J0D01*
G74*
G01*
X31276Y-88615D02*
X32434Y-88615D01*
X32441Y-88611D02*
G75*
G03X32835Y-87044I-586J980D01*
G74*
G01*
X30871Y-87052D02*
G75*
G03X31275Y-88615I983J-579D01*
G74*
G01*
X32997Y-87631D02*
G75*
G03X31855Y-86489I-1141J0D01*
G74*
G01*
X31855Y-86489D02*
G75*
G03X30713Y-87631I0J-1142D01*
G74*
G01*
X32839Y-87631D02*
G75*
G03X32839Y-87631I-983J0D01*
G74*
G01*
X35213Y-88615D02*
X36371Y-88615D01*
X36378Y-88611D02*
G75*
G03X36772Y-87044I-586J980D01*
G74*
G01*
X34808Y-87052D02*
G75*
G03X35212Y-88615I983J-579D01*
G74*
G01*
X36934Y-87631D02*
G75*
G03X35792Y-86489I-1142J0D01*
G74*
G01*
X35792Y-86489D02*
G75*
G03X34650Y-87631I0J-1142D01*
G74*
G01*
X36776Y-87631D02*
G75*
G03X36776Y-87631I-984J0D01*
G74*
G01*
X39150Y-88615D02*
X40308Y-88615D01*
X40315Y-88611D02*
G75*
G03X40709Y-87044I-586J980D01*
G74*
G01*
X38745Y-87052D02*
G75*
G03X39149Y-88615I983J-579D01*
G74*
G01*
X40871Y-87631D02*
G75*
G03X39729Y-86489I-1142J0D01*
G74*
G01*
X39729Y-86489D02*
G75*
G03X38587Y-87631I0J-1142D01*
G74*
G01*
X40713Y-87631D02*
G75*
G03X40713Y-87631I-984J0D01*
G74*
G01*
X43087Y-88615D02*
X44245Y-88615D01*
X44252Y-88611D02*
G75*
G03X44646Y-87044I-586J980D01*
G74*
G01*
X42682Y-87052D02*
G75*
G03X43086Y-88615I983J-579D01*
G74*
G01*
X44808Y-87631D02*
G75*
G03X43666Y-86489I-1142J0D01*
G74*
G01*
X43666Y-86489D02*
G75*
G03X42524Y-87631I0J-1142D01*
G74*
G01*
X44650Y-87631D02*
G75*
G03X44650Y-87631I-984J0D01*
G74*
G01*
X19465Y-86646D02*
X20623Y-86646D01*
X20630Y-86643D02*
G75*
G03X21024Y-85076I-586J980D01*
G74*
G01*
X19060Y-85083D02*
G75*
G03X19464Y-86646I983J-579D01*
G74*
G01*
X21186Y-85662D02*
G75*
G03X20044Y-84520I-1142J0D01*
G74*
G01*
X20044Y-84520D02*
G75*
G03X18902Y-85662I0J-1142D01*
G74*
G01*
X21028Y-85662D02*
G75*
G03X21028Y-85662I-984J0D01*
G74*
G01*
X47024Y-86646D02*
X48182Y-86646D01*
X48189Y-86643D02*
G75*
G03X48583Y-85076I-586J980D01*
G74*
G01*
X46619Y-85083D02*
G75*
G03X47023Y-86646I983J-579D01*
G74*
G01*
X48745Y-85662D02*
G75*
G03X47603Y-84520I-1142J0D01*
G74*
G01*
X47603Y-84520D02*
G75*
G03X46461Y-85662I0J-1142D01*
G74*
G01*
X48587Y-85662D02*
G75*
G03X48587Y-85662I-984J0D01*
G74*
G01*
X52524Y-61461D02*
X52524Y-62619D01*
X52528Y-62627D02*
G75*
G03X54095Y-63021I980J586D01*
G74*
G01*
X54088Y-61057D02*
G75*
G03X52524Y-61461I-579J-983D01*
G74*
G01*
X53508Y-63182D02*
G75*
G03X54650Y-62040I0J1142D01*
G74*
G01*
X54650Y-62040D02*
G75*
G03X53508Y-60898I-1142J0D01*
G74*
G01*
X54492Y-62040D02*
G75*
G03X54492Y-62040I-984J0D01*
G74*
G01*
X52524Y-22249D02*
X52524Y-23407D01*
X52528Y-23414D02*
G75*
G03X54095Y-23808I980J586D01*
G74*
G01*
X54088Y-21844D02*
G75*
G03X52524Y-22248I-579J-983D01*
G74*
G01*
X53508Y-23970D02*
G75*
G03X54650Y-22828I0J1142D01*
G74*
G01*
X54650Y-22828D02*
G75*
G03X53508Y-21686I-1142J0D01*
G74*
G01*
X54492Y-22828D02*
G75*
G03X54492Y-22828I-984J0D01*
G74*
G01*
X48587Y-61461D02*
X48587Y-62619D01*
X48591Y-62627D02*
G75*
G03X50158Y-63021I980J586D01*
G74*
G01*
X50151Y-61057D02*
G75*
G03X48587Y-61461I-579J-983D01*
G74*
G01*
X49571Y-63182D02*
G75*
G03X50713Y-62040I0J1142D01*
G74*
G01*
X50713Y-62040D02*
G75*
G03X49571Y-60898I-1142J0D01*
G74*
G01*
X50555Y-62040D02*
G75*
G03X50555Y-62040I-984J0D01*
G74*
G01*
X31276Y-17906D02*
X32434Y-17906D01*
X32441Y-17903D02*
G75*
G03X32835Y-16336I-586J980D01*
G74*
G01*
X30871Y-16343D02*
G75*
G03X31275Y-17906I983J-579D01*
G74*
G01*
X32997Y-16922D02*
G75*
G03X31855Y-15780I-1141J0D01*
G74*
G01*
X31855Y-15780D02*
G75*
G03X30713Y-16922I0J-1142D01*
G74*
G01*
X32839Y-16922D02*
G75*
G03X32839Y-16922I-983J0D01*
G74*
G01*
X27339Y-17906D02*
X28497Y-17906D01*
X28504Y-17903D02*
G75*
G03X28898Y-16336I-586J980D01*
G74*
G01*
X26934Y-16343D02*
G75*
G03X27338Y-17906I983J-579D01*
G74*
G01*
X29060Y-16922D02*
G75*
G03X27918Y-15780I-1142J0D01*
G74*
G01*
X27918Y-15780D02*
G75*
G03X26776Y-16922I0J-1142D01*
G74*
G01*
X28902Y-16922D02*
G75*
G03X28902Y-16922I-984J0D01*
G74*
G01*
X23402Y-17906D02*
X24560Y-17906D01*
X24567Y-17903D02*
G75*
G03X24961Y-16336I-586J980D01*
G74*
G01*
X22997Y-16343D02*
G75*
G03X23401Y-17906I983J-579D01*
G74*
G01*
X25123Y-16922D02*
G75*
G03X23981Y-15780I-1142J0D01*
G74*
G01*
X23981Y-15780D02*
G75*
G03X22839Y-16922I0J-1142D01*
G74*
G01*
X24965Y-16922D02*
G75*
G03X24965Y-16922I-984J0D01*
G74*
G01*
X48587Y-41973D02*
X48587Y-43131D01*
X48591Y-43139D02*
G75*
G03X50158Y-43532I980J586D01*
G74*
G01*
X50151Y-41569D02*
G75*
G03X48587Y-41973I-579J-983D01*
G74*
G01*
X49571Y-43694D02*
G75*
G03X50713Y-42552I0J1142D01*
G74*
G01*
X50713Y-42552D02*
G75*
G03X49571Y-41410I-1142J0D01*
G74*
G01*
X50555Y-42552D02*
G75*
G03X50555Y-42552I-984J0D01*
G74*
G01*
X48587Y-30123D02*
X48587Y-31281D01*
X48591Y-31289D02*
G75*
G03X50158Y-31682I980J586D01*
G74*
G01*
X50151Y-29718D02*
G75*
G03X48587Y-30122I-579J-983D01*
G74*
G01*
X49571Y-31844D02*
G75*
G03X50713Y-30702I0J1142D01*
G74*
G01*
X50713Y-30702D02*
G75*
G03X49571Y-29560I-1142J0D01*
G74*
G01*
X50555Y-30702D02*
G75*
G03X50555Y-30702I-984J0D01*
G74*
G01*
X48587Y-26186D02*
X48587Y-27344D01*
X48591Y-27351D02*
G75*
G03X50158Y-27745I980J586D01*
G74*
G01*
X50151Y-25781D02*
G75*
G03X48587Y-26185I-579J-983D01*
G74*
G01*
X49571Y-27907D02*
G75*
G03X50713Y-26765I0J1142D01*
G74*
G01*
X50713Y-26765D02*
G75*
G03X49571Y-25623I-1142J0D01*
G74*
G01*
X50555Y-26765D02*
G75*
G03X50555Y-26765I-984J0D01*
G74*
G01*
X48587Y-22249D02*
X48587Y-23407D01*
X48591Y-23414D02*
G75*
G03X50158Y-23808I980J586D01*
G74*
G01*
X50151Y-21844D02*
G75*
G03X48587Y-22248I-579J-983D01*
G74*
G01*
X49571Y-23970D02*
G75*
G03X50713Y-22828I0J1142D01*
G74*
G01*
X50713Y-22828D02*
G75*
G03X49571Y-21686I-1142J0D01*
G74*
G01*
X50555Y-22828D02*
G75*
G03X50555Y-22828I-984J0D01*
G74*
G01*
X50556Y-18312D02*
X50556Y-19470D01*
X50559Y-19477D02*
G75*
G03X52126Y-19871I980J586D01*
G74*
G01*
X52119Y-17907D02*
G75*
G03X50556Y-18311I-579J-983D01*
G74*
G01*
X51540Y-20033D02*
G75*
G03X52682Y-18891I0J1142D01*
G74*
G01*
X52682Y-18891D02*
G75*
G03X51540Y-17749I-1142J0D01*
G74*
G01*
X52524Y-18891D02*
G75*
G03X52524Y-18891I-984J0D01*
G74*
G01*
X52524Y-37997D02*
X52524Y-39155D01*
X52528Y-39163D02*
G75*
G03X54095Y-39556I980J586D01*
G74*
G01*
X54088Y-37592D02*
G75*
G03X52524Y-37996I-579J-983D01*
G74*
G01*
X53508Y-39718D02*
G75*
G03X54650Y-38576I0J1142D01*
G74*
G01*
X54650Y-38576D02*
G75*
G03X53508Y-37434I-1142J0D01*
G74*
G01*
X54492Y-38576D02*
G75*
G03X54492Y-38576I-984J0D01*
G74*
G01*
X52524Y-34060D02*
X52524Y-35218D01*
X52528Y-35226D02*
G75*
G03X54095Y-35619I980J586D01*
G74*
G01*
X54088Y-33655D02*
G75*
G03X52524Y-34059I-579J-983D01*
G74*
G01*
X53508Y-35781D02*
G75*
G03X54650Y-34639I0J1142D01*
G74*
G01*
X54650Y-34639D02*
G75*
G03X53508Y-33497I-1142J0D01*
G74*
G01*
X54492Y-34639D02*
G75*
G03X54492Y-34639I-984J0D01*
G74*
G01*
X52524Y-30123D02*
X52524Y-31281D01*
X52528Y-31289D02*
G75*
G03X54095Y-31682I980J586D01*
G74*
G01*
X54088Y-29718D02*
G75*
G03X52524Y-30122I-579J-983D01*
G74*
G01*
X53508Y-31844D02*
G75*
G03X54650Y-30702I0J1142D01*
G74*
G01*
X54650Y-30702D02*
G75*
G03X53508Y-29560I-1142J0D01*
G74*
G01*
X54492Y-30702D02*
G75*
G03X54492Y-30702I-984J0D01*
G74*
G01*
X52524Y-26186D02*
X52524Y-27344D01*
X52528Y-27351D02*
G75*
G03X54095Y-27745I980J586D01*
G74*
G01*
X54088Y-25781D02*
G75*
G03X52524Y-26185I-579J-983D01*
G74*
G01*
X53508Y-27907D02*
G75*
G03X54650Y-26765I0J1142D01*
G74*
G01*
X54650Y-26765D02*
G75*
G03X53508Y-25623I-1142J0D01*
G74*
G01*
X54492Y-26765D02*
G75*
G03X54492Y-26765I-984J0D01*
G74*
G01*
X52524Y-57524D02*
X52524Y-58682D01*
X52528Y-58690D02*
G75*
G03X54095Y-59084I980J586D01*
G74*
G01*
X54088Y-57120D02*
G75*
G03X52524Y-57524I-579J-983D01*
G74*
G01*
X53508Y-59245D02*
G75*
G03X54650Y-58103I0J1142D01*
G74*
G01*
X54650Y-58103D02*
G75*
G03X53508Y-56961I-1142J0D01*
G74*
G01*
X54492Y-58103D02*
G75*
G03X54492Y-58103I-984J0D01*
G74*
G01*
X50556Y-53587D02*
X50556Y-54745D01*
X50559Y-54753D02*
G75*
G03X52126Y-55147I980J586D01*
G74*
G01*
X52119Y-53183D02*
G75*
G03X50556Y-53587I-579J-983D01*
G74*
G01*
X51540Y-55308D02*
G75*
G03X52682Y-54166I0J1142D01*
G74*
G01*
X52682Y-54166D02*
G75*
G03X51540Y-53024I-1142J0D01*
G74*
G01*
X52524Y-54166D02*
G75*
G03X52524Y-54166I-984J0D01*
G74*
G01*
X48587Y-57524D02*
X48587Y-58682D01*
X48591Y-58690D02*
G75*
G03X50158Y-59084I980J586D01*
G74*
G01*
X50151Y-57120D02*
G75*
G03X48587Y-57524I-579J-983D01*
G74*
G01*
X49571Y-59245D02*
G75*
G03X50713Y-58103I0J1142D01*
G74*
G01*
X50713Y-58103D02*
G75*
G03X49571Y-56961I-1142J0D01*
G74*
G01*
X50555Y-58103D02*
G75*
G03X50555Y-58103I-984J0D01*
G74*
G01*
X59897Y-87969D02*
G75*
G03X60969Y-85102I-897J1969D01*
G74*
G01*
X58094Y-87972D02*
X59906Y-87972D01*
X57030Y-85094D02*
G75*
G03X58094Y-87969I1969J-905D01*
G74*
G01*
X61165Y-86000D02*
G75*
G03X59000Y-83835I-2165J0D01*
G74*
G01*
X59000Y-83835D02*
G75*
G03X56835Y-86000I0J-2165D01*
G74*
G01*
X60969Y-86000D02*
G75*
G03X60969Y-86000I-1969J0D01*
G74*
G01*
G54D13*
X48350Y-87600D02*
X53350Y-87600D01*
X53350Y-87600D02*
X53350Y-88600D01*
X53350Y-88600D02*
X48350Y-88600D01*
X53350Y-88100D02*
X53850Y-88100D01*
X47850Y-88100D02*
X48350Y-88100D01*
X48350Y-87900D02*
X48650Y-87600D01*
X48350Y-87600D02*
X48350Y-88600D01*
G54D12*
X13154Y-73272D02*
X13154Y-74430D01*
X13158Y-74438D02*
G75*
G03X14725Y-74832I980J586D01*
G74*
G01*
X14718Y-72868D02*
G75*
G03X13154Y-73272I-579J-983D01*
G74*
G01*
X14138Y-74993D02*
G75*
G03X15280Y-73851I0J1142D01*
G74*
G01*
X15280Y-73851D02*
G75*
G03X14138Y-72709I-1142J0D01*
G74*
G01*
X15122Y-73851D02*
G75*
G03X15122Y-73851I-984J0D01*
G74*
G01*
X17091Y-73272D02*
X17091Y-74430D01*
X17095Y-74438D02*
G75*
G03X18662Y-74832I980J586D01*
G74*
G01*
X18655Y-72868D02*
G75*
G03X17091Y-73272I-579J-983D01*
G74*
G01*
X18075Y-74993D02*
G75*
G03X19217Y-73851I0J1142D01*
G74*
G01*
X19217Y-73851D02*
G75*
G03X18075Y-72709I-1142J0D01*
G74*
G01*
X19059Y-73851D02*
G75*
G03X19059Y-73851I-984J0D01*
G74*
G01*
X17091Y-41973D02*
X17091Y-43131D01*
X17095Y-43139D02*
G75*
G03X18662Y-43532I980J586D01*
G74*
G01*
X18655Y-41569D02*
G75*
G03X17091Y-41973I-579J-983D01*
G74*
G01*
X18075Y-43694D02*
G75*
G03X19217Y-42552I0J1142D01*
G74*
G01*
X19217Y-42552D02*
G75*
G03X18075Y-41410I-1142J0D01*
G74*
G01*
X19059Y-42552D02*
G75*
G03X19059Y-42552I-984J0D01*
G74*
G01*
X13154Y-33981D02*
X13154Y-35139D01*
X13158Y-35147D02*
G75*
G03X14725Y-35540I980J586D01*
G74*
G01*
X14718Y-33576D02*
G75*
G03X13154Y-33981I-579J-983D01*
G74*
G01*
X14138Y-35702D02*
G75*
G03X15280Y-34560I0J1142D01*
G74*
G01*
X15280Y-34560D02*
G75*
G03X14138Y-33418I-1142J0D01*
G74*
G01*
X15122Y-34560D02*
G75*
G03X15122Y-34560I-984J0D01*
G74*
G01*
X27339Y-53182D02*
X28497Y-53182D01*
X28504Y-53178D02*
G75*
G03X28898Y-51611I-586J980D01*
G74*
G01*
X26934Y-51618D02*
G75*
G03X27338Y-53182I983J-579D01*
G74*
G01*
X29060Y-52198D02*
G75*
G03X27918Y-51056I-1142J0D01*
G74*
G01*
X27918Y-51056D02*
G75*
G03X26776Y-52198I0J-1142D01*
G74*
G01*
X28902Y-52198D02*
G75*
G03X28902Y-52198I-984J0D01*
G74*
G01*
X27339Y-49245D02*
X28497Y-49245D01*
X28504Y-49241D02*
G75*
G03X28898Y-47674I-586J980D01*
G74*
G01*
X26934Y-47681D02*
G75*
G03X27338Y-49245I983J-579D01*
G74*
G01*
X29060Y-48261D02*
G75*
G03X27918Y-47119I-1142J0D01*
G74*
G01*
X27918Y-47119D02*
G75*
G03X26776Y-48261I0J-1142D01*
G74*
G01*
X28902Y-48261D02*
G75*
G03X28902Y-48261I-984J0D01*
G74*
G01*
X39150Y-17906D02*
X40308Y-17906D01*
X40315Y-17903D02*
G75*
G03X40709Y-16336I-586J980D01*
G74*
G01*
X38745Y-16343D02*
G75*
G03X39149Y-17906I983J-579D01*
G74*
G01*
X40871Y-16922D02*
G75*
G03X39729Y-15780I-1142J0D01*
G74*
G01*
X39729Y-15780D02*
G75*
G03X38587Y-16922I0J-1142D01*
G74*
G01*
X40713Y-16922D02*
G75*
G03X40713Y-16922I-984J0D01*
G74*
G01*
X39150Y-13969D02*
X40308Y-13969D01*
X40315Y-13966D02*
G75*
G03X40709Y-12399I-586J980D01*
G74*
G01*
X38745Y-12406D02*
G75*
G03X39149Y-13969I983J-579D01*
G74*
G01*
X40871Y-12985D02*
G75*
G03X39729Y-11843I-1142J0D01*
G74*
G01*
X39729Y-11843D02*
G75*
G03X38587Y-12985I0J-1142D01*
G74*
G01*
X40713Y-12985D02*
G75*
G03X40713Y-12985I-984J0D01*
G74*
G01*
X48587Y-33942D02*
X48587Y-35100D01*
X48591Y-35107D02*
G75*
G03X50158Y-35501I980J586D01*
G74*
G01*
X50151Y-33537D02*
G75*
G03X48587Y-33941I-579J-983D01*
G74*
G01*
X49571Y-35663D02*
G75*
G03X50713Y-34521I0J1142D01*
G74*
G01*
X50713Y-34521D02*
G75*
G03X49571Y-33379I-1142J0D01*
G74*
G01*
X50555Y-34521D02*
G75*
G03X50555Y-34521I-984J0D01*
G74*
G01*
X52524Y-42013D02*
X52524Y-43171D01*
X52528Y-43178D02*
G75*
G03X54095Y-43572I980J586D01*
G74*
G01*
X54088Y-41608D02*
G75*
G03X52524Y-42012I-579J-983D01*
G74*
G01*
X53508Y-43734D02*
G75*
G03X54650Y-42592I0J1142D01*
G74*
G01*
X54650Y-42592D02*
G75*
G03X53508Y-41450I-1142J0D01*
G74*
G01*
X54492Y-42592D02*
G75*
G03X54492Y-42592I-984J0D01*
G74*
G01*
X52524Y-77209D02*
X52524Y-78367D01*
X52528Y-78375D02*
G75*
G03X54095Y-78769I980J586D01*
G74*
G01*
X54088Y-76805D02*
G75*
G03X52524Y-77209I-579J-983D01*
G74*
G01*
X53508Y-78930D02*
G75*
G03X54650Y-77788I0J1142D01*
G74*
G01*
X54650Y-77788D02*
G75*
G03X53508Y-76646I-1142J0D01*
G74*
G01*
X54492Y-77788D02*
G75*
G03X54492Y-77788I-984J0D01*
G74*
G01*
X48587Y-69335D02*
X48587Y-70493D01*
X48591Y-70501D02*
G75*
G03X50158Y-70895I980J586D01*
G74*
G01*
X50151Y-68931D02*
G75*
G03X48587Y-69335I-579J-983D01*
G74*
G01*
X49571Y-71056D02*
G75*
G03X50713Y-69914I0J1142D01*
G74*
G01*
X50713Y-69914D02*
G75*
G03X49571Y-68772I-1142J0D01*
G74*
G01*
X50555Y-69914D02*
G75*
G03X50555Y-69914I-984J0D01*
G74*
G01*
X27339Y-88615D02*
X28497Y-88615D01*
X28504Y-88611D02*
G75*
G03X28898Y-87044I-586J980D01*
G74*
G01*
X26934Y-87052D02*
G75*
G03X27338Y-88615I983J-579D01*
G74*
G01*
X29060Y-87631D02*
G75*
G03X27918Y-86489I-1142J0D01*
G74*
G01*
X27918Y-86489D02*
G75*
G03X26776Y-87631I0J-1142D01*
G74*
G01*
X28902Y-87631D02*
G75*
G03X28902Y-87631I-984J0D01*
G74*
G01*
X27339Y-84678D02*
X28497Y-84678D01*
X28504Y-84674D02*
G75*
G03X28898Y-83107I-586J980D01*
G74*
G01*
X26934Y-83115D02*
G75*
G03X27338Y-84678I983J-579D01*
G74*
G01*
X29060Y-83694D02*
G75*
G03X27918Y-82552I-1142J0D01*
G74*
G01*
X27918Y-82552D02*
G75*
G03X26776Y-83694I0J-1142D01*
G74*
G01*
X28902Y-83694D02*
G75*
G03X28902Y-83694I-984J0D01*
G74*
G01*
X13154Y-77209D02*
X13154Y-78367D01*
X13158Y-78375D02*
G75*
G03X14725Y-78769I980J586D01*
G74*
G01*
X14718Y-76805D02*
G75*
G03X13154Y-77209I-579J-983D01*
G74*
G01*
X14138Y-78930D02*
G75*
G03X15280Y-77788I0J1142D01*
G74*
G01*
X15280Y-77788D02*
G75*
G03X14138Y-76646I-1142J0D01*
G74*
G01*
X15122Y-77788D02*
G75*
G03X15122Y-77788I-984J0D01*
G74*
G01*
X17091Y-77209D02*
X17091Y-78367D01*
X17095Y-78375D02*
G75*
G03X18662Y-78769I980J586D01*
G74*
G01*
X18655Y-76805D02*
G75*
G03X17091Y-77209I-579J-983D01*
G74*
G01*
X18075Y-78930D02*
G75*
G03X19217Y-77788I0J1142D01*
G74*
G01*
X19217Y-77788D02*
G75*
G03X18075Y-76646I-1142J0D01*
G74*
G01*
X19059Y-77788D02*
G75*
G03X19059Y-77788I-984J0D01*
G74*
G01*
X15123Y-45910D02*
X15123Y-47068D01*
X15126Y-47076D02*
G75*
G03X16693Y-47469I980J586D01*
G74*
G01*
X16686Y-45506D02*
G75*
G03X15123Y-45910I-579J-983D01*
G74*
G01*
X16107Y-47631D02*
G75*
G03X17249Y-46489I0J1142D01*
G74*
G01*
X17249Y-46489D02*
G75*
G03X16107Y-45347I-1142J0D01*
G74*
G01*
X17091Y-46489D02*
G75*
G03X17091Y-46489I-984J0D01*
G74*
G01*
X13154Y-38036D02*
X13154Y-39194D01*
X13158Y-39202D02*
G75*
G03X14725Y-39595I980J586D01*
G74*
G01*
X14718Y-37632D02*
G75*
G03X13154Y-38036I-579J-983D01*
G74*
G01*
X14138Y-39757D02*
G75*
G03X15280Y-38615I0J1142D01*
G74*
G01*
X15280Y-38615D02*
G75*
G03X14138Y-37473I-1142J0D01*
G74*
G01*
X15122Y-38615D02*
G75*
G03X15122Y-38615I-984J0D01*
G74*
G01*
X23402Y-49245D02*
X24560Y-49245D01*
X24567Y-49241D02*
G75*
G03X24961Y-47674I-586J980D01*
G74*
G01*
X22997Y-47681D02*
G75*
G03X23401Y-49245I983J-579D01*
G74*
G01*
X25123Y-48261D02*
G75*
G03X23981Y-47119I-1142J0D01*
G74*
G01*
X23981Y-47119D02*
G75*
G03X22839Y-48261I0J-1142D01*
G74*
G01*
X24965Y-48261D02*
G75*
G03X24965Y-48261I-984J0D01*
G74*
G01*
X23402Y-53182D02*
X24560Y-53182D01*
X24567Y-53178D02*
G75*
G03X24961Y-51611I-586J980D01*
G74*
G01*
X22997Y-51618D02*
G75*
G03X23401Y-53182I983J-579D01*
G74*
G01*
X25123Y-52198D02*
G75*
G03X23981Y-51056I-1142J0D01*
G74*
G01*
X23981Y-51056D02*
G75*
G03X22839Y-52198I0J-1142D01*
G74*
G01*
X24965Y-52198D02*
G75*
G03X24965Y-52198I-984J0D01*
G74*
G01*
X43087Y-17906D02*
X44245Y-17906D01*
X44252Y-17903D02*
G75*
G03X44646Y-16336I-586J980D01*
G74*
G01*
X42682Y-16343D02*
G75*
G03X43086Y-17906I983J-579D01*
G74*
G01*
X44808Y-16922D02*
G75*
G03X43666Y-15780I-1142J0D01*
G74*
G01*
X43666Y-15780D02*
G75*
G03X42524Y-16922I0J-1142D01*
G74*
G01*
X44650Y-16922D02*
G75*
G03X44650Y-16922I-984J0D01*
G74*
G01*
X43087Y-13969D02*
X44245Y-13969D01*
X44252Y-13966D02*
G75*
G03X44646Y-12399I-586J980D01*
G74*
G01*
X42682Y-12406D02*
G75*
G03X43086Y-13969I983J-579D01*
G74*
G01*
X44808Y-12985D02*
G75*
G03X43666Y-11843I-1142J0D01*
G74*
G01*
X43666Y-11843D02*
G75*
G03X42524Y-12985I0J-1142D01*
G74*
G01*
X44650Y-12985D02*
G75*
G03X44650Y-12985I-984J0D01*
G74*
G01*
X50556Y-45713D02*
X50556Y-46871D01*
X50559Y-46879D02*
G75*
G03X52126Y-47273I980J586D01*
G74*
G01*
X52119Y-45309D02*
G75*
G03X50556Y-45713I-579J-983D01*
G74*
G01*
X51540Y-47434D02*
G75*
G03X52682Y-46292I0J1142D01*
G74*
G01*
X52682Y-46292D02*
G75*
G03X51540Y-45150I-1142J0D01*
G74*
G01*
X52524Y-46292D02*
G75*
G03X52524Y-46292I-984J0D01*
G74*
G01*
X48587Y-37958D02*
X48587Y-39116D01*
X48591Y-39123D02*
G75*
G03X50158Y-39517I980J586D01*
G74*
G01*
X50151Y-37553D02*
G75*
G03X48587Y-37957I-579J-983D01*
G74*
G01*
X49571Y-39679D02*
G75*
G03X50713Y-38537I0J1142D01*
G74*
G01*
X50713Y-38537D02*
G75*
G03X49571Y-37395I-1142J0D01*
G74*
G01*
X50555Y-38537D02*
G75*
G03X50555Y-38537I-984J0D01*
G74*
G01*
X50556Y-81146D02*
X50556Y-82304D01*
X50559Y-82312D02*
G75*
G03X52126Y-82706I980J586D01*
G74*
G01*
X52119Y-80742D02*
G75*
G03X50556Y-81146I-579J-983D01*
G74*
G01*
X51540Y-82867D02*
G75*
G03X52682Y-81725I0J1142D01*
G74*
G01*
X52682Y-81725D02*
G75*
G03X51540Y-80583I-1142J0D01*
G74*
G01*
X52524Y-81725D02*
G75*
G03X52524Y-81725I-984J0D01*
G74*
G01*
X48587Y-73272D02*
X48587Y-74430D01*
X48591Y-74438D02*
G75*
G03X50158Y-74832I980J586D01*
G74*
G01*
X50151Y-72868D02*
G75*
G03X48587Y-73272I-579J-983D01*
G74*
G01*
X49571Y-74993D02*
G75*
G03X50713Y-73851I0J1142D01*
G74*
G01*
X50713Y-73851D02*
G75*
G03X49571Y-72709I-1142J0D01*
G74*
G01*
X50555Y-73851D02*
G75*
G03X50555Y-73851I-984J0D01*
G74*
G01*
X23402Y-88615D02*
X24560Y-88615D01*
X24567Y-88611D02*
G75*
G03X24961Y-87044I-586J980D01*
G74*
G01*
X22997Y-87052D02*
G75*
G03X23401Y-88615I983J-579D01*
G74*
G01*
X25123Y-87631D02*
G75*
G03X23981Y-86489I-1142J0D01*
G74*
G01*
X23981Y-86489D02*
G75*
G03X22839Y-87631I0J-1142D01*
G74*
G01*
X24965Y-87631D02*
G75*
G03X24965Y-87631I-984J0D01*
G74*
G01*
X23402Y-84678D02*
X24560Y-84678D01*
X24567Y-84674D02*
G75*
G03X24961Y-83107I-586J980D01*
G74*
G01*
X22997Y-83115D02*
G75*
G03X23401Y-84678I983J-579D01*
G74*
G01*
X25123Y-83694D02*
G75*
G03X23981Y-82552I-1142J0D01*
G74*
G01*
X23981Y-82552D02*
G75*
G03X22839Y-83694I0J-1142D01*
G74*
G01*
X24965Y-83694D02*
G75*
G03X24965Y-83694I-984J0D01*
G74*
G01*
G54D14*
X48200Y-96600D02*
X48200Y-96900D01*
X48200Y-96900D02*
X52200Y-96900D01*
X52200Y-96900D02*
X52200Y-96600D01*
X48200Y-93300D02*
X52200Y-93300D01*
X52200Y-93300D02*
X52200Y-93700D01*
X52200Y-93700D02*
X48200Y-93700D01*
X48200Y-93700D02*
X48200Y-93300D01*
X48200Y-93600D02*
X48200Y-96600D01*
X52200Y-96600D02*
X52200Y-93600D01*
G54D13*
X36604Y-91179D02*
X44604Y-91179D01*
X44604Y-91179D02*
X44604Y-92179D01*
X44604Y-92179D02*
X36604Y-92179D01*
X36604Y-92179D02*
X36604Y-91179D01*
X37604Y-92179D02*
X37604Y-91179D01*
X27561Y-92179D02*
X19561Y-92179D01*
X19561Y-92179D02*
X19561Y-91179D01*
X19561Y-91179D02*
X27561Y-91179D01*
X27561Y-91179D02*
X27561Y-92179D01*
X26561Y-91179D02*
X26561Y-92179D01*
X45700Y-93750D02*
X45700Y-88750D01*
X45700Y-88750D02*
X46700Y-88750D01*
X46700Y-88750D02*
X46700Y-93750D01*
X46200Y-88750D02*
X46200Y-88250D01*
X46200Y-94250D02*
X46200Y-93750D01*
X46000Y-93750D02*
X45700Y-93450D01*
X45700Y-93750D02*
X46700Y-93750D01*
G54D15*
X14900Y-13600D02*
G75*
G03X14900Y-13600I-900J0D01*
G74*
G01*
X58750Y-13600D02*
G75*
G03X58750Y-13600I-900J0D01*
G74*
G01*
X58750Y-95100D02*
G75*
G03X58750Y-95100I-900J0D01*
G74*
G01*
X14900Y-95100D02*
G75*
G03X14900Y-95100I-900J0D01*
G74*
G01*
G54D16*
X50766Y-88322D02*
X50600Y-88060D01*
X50480Y-88322D02*
X50480Y-87772D01*
X50671Y-87772D01*
X50719Y-87798D01*
X50742Y-87825D01*
X50766Y-87877D01*
X50766Y-87955D01*
X50742Y-88008D01*
X50719Y-88034D01*
X50671Y-88060D01*
X50480Y-88060D01*
X51052Y-88008D02*
X51004Y-87982D01*
X50980Y-87955D01*
X50957Y-87903D01*
X50957Y-87877D01*
X50980Y-87825D01*
X51004Y-87798D01*
X51052Y-87772D01*
X51147Y-87772D01*
X51195Y-87798D01*
X51219Y-87825D01*
X51242Y-87877D01*
X51242Y-87903D01*
X51219Y-87955D01*
X51195Y-87982D01*
X51147Y-88008D01*
X51052Y-88008D01*
X51004Y-88034D01*
X50980Y-88060D01*
X50957Y-88113D01*
X50957Y-88217D01*
X50980Y-88270D01*
X51004Y-88296D01*
X51052Y-88322D01*
X51147Y-88322D01*
X51195Y-88296D01*
X51219Y-88270D01*
X51242Y-88217D01*
X51242Y-88113D01*
X51219Y-88060D01*
X51195Y-88034D01*
X51147Y-88008D01*
G54D17*
X37788Y-90955D02*
X37788Y-90274D01*
X37951Y-90274D01*
X37992Y-90306D01*
X38012Y-90339D01*
X38032Y-90404D01*
X38032Y-90501D01*
X38012Y-90566D01*
X37992Y-90598D01*
X37951Y-90631D01*
X37788Y-90631D01*
X38440Y-90955D02*
X38196Y-90955D01*
X38318Y-90955D02*
X38318Y-90274D01*
X38277Y-90371D01*
X38236Y-90436D01*
X38196Y-90469D01*
G54D13*
G54D14*
X41756Y-90865D02*
X41737Y-90894D01*
X41680Y-90922D01*
X41642Y-90922D01*
X41585Y-90894D01*
X41547Y-90837D01*
X41528Y-90779D01*
X41509Y-90665D01*
X41509Y-90579D01*
X41528Y-90465D01*
X41547Y-90408D01*
X41585Y-90351D01*
X41642Y-90322D01*
X41680Y-90322D01*
X41737Y-90351D01*
X41756Y-90379D01*
X42004Y-90322D02*
X42080Y-90322D01*
X42118Y-90351D01*
X42156Y-90408D01*
X42175Y-90522D01*
X42175Y-90722D01*
X42156Y-90837D01*
X42118Y-90894D01*
X42080Y-90922D01*
X42004Y-90922D01*
X41966Y-90894D01*
X41928Y-90837D01*
X41909Y-90722D01*
X41909Y-90522D01*
X41928Y-90408D01*
X41966Y-90351D01*
X42004Y-90322D01*
X42347Y-90922D02*
X42347Y-90322D01*
X42575Y-90922D01*
X42575Y-90322D01*
X42766Y-90922D02*
X42766Y-90322D01*
X42994Y-90922D01*
X42994Y-90322D01*
X43090Y-90979D02*
X43394Y-90979D01*
X43547Y-90579D02*
X43509Y-90551D01*
X43490Y-90522D01*
X43470Y-90465D01*
X43470Y-90437D01*
X43490Y-90379D01*
X43509Y-90351D01*
X43547Y-90322D01*
X43623Y-90322D01*
X43661Y-90351D01*
X43680Y-90379D01*
X43699Y-90437D01*
X43699Y-90465D01*
X43680Y-90522D01*
X43661Y-90551D01*
X43623Y-90579D01*
X43547Y-90579D01*
X43509Y-90608D01*
X43490Y-90637D01*
X43470Y-90694D01*
X43470Y-90808D01*
X43490Y-90865D01*
X43509Y-90894D01*
X43547Y-90922D01*
X43623Y-90922D01*
X43661Y-90894D01*
X43680Y-90865D01*
X43699Y-90808D01*
X43699Y-90694D01*
X43680Y-90637D01*
X43661Y-90608D01*
X43623Y-90579D01*
G54D13*
G54D17*
X25745Y-92955D02*
X25745Y-92274D01*
X25908Y-92274D01*
X25948Y-92306D01*
X25969Y-92339D01*
X25989Y-92404D01*
X25989Y-92501D01*
X25969Y-92566D01*
X25948Y-92598D01*
X25908Y-92631D01*
X25745Y-92631D01*
X26152Y-92339D02*
X26173Y-92306D01*
X26213Y-92274D01*
X26315Y-92274D01*
X26356Y-92306D01*
X26376Y-92339D01*
X26397Y-92404D01*
X26397Y-92469D01*
X26376Y-92566D01*
X26132Y-92955D01*
X26397Y-92955D01*
G54D13*
G54D14*
X20713Y-92865D02*
X20694Y-92894D01*
X20637Y-92922D01*
X20599Y-92922D01*
X20541Y-92894D01*
X20503Y-92837D01*
X20484Y-92779D01*
X20465Y-92665D01*
X20465Y-92579D01*
X20484Y-92465D01*
X20503Y-92408D01*
X20541Y-92351D01*
X20599Y-92322D01*
X20637Y-92322D01*
X20694Y-92351D01*
X20713Y-92379D01*
X20961Y-92322D02*
X21037Y-92322D01*
X21075Y-92351D01*
X21113Y-92408D01*
X21132Y-92522D01*
X21132Y-92722D01*
X21113Y-92837D01*
X21075Y-92894D01*
X21037Y-92922D01*
X20961Y-92922D01*
X20922Y-92894D01*
X20884Y-92837D01*
X20865Y-92722D01*
X20865Y-92522D01*
X20884Y-92408D01*
X20922Y-92351D01*
X20961Y-92322D01*
X21303Y-92922D02*
X21303Y-92322D01*
X21532Y-92922D01*
X21532Y-92322D01*
X21722Y-92922D02*
X21722Y-92322D01*
X21951Y-92922D01*
X21951Y-92322D01*
X22046Y-92979D02*
X22351Y-92979D01*
X22503Y-92579D02*
X22465Y-92551D01*
X22446Y-92522D01*
X22427Y-92465D01*
X22427Y-92437D01*
X22446Y-92379D01*
X22465Y-92351D01*
X22503Y-92322D01*
X22580Y-92322D01*
X22618Y-92351D01*
X22637Y-92379D01*
X22656Y-92437D01*
X22656Y-92465D01*
X22637Y-92522D01*
X22618Y-92551D01*
X22580Y-92579D01*
X22503Y-92579D01*
X22465Y-92608D01*
X22446Y-92637D01*
X22427Y-92694D01*
X22427Y-92808D01*
X22446Y-92865D01*
X22465Y-92894D01*
X22503Y-92922D01*
X22580Y-92922D01*
X22618Y-92894D01*
X22637Y-92865D01*
X22656Y-92808D01*
X22656Y-92694D01*
X22637Y-92637D01*
X22618Y-92608D01*
X22580Y-92579D01*
G54D13*
G54D16*
X45872Y-91952D02*
X46265Y-91952D01*
X46344Y-91976D01*
X46396Y-92023D01*
X46422Y-92095D01*
X46422Y-92142D01*
X46422Y-91714D02*
X45872Y-91714D01*
X46265Y-91547D01*
X45872Y-91380D01*
X46422Y-91380D01*
X46422Y-91142D02*
X45872Y-91142D01*
X45872Y-90952D01*
X45898Y-90904D01*
X45925Y-90880D01*
X45977Y-90857D01*
X46055Y-90857D01*
X46108Y-90880D01*
X46134Y-90904D01*
X46160Y-90952D01*
X46160Y-91142D01*
X45925Y-90666D02*
X45898Y-90642D01*
X45872Y-90595D01*
X45872Y-90476D01*
X45898Y-90428D01*
X45925Y-90404D01*
X45977Y-90380D01*
X46029Y-90380D01*
X46108Y-90404D01*
X46422Y-90690D01*
X46422Y-90380D01*
M02*
