G04 (created by PCBNEW (2013-07-07 BZR 4022)-stable) date 2/5/2016 12:23:59 PM*
%MOIN*%
G04 Gerber Fmt 3.4, Leading zero omitted, Abs format*
%FSLAX34Y34*%
G01*
G70*
G90*
G04 APERTURE LIST*
%ADD10C,0.005*%
%ADD11C,0.00393701*%
%ADD12C,0.00787402*%
%ADD13C,0.011811*%
G04 APERTURE END LIST*
G54D10*
G54D11*
X11400Y-94750D02*
X11400Y-80950D01*
X25850Y-94750D02*
X11400Y-94750D01*
X61250Y-94750D02*
X61250Y-94425D01*
X25850Y-94750D02*
X61250Y-94750D01*
X61250Y-94450D02*
X61250Y-11350D01*
X61250Y-11350D02*
X58450Y-11350D01*
X11400Y-11350D02*
X58450Y-11350D01*
X11400Y-81100D02*
X11400Y-11350D01*
G54D12*
X13481Y-22670D02*
X13796Y-22985D01*
X13796Y-22670D02*
X13481Y-22985D01*
X13481Y-26607D02*
X13796Y-26922D01*
X13796Y-26607D02*
X13481Y-26922D01*
X13481Y-30544D02*
X13796Y-30859D01*
X13796Y-30544D02*
X13481Y-30859D01*
X13481Y-34403D02*
X13796Y-34718D01*
X13796Y-34403D02*
X13481Y-34718D01*
X13481Y-38458D02*
X13796Y-38773D01*
X13796Y-38458D02*
X13481Y-38773D01*
X13481Y-42395D02*
X13796Y-42710D01*
X13796Y-42395D02*
X13481Y-42710D01*
X13481Y-57946D02*
X13796Y-58261D01*
X13796Y-57946D02*
X13481Y-58261D01*
X13481Y-61883D02*
X13796Y-62198D01*
X13796Y-61883D02*
X13481Y-62198D01*
X13481Y-65820D02*
X13796Y-66135D01*
X13796Y-65820D02*
X13481Y-66135D01*
X13481Y-69757D02*
X13796Y-70072D01*
X13796Y-69757D02*
X13481Y-70072D01*
X13481Y-73694D02*
X13796Y-74009D01*
X13796Y-73694D02*
X13481Y-74009D01*
X13481Y-77631D02*
X13796Y-77946D01*
X13796Y-77631D02*
X13481Y-77946D01*
X14481Y-22670D02*
X14796Y-22985D01*
X14796Y-22670D02*
X14481Y-22985D01*
X14481Y-26607D02*
X14796Y-26922D01*
X14796Y-26607D02*
X14481Y-26922D01*
X14481Y-30544D02*
X14796Y-30859D01*
X14796Y-30544D02*
X14481Y-30859D01*
X14481Y-34403D02*
X14796Y-34718D01*
X14796Y-34403D02*
X14481Y-34718D01*
X14481Y-38458D02*
X14796Y-38773D01*
X14796Y-38458D02*
X14481Y-38773D01*
X14481Y-42395D02*
X14796Y-42710D01*
X14796Y-42395D02*
X14481Y-42710D01*
X14481Y-57946D02*
X14796Y-58261D01*
X14796Y-57946D02*
X14481Y-58261D01*
X14481Y-61883D02*
X14796Y-62198D01*
X14796Y-61883D02*
X14481Y-62198D01*
X14481Y-65820D02*
X14796Y-66135D01*
X14796Y-65820D02*
X14481Y-66135D01*
X14481Y-69757D02*
X14796Y-70072D01*
X14796Y-69757D02*
X14481Y-70072D01*
X14481Y-73694D02*
X14796Y-74009D01*
X14796Y-73694D02*
X14481Y-74009D01*
X14481Y-77631D02*
X14796Y-77946D01*
X14796Y-77631D02*
X14481Y-77946D01*
X15449Y-18733D02*
X15764Y-19048D01*
X15764Y-18733D02*
X15449Y-19048D01*
X15449Y-46332D02*
X15764Y-46647D01*
X15764Y-46332D02*
X15449Y-46647D01*
X15449Y-54009D02*
X15764Y-54324D01*
X15764Y-54009D02*
X15449Y-54324D01*
X15449Y-81568D02*
X15764Y-81883D01*
X15764Y-81568D02*
X15449Y-81883D01*
X16449Y-18733D02*
X16764Y-19048D01*
X16764Y-18733D02*
X16449Y-19048D01*
X16449Y-46332D02*
X16764Y-46647D01*
X16764Y-46332D02*
X16449Y-46647D01*
X16449Y-54009D02*
X16764Y-54324D01*
X16764Y-54009D02*
X16449Y-54324D01*
X16449Y-81568D02*
X16764Y-81883D01*
X16764Y-81568D02*
X16449Y-81883D01*
X17418Y-22670D02*
X17733Y-22985D01*
X17733Y-22670D02*
X17418Y-22985D01*
X17418Y-26607D02*
X17733Y-26922D01*
X17733Y-26607D02*
X17418Y-26922D01*
X17418Y-30544D02*
X17733Y-30859D01*
X17733Y-30544D02*
X17418Y-30859D01*
X17418Y-34481D02*
X17733Y-34796D01*
X17733Y-34481D02*
X17418Y-34796D01*
X17418Y-38418D02*
X17733Y-38733D01*
X17733Y-38418D02*
X17418Y-38733D01*
X17418Y-42395D02*
X17733Y-42710D01*
X17733Y-42395D02*
X17418Y-42710D01*
X17418Y-57946D02*
X17733Y-58261D01*
X17733Y-57946D02*
X17418Y-58261D01*
X17418Y-61883D02*
X17733Y-62198D01*
X17733Y-61883D02*
X17418Y-62198D01*
X17418Y-65820D02*
X17733Y-66135D01*
X17733Y-65820D02*
X17418Y-66135D01*
X17418Y-69757D02*
X17733Y-70072D01*
X17733Y-69757D02*
X17418Y-70072D01*
X17418Y-73694D02*
X17733Y-74009D01*
X17733Y-73694D02*
X17418Y-74009D01*
X17418Y-77631D02*
X17733Y-77946D01*
X17733Y-77631D02*
X17418Y-77946D01*
X18418Y-22670D02*
X18733Y-22985D01*
X18733Y-22670D02*
X18418Y-22985D01*
X18418Y-26607D02*
X18733Y-26922D01*
X18733Y-26607D02*
X18418Y-26922D01*
X18418Y-30544D02*
X18733Y-30859D01*
X18733Y-30544D02*
X18418Y-30859D01*
X18418Y-34481D02*
X18733Y-34796D01*
X18733Y-34481D02*
X18418Y-34796D01*
X18418Y-38418D02*
X18733Y-38733D01*
X18733Y-38418D02*
X18418Y-38733D01*
X18418Y-42395D02*
X18733Y-42710D01*
X18733Y-42395D02*
X18418Y-42710D01*
X18418Y-57946D02*
X18733Y-58261D01*
X18733Y-57946D02*
X18418Y-58261D01*
X18418Y-61883D02*
X18733Y-62198D01*
X18733Y-61883D02*
X18418Y-62198D01*
X18418Y-65820D02*
X18733Y-66135D01*
X18733Y-65820D02*
X18418Y-66135D01*
X18418Y-69757D02*
X18733Y-70072D01*
X18733Y-69757D02*
X18418Y-70072D01*
X18418Y-73694D02*
X18733Y-74009D01*
X18733Y-73694D02*
X18418Y-74009D01*
X18418Y-77631D02*
X18733Y-77946D01*
X18733Y-77631D02*
X18418Y-77946D01*
X19886Y-14296D02*
X20201Y-14611D01*
X20201Y-14296D02*
X19886Y-14611D01*
X19886Y-15296D02*
X20201Y-15611D01*
X20201Y-15296D02*
X19886Y-15611D01*
X19886Y-49572D02*
X20201Y-49887D01*
X20201Y-49572D02*
X19886Y-49887D01*
X19886Y-50572D02*
X20201Y-50887D01*
X20201Y-50572D02*
X19886Y-50887D01*
X19886Y-85005D02*
X20201Y-85320D01*
X20201Y-85005D02*
X19886Y-85320D01*
X19886Y-86005D02*
X20201Y-86320D01*
X20201Y-86005D02*
X19886Y-86320D01*
X23823Y-12328D02*
X24138Y-12643D01*
X24138Y-12328D02*
X23823Y-12643D01*
X23823Y-13328D02*
X24138Y-13643D01*
X24138Y-13328D02*
X23823Y-13643D01*
X23823Y-16265D02*
X24138Y-16580D01*
X24138Y-16265D02*
X23823Y-16580D01*
X23823Y-17265D02*
X24138Y-17580D01*
X24138Y-17265D02*
X23823Y-17580D01*
X23823Y-47603D02*
X24138Y-47918D01*
X24138Y-47603D02*
X23823Y-47918D01*
X23823Y-48603D02*
X24138Y-48918D01*
X24138Y-48603D02*
X23823Y-48918D01*
X23823Y-51540D02*
X24138Y-51855D01*
X24138Y-51540D02*
X23823Y-51855D01*
X23823Y-52540D02*
X24138Y-52855D01*
X24138Y-52540D02*
X23823Y-52855D01*
X23823Y-83036D02*
X24138Y-83351D01*
X24138Y-83036D02*
X23823Y-83351D01*
X23823Y-84036D02*
X24138Y-84351D01*
X24138Y-84036D02*
X23823Y-84351D01*
X23823Y-86973D02*
X24138Y-87288D01*
X24138Y-86973D02*
X23823Y-87288D01*
X23823Y-87973D02*
X24138Y-88288D01*
X24138Y-87973D02*
X23823Y-88288D01*
X27760Y-12328D02*
X28075Y-12643D01*
X28075Y-12328D02*
X27760Y-12643D01*
X27760Y-13328D02*
X28075Y-13643D01*
X28075Y-13328D02*
X27760Y-13643D01*
X27760Y-16265D02*
X28075Y-16580D01*
X28075Y-16265D02*
X27760Y-16580D01*
X27760Y-17265D02*
X28075Y-17580D01*
X28075Y-17265D02*
X27760Y-17580D01*
X27760Y-47603D02*
X28075Y-47918D01*
X28075Y-47603D02*
X27760Y-47918D01*
X27760Y-48603D02*
X28075Y-48918D01*
X28075Y-48603D02*
X27760Y-48918D01*
X27760Y-51540D02*
X28075Y-51855D01*
X28075Y-51540D02*
X27760Y-51855D01*
X27760Y-52540D02*
X28075Y-52855D01*
X28075Y-52540D02*
X27760Y-52855D01*
X27760Y-83036D02*
X28075Y-83351D01*
X28075Y-83036D02*
X27760Y-83351D01*
X27760Y-84036D02*
X28075Y-84351D01*
X28075Y-84036D02*
X27760Y-84351D01*
X27760Y-86973D02*
X28075Y-87288D01*
X28075Y-86973D02*
X27760Y-87288D01*
X27760Y-87973D02*
X28075Y-88288D01*
X28075Y-87973D02*
X27760Y-88288D01*
X31697Y-12328D02*
X32012Y-12643D01*
X32012Y-12328D02*
X31697Y-12643D01*
X31697Y-13328D02*
X32012Y-13643D01*
X32012Y-13328D02*
X31697Y-13643D01*
X31697Y-16265D02*
X32012Y-16580D01*
X32012Y-16265D02*
X31697Y-16580D01*
X31697Y-17265D02*
X32012Y-17580D01*
X32012Y-17265D02*
X31697Y-17580D01*
X31697Y-47603D02*
X32012Y-47918D01*
X32012Y-47603D02*
X31697Y-47918D01*
X31697Y-48603D02*
X32012Y-48918D01*
X32012Y-48603D02*
X31697Y-48918D01*
X31697Y-51540D02*
X32012Y-51855D01*
X32012Y-51540D02*
X31697Y-51855D01*
X31697Y-52540D02*
X32012Y-52855D01*
X32012Y-52540D02*
X31697Y-52855D01*
X31697Y-83036D02*
X32012Y-83351D01*
X32012Y-83036D02*
X31697Y-83351D01*
X31697Y-84036D02*
X32012Y-84351D01*
X32012Y-84036D02*
X31697Y-84351D01*
X31697Y-86973D02*
X32012Y-87288D01*
X32012Y-86973D02*
X31697Y-87288D01*
X31697Y-87973D02*
X32012Y-88288D01*
X32012Y-87973D02*
X31697Y-88288D01*
X35634Y-12328D02*
X35949Y-12643D01*
X35949Y-12328D02*
X35634Y-12643D01*
X35634Y-13328D02*
X35949Y-13643D01*
X35949Y-13328D02*
X35634Y-13643D01*
X35634Y-16265D02*
X35949Y-16580D01*
X35949Y-16265D02*
X35634Y-16580D01*
X35634Y-17265D02*
X35949Y-17580D01*
X35949Y-17265D02*
X35634Y-17580D01*
X35634Y-47603D02*
X35949Y-47918D01*
X35949Y-47603D02*
X35634Y-47918D01*
X35634Y-48603D02*
X35949Y-48918D01*
X35949Y-48603D02*
X35634Y-48918D01*
X35634Y-51540D02*
X35949Y-51855D01*
X35949Y-51540D02*
X35634Y-51855D01*
X35634Y-52540D02*
X35949Y-52855D01*
X35949Y-52540D02*
X35634Y-52855D01*
X35634Y-83036D02*
X35949Y-83351D01*
X35949Y-83036D02*
X35634Y-83351D01*
X35634Y-84036D02*
X35949Y-84351D01*
X35949Y-84036D02*
X35634Y-84351D01*
X35634Y-86973D02*
X35949Y-87288D01*
X35949Y-86973D02*
X35634Y-87288D01*
X35634Y-87973D02*
X35949Y-88288D01*
X35949Y-87973D02*
X35634Y-88288D01*
X39571Y-12328D02*
X39886Y-12643D01*
X39886Y-12328D02*
X39571Y-12643D01*
X39571Y-13328D02*
X39886Y-13643D01*
X39886Y-13328D02*
X39571Y-13643D01*
X39571Y-16265D02*
X39886Y-16580D01*
X39886Y-16265D02*
X39571Y-16580D01*
X39571Y-17265D02*
X39886Y-17580D01*
X39886Y-17265D02*
X39571Y-17580D01*
X39571Y-47603D02*
X39886Y-47918D01*
X39886Y-47603D02*
X39571Y-47918D01*
X39571Y-48603D02*
X39886Y-48918D01*
X39886Y-48603D02*
X39571Y-48918D01*
X39571Y-51540D02*
X39886Y-51855D01*
X39886Y-51540D02*
X39571Y-51855D01*
X39571Y-52540D02*
X39886Y-52855D01*
X39886Y-52540D02*
X39571Y-52855D01*
X39571Y-83036D02*
X39886Y-83351D01*
X39886Y-83036D02*
X39571Y-83351D01*
X39571Y-84036D02*
X39886Y-84351D01*
X39886Y-84036D02*
X39571Y-84351D01*
X39571Y-86973D02*
X39886Y-87288D01*
X39886Y-86973D02*
X39571Y-87288D01*
X39571Y-87973D02*
X39886Y-88288D01*
X39886Y-87973D02*
X39571Y-88288D01*
X43508Y-12328D02*
X43823Y-12643D01*
X43823Y-12328D02*
X43508Y-12643D01*
X43508Y-13328D02*
X43823Y-13643D01*
X43823Y-13328D02*
X43508Y-13643D01*
X43508Y-16265D02*
X43823Y-16580D01*
X43823Y-16265D02*
X43508Y-16580D01*
X43508Y-17265D02*
X43823Y-17580D01*
X43823Y-17265D02*
X43508Y-17580D01*
X43508Y-47603D02*
X43823Y-47918D01*
X43823Y-47603D02*
X43508Y-47918D01*
X43508Y-48603D02*
X43823Y-48918D01*
X43823Y-48603D02*
X43508Y-48918D01*
X43508Y-51540D02*
X43823Y-51855D01*
X43823Y-51540D02*
X43508Y-51855D01*
X43508Y-52540D02*
X43823Y-52855D01*
X43823Y-52540D02*
X43508Y-52855D01*
X43508Y-83036D02*
X43823Y-83351D01*
X43823Y-83036D02*
X43508Y-83351D01*
X43508Y-84036D02*
X43823Y-84351D01*
X43823Y-84036D02*
X43508Y-84351D01*
X43508Y-86973D02*
X43823Y-87288D01*
X43823Y-86973D02*
X43508Y-87288D01*
X43508Y-87973D02*
X43823Y-88288D01*
X43823Y-87973D02*
X43508Y-88288D01*
X47445Y-14296D02*
X47760Y-14611D01*
X47760Y-14296D02*
X47445Y-14611D01*
X47445Y-15296D02*
X47760Y-15611D01*
X47760Y-15296D02*
X47445Y-15611D01*
X47445Y-49572D02*
X47760Y-49887D01*
X47760Y-49572D02*
X47445Y-49887D01*
X47445Y-50572D02*
X47760Y-50887D01*
X47760Y-50572D02*
X47445Y-50887D01*
X47445Y-85005D02*
X47760Y-85320D01*
X47760Y-85005D02*
X47445Y-85320D01*
X47445Y-86005D02*
X47760Y-86320D01*
X47760Y-86005D02*
X47445Y-86320D01*
X48914Y-22670D02*
X49229Y-22985D01*
X49229Y-22670D02*
X48914Y-22985D01*
X48914Y-26607D02*
X49229Y-26922D01*
X49229Y-26607D02*
X48914Y-26922D01*
X48914Y-30544D02*
X49229Y-30859D01*
X49229Y-30544D02*
X48914Y-30859D01*
X48914Y-34363D02*
X49229Y-34678D01*
X49229Y-34363D02*
X48914Y-34678D01*
X48914Y-38379D02*
X49229Y-38694D01*
X49229Y-38379D02*
X48914Y-38694D01*
X48914Y-42395D02*
X49229Y-42710D01*
X49229Y-42395D02*
X48914Y-42710D01*
X48914Y-57946D02*
X49229Y-58261D01*
X49229Y-57946D02*
X48914Y-58261D01*
X48914Y-61883D02*
X49229Y-62198D01*
X49229Y-61883D02*
X48914Y-62198D01*
X48914Y-65820D02*
X49229Y-66135D01*
X49229Y-65820D02*
X48914Y-66135D01*
X48914Y-69757D02*
X49229Y-70072D01*
X49229Y-69757D02*
X48914Y-70072D01*
X48914Y-73694D02*
X49229Y-74009D01*
X49229Y-73694D02*
X48914Y-74009D01*
X48914Y-77631D02*
X49229Y-77946D01*
X49229Y-77631D02*
X48914Y-77946D01*
X49914Y-22670D02*
X50229Y-22985D01*
X50229Y-22670D02*
X49914Y-22985D01*
X49914Y-26607D02*
X50229Y-26922D01*
X50229Y-26607D02*
X49914Y-26922D01*
X49914Y-30544D02*
X50229Y-30859D01*
X50229Y-30544D02*
X49914Y-30859D01*
X49914Y-34363D02*
X50229Y-34678D01*
X50229Y-34363D02*
X49914Y-34678D01*
X49914Y-38379D02*
X50229Y-38694D01*
X50229Y-38379D02*
X49914Y-38694D01*
X49914Y-42395D02*
X50229Y-42710D01*
X50229Y-42395D02*
X49914Y-42710D01*
X49914Y-57946D02*
X50229Y-58261D01*
X50229Y-57946D02*
X49914Y-58261D01*
X49914Y-61883D02*
X50229Y-62198D01*
X50229Y-61883D02*
X49914Y-62198D01*
X49914Y-65820D02*
X50229Y-66135D01*
X50229Y-65820D02*
X49914Y-66135D01*
X49914Y-69757D02*
X50229Y-70072D01*
X50229Y-69757D02*
X49914Y-70072D01*
X49914Y-73694D02*
X50229Y-74009D01*
X50229Y-73694D02*
X49914Y-74009D01*
X49914Y-77631D02*
X50229Y-77946D01*
X50229Y-77631D02*
X49914Y-77946D01*
X50882Y-18733D02*
X51197Y-19048D01*
X51197Y-18733D02*
X50882Y-19048D01*
X50882Y-46135D02*
X51197Y-46450D01*
X51197Y-46135D02*
X50882Y-46450D01*
X50882Y-54009D02*
X51197Y-54324D01*
X51197Y-54009D02*
X50882Y-54324D01*
X50882Y-81568D02*
X51197Y-81883D01*
X51197Y-81568D02*
X50882Y-81883D01*
X51882Y-18733D02*
X52197Y-19048D01*
X52197Y-18733D02*
X51882Y-19048D01*
X51882Y-46135D02*
X52197Y-46450D01*
X52197Y-46135D02*
X51882Y-46450D01*
X51882Y-54009D02*
X52197Y-54324D01*
X52197Y-54009D02*
X51882Y-54324D01*
X51882Y-81568D02*
X52197Y-81883D01*
X52197Y-81568D02*
X51882Y-81883D01*
X52851Y-22670D02*
X53166Y-22985D01*
X53166Y-22670D02*
X52851Y-22985D01*
X52851Y-26607D02*
X53166Y-26922D01*
X53166Y-26607D02*
X52851Y-26922D01*
X52851Y-30544D02*
X53166Y-30859D01*
X53166Y-30544D02*
X52851Y-30859D01*
X52851Y-34481D02*
X53166Y-34796D01*
X53166Y-34481D02*
X52851Y-34796D01*
X52851Y-38418D02*
X53166Y-38733D01*
X53166Y-38418D02*
X52851Y-38733D01*
X52851Y-42434D02*
X53166Y-42749D01*
X53166Y-42434D02*
X52851Y-42749D01*
X52851Y-57946D02*
X53166Y-58261D01*
X53166Y-57946D02*
X52851Y-58261D01*
X52851Y-61883D02*
X53166Y-62198D01*
X53166Y-61883D02*
X52851Y-62198D01*
X52851Y-65820D02*
X53166Y-66135D01*
X53166Y-65820D02*
X52851Y-66135D01*
X52851Y-69757D02*
X53166Y-70072D01*
X53166Y-69757D02*
X52851Y-70072D01*
X52851Y-73694D02*
X53166Y-74009D01*
X53166Y-73694D02*
X52851Y-74009D01*
X52851Y-77631D02*
X53166Y-77946D01*
X53166Y-77631D02*
X52851Y-77946D01*
X53851Y-22670D02*
X54166Y-22985D01*
X54166Y-22670D02*
X53851Y-22985D01*
X53851Y-26607D02*
X54166Y-26922D01*
X54166Y-26607D02*
X53851Y-26922D01*
X53851Y-30544D02*
X54166Y-30859D01*
X54166Y-30544D02*
X53851Y-30859D01*
X53851Y-34481D02*
X54166Y-34796D01*
X54166Y-34481D02*
X53851Y-34796D01*
X53851Y-38418D02*
X54166Y-38733D01*
X54166Y-38418D02*
X53851Y-38733D01*
X53851Y-42434D02*
X54166Y-42749D01*
X54166Y-42434D02*
X53851Y-42749D01*
X53851Y-57946D02*
X54166Y-58261D01*
X54166Y-57946D02*
X53851Y-58261D01*
X53851Y-61883D02*
X54166Y-62198D01*
X54166Y-61883D02*
X53851Y-62198D01*
X53851Y-65820D02*
X54166Y-66135D01*
X54166Y-65820D02*
X53851Y-66135D01*
X53851Y-69757D02*
X54166Y-70072D01*
X54166Y-69757D02*
X53851Y-70072D01*
X53851Y-73694D02*
X54166Y-74009D01*
X54166Y-73694D02*
X53851Y-74009D01*
X53851Y-77631D02*
X54166Y-77946D01*
X54166Y-77631D02*
X53851Y-77946D01*
X58842Y-85342D02*
X59157Y-85657D01*
X59157Y-85342D02*
X58842Y-85657D01*
X58842Y-86342D02*
X59157Y-86657D01*
X59157Y-86342D02*
X58842Y-86657D01*
X46335Y-88275D02*
G75*
G03X46335Y-88275I-160J0D01*
G74*
G01*
X46335Y-93275D02*
G75*
G03X46335Y-93275I-160J0D01*
G74*
G01*
X13850Y-48175D02*
X13850Y-48625D01*
X13625Y-48400D02*
X14075Y-48400D01*
X19850Y-48175D02*
X19850Y-48625D01*
X19625Y-48400D02*
X20075Y-48400D01*
X47850Y-87875D02*
X47850Y-88325D01*
X47625Y-88100D02*
X48075Y-88100D01*
X53850Y-87875D02*
X53850Y-88325D01*
X53625Y-88100D02*
X54075Y-88100D01*
X27469Y-93319D02*
X27469Y-92930D01*
X27080Y-92930D01*
X27080Y-93319D01*
X27469Y-93319D01*
X29469Y-93319D02*
X29469Y-92930D01*
X29080Y-92930D01*
X29080Y-93319D01*
X29469Y-93319D01*
X31469Y-93319D02*
X31469Y-92930D01*
X31080Y-92930D01*
X31080Y-93319D01*
X31469Y-93319D01*
X33469Y-93319D02*
X33469Y-92930D01*
X33080Y-92930D01*
X33080Y-93319D01*
X33469Y-93319D01*
X35469Y-93319D02*
X35469Y-92930D01*
X35080Y-92930D01*
X35080Y-93319D01*
X35469Y-93319D01*
X37469Y-93319D02*
X37469Y-92930D01*
X37080Y-92930D01*
X37080Y-93319D01*
X37469Y-93319D01*
X39469Y-93319D02*
X39469Y-92930D01*
X39080Y-92930D01*
X39080Y-93319D01*
X39469Y-93319D01*
X41469Y-93319D02*
X41469Y-92930D01*
X41080Y-92930D01*
X41080Y-93319D01*
X41469Y-93319D01*
X51669Y-93044D02*
X51669Y-92655D01*
X51280Y-92655D01*
X51280Y-93044D01*
X51669Y-93044D01*
X53669Y-93044D02*
X53669Y-92655D01*
X53280Y-92655D01*
X53280Y-93044D01*
X53669Y-93044D01*
X14000Y-91950D02*
X14787Y-91162D01*
X14000Y-90375D01*
X13212Y-91162D01*
X14000Y-91950D01*
X57850Y-14387D02*
X58637Y-13600D01*
X57850Y-12812D01*
X57062Y-13600D01*
X57850Y-14387D01*
X57850Y-91950D02*
X58637Y-91162D01*
X57850Y-90375D01*
X57062Y-91162D01*
X57850Y-91950D01*
X13203Y-12803D02*
X14796Y-14396D01*
X14796Y-12803D02*
X13203Y-14396D01*
X14796Y-13600D02*
G75*
G03X14796Y-13600I-796J0D01*
G74*
G01*
G54D13*
X12448Y-96546D02*
X12448Y-95365D01*
X12730Y-95365D01*
X12898Y-95422D01*
X13011Y-95534D01*
X13067Y-95647D01*
X13123Y-95872D01*
X13123Y-96040D01*
X13067Y-96265D01*
X13011Y-96378D01*
X12898Y-96490D01*
X12730Y-96546D01*
X12448Y-96546D01*
X13630Y-96546D02*
X13630Y-95759D01*
X13630Y-95984D02*
X13686Y-95872D01*
X13742Y-95815D01*
X13855Y-95759D01*
X13967Y-95759D01*
X14361Y-96546D02*
X14361Y-95759D01*
X14361Y-95365D02*
X14304Y-95422D01*
X14361Y-95478D01*
X14417Y-95422D01*
X14361Y-95365D01*
X14361Y-95478D01*
X15092Y-96546D02*
X14979Y-96490D01*
X14923Y-96378D01*
X14923Y-95365D01*
X15711Y-96546D02*
X15598Y-96490D01*
X15542Y-96378D01*
X15542Y-95365D01*
X17060Y-96546D02*
X17060Y-95365D01*
X17454Y-96209D01*
X17848Y-95365D01*
X17848Y-96546D01*
X18916Y-96546D02*
X18916Y-95928D01*
X18860Y-95815D01*
X18748Y-95759D01*
X18523Y-95759D01*
X18410Y-95815D01*
X18916Y-96490D02*
X18804Y-96546D01*
X18523Y-96546D01*
X18410Y-96490D01*
X18354Y-96378D01*
X18354Y-96265D01*
X18410Y-96153D01*
X18523Y-96097D01*
X18804Y-96097D01*
X18916Y-96040D01*
X19479Y-95759D02*
X19479Y-96940D01*
X19479Y-95815D02*
X19591Y-95759D01*
X19816Y-95759D01*
X19929Y-95815D01*
X19985Y-95872D01*
X20041Y-95984D01*
X20041Y-96321D01*
X19985Y-96434D01*
X19929Y-96490D01*
X19816Y-96546D01*
X19591Y-96546D01*
X19479Y-96490D01*
X20547Y-96434D02*
X20604Y-96490D01*
X20547Y-96546D01*
X20491Y-96490D01*
X20547Y-96434D01*
X20547Y-96546D01*
X20547Y-95815D02*
X20604Y-95872D01*
X20547Y-95928D01*
X20491Y-95872D01*
X20547Y-95815D01*
X20547Y-95928D01*
X11065Y-98391D02*
X11380Y-98706D01*
X11380Y-98391D02*
X11065Y-98706D01*
X12673Y-97846D02*
X12786Y-97846D01*
X12898Y-97902D01*
X12955Y-97958D01*
X13011Y-98071D01*
X13067Y-98296D01*
X13067Y-98577D01*
X13011Y-98802D01*
X12955Y-98914D01*
X12898Y-98971D01*
X12786Y-99027D01*
X12673Y-99027D01*
X12561Y-98971D01*
X12505Y-98914D01*
X12448Y-98802D01*
X12392Y-98577D01*
X12392Y-98296D01*
X12448Y-98071D01*
X12505Y-97958D01*
X12561Y-97902D01*
X12673Y-97846D01*
X13573Y-98914D02*
X13630Y-98971D01*
X13573Y-99027D01*
X13517Y-98971D01*
X13573Y-98914D01*
X13573Y-99027D01*
X14304Y-98352D02*
X14192Y-98296D01*
X14136Y-98239D01*
X14079Y-98127D01*
X14079Y-98071D01*
X14136Y-97958D01*
X14192Y-97902D01*
X14304Y-97846D01*
X14529Y-97846D01*
X14642Y-97902D01*
X14698Y-97958D01*
X14754Y-98071D01*
X14754Y-98127D01*
X14698Y-98239D01*
X14642Y-98296D01*
X14529Y-98352D01*
X14304Y-98352D01*
X14192Y-98408D01*
X14136Y-98464D01*
X14079Y-98577D01*
X14079Y-98802D01*
X14136Y-98914D01*
X14192Y-98971D01*
X14304Y-99027D01*
X14529Y-99027D01*
X14642Y-98971D01*
X14698Y-98914D01*
X14754Y-98802D01*
X14754Y-98577D01*
X14698Y-98464D01*
X14642Y-98408D01*
X14529Y-98352D01*
X15486Y-97846D02*
X15598Y-97846D01*
X15711Y-97902D01*
X15767Y-97958D01*
X15823Y-98071D01*
X15879Y-98296D01*
X15879Y-98577D01*
X15823Y-98802D01*
X15767Y-98914D01*
X15711Y-98971D01*
X15598Y-99027D01*
X15486Y-99027D01*
X15373Y-98971D01*
X15317Y-98914D01*
X15261Y-98802D01*
X15204Y-98577D01*
X15204Y-98296D01*
X15261Y-98071D01*
X15317Y-97958D01*
X15373Y-97902D01*
X15486Y-97846D01*
X16385Y-99027D02*
X16385Y-98239D01*
X16385Y-98352D02*
X16442Y-98296D01*
X16554Y-98239D01*
X16723Y-98239D01*
X16835Y-98296D01*
X16892Y-98408D01*
X16892Y-99027D01*
X16892Y-98408D02*
X16948Y-98296D01*
X17060Y-98239D01*
X17229Y-98239D01*
X17342Y-98296D01*
X17398Y-98408D01*
X17398Y-99027D01*
X17960Y-99027D02*
X17960Y-98239D01*
X17960Y-98352D02*
X18016Y-98296D01*
X18129Y-98239D01*
X18298Y-98239D01*
X18410Y-98296D01*
X18466Y-98408D01*
X18466Y-99027D01*
X18466Y-98408D02*
X18523Y-98296D01*
X18635Y-98239D01*
X18804Y-98239D01*
X18916Y-98296D01*
X18973Y-98408D01*
X18973Y-99027D01*
X21279Y-97789D02*
X20266Y-99308D01*
X22797Y-97846D02*
X22910Y-97846D01*
X23022Y-97902D01*
X23078Y-97958D01*
X23135Y-98071D01*
X23191Y-98296D01*
X23191Y-98577D01*
X23135Y-98802D01*
X23078Y-98914D01*
X23022Y-98971D01*
X22910Y-99027D01*
X22797Y-99027D01*
X22685Y-98971D01*
X22628Y-98914D01*
X22572Y-98802D01*
X22516Y-98577D01*
X22516Y-98296D01*
X22572Y-98071D01*
X22628Y-97958D01*
X22685Y-97902D01*
X22797Y-97846D01*
X23697Y-98914D02*
X23753Y-98971D01*
X23697Y-99027D01*
X23641Y-98971D01*
X23697Y-98914D01*
X23697Y-99027D01*
X24484Y-97846D02*
X24597Y-97846D01*
X24709Y-97902D01*
X24766Y-97958D01*
X24822Y-98071D01*
X24878Y-98296D01*
X24878Y-98577D01*
X24822Y-98802D01*
X24766Y-98914D01*
X24709Y-98971D01*
X24597Y-99027D01*
X24484Y-99027D01*
X24372Y-98971D01*
X24316Y-98914D01*
X24259Y-98802D01*
X24203Y-98577D01*
X24203Y-98296D01*
X24259Y-98071D01*
X24316Y-97958D01*
X24372Y-97902D01*
X24484Y-97846D01*
X25272Y-97846D02*
X26003Y-97846D01*
X25609Y-98296D01*
X25778Y-98296D01*
X25891Y-98352D01*
X25947Y-98408D01*
X26003Y-98521D01*
X26003Y-98802D01*
X25947Y-98914D01*
X25891Y-98971D01*
X25778Y-99027D01*
X25441Y-99027D01*
X25328Y-98971D01*
X25272Y-98914D01*
X26453Y-97958D02*
X26509Y-97902D01*
X26622Y-97846D01*
X26903Y-97846D01*
X27015Y-97902D01*
X27072Y-97958D01*
X27128Y-98071D01*
X27128Y-98183D01*
X27072Y-98352D01*
X26397Y-99027D01*
X27128Y-99027D01*
X27578Y-97846D02*
X27578Y-98071D01*
X28028Y-97846D02*
X28028Y-98071D01*
X29771Y-99477D02*
X29715Y-99420D01*
X29603Y-99252D01*
X29546Y-99139D01*
X29490Y-98971D01*
X29434Y-98689D01*
X29434Y-98464D01*
X29490Y-98183D01*
X29546Y-98014D01*
X29603Y-97902D01*
X29715Y-97733D01*
X29771Y-97677D01*
X30840Y-99027D02*
X30165Y-99027D01*
X30502Y-99027D02*
X30502Y-97846D01*
X30390Y-98014D01*
X30277Y-98127D01*
X30165Y-98183D01*
X31402Y-99027D02*
X31627Y-99027D01*
X31740Y-98971D01*
X31796Y-98914D01*
X31908Y-98746D01*
X31965Y-98521D01*
X31965Y-98071D01*
X31908Y-97958D01*
X31852Y-97902D01*
X31740Y-97846D01*
X31515Y-97846D01*
X31402Y-97902D01*
X31346Y-97958D01*
X31290Y-98071D01*
X31290Y-98352D01*
X31346Y-98464D01*
X31402Y-98521D01*
X31515Y-98577D01*
X31740Y-98577D01*
X31852Y-98521D01*
X31908Y-98464D01*
X31965Y-98352D01*
X32640Y-98352D02*
X32527Y-98296D01*
X32471Y-98239D01*
X32415Y-98127D01*
X32415Y-98071D01*
X32471Y-97958D01*
X32527Y-97902D01*
X32640Y-97846D01*
X32865Y-97846D01*
X32977Y-97902D01*
X33033Y-97958D01*
X33090Y-98071D01*
X33090Y-98127D01*
X33033Y-98239D01*
X32977Y-98296D01*
X32865Y-98352D01*
X32640Y-98352D01*
X32527Y-98408D01*
X32471Y-98464D01*
X32415Y-98577D01*
X32415Y-98802D01*
X32471Y-98914D01*
X32527Y-98971D01*
X32640Y-99027D01*
X32865Y-99027D01*
X32977Y-98971D01*
X33033Y-98914D01*
X33090Y-98802D01*
X33090Y-98577D01*
X33033Y-98464D01*
X32977Y-98408D01*
X32865Y-98352D01*
X34496Y-99027D02*
X34496Y-97846D01*
X35002Y-99027D02*
X35002Y-98408D01*
X34946Y-98296D01*
X34833Y-98239D01*
X34664Y-98239D01*
X34552Y-98296D01*
X34496Y-98352D01*
X35733Y-99027D02*
X35621Y-98971D01*
X35564Y-98914D01*
X35508Y-98802D01*
X35508Y-98464D01*
X35564Y-98352D01*
X35621Y-98296D01*
X35733Y-98239D01*
X35902Y-98239D01*
X36014Y-98296D01*
X36070Y-98352D01*
X36127Y-98464D01*
X36127Y-98802D01*
X36070Y-98914D01*
X36014Y-98971D01*
X35902Y-99027D01*
X35733Y-99027D01*
X36802Y-99027D02*
X36689Y-98971D01*
X36633Y-98858D01*
X36633Y-97846D01*
X37702Y-98971D02*
X37589Y-99027D01*
X37364Y-99027D01*
X37252Y-98971D01*
X37195Y-98858D01*
X37195Y-98408D01*
X37252Y-98296D01*
X37364Y-98239D01*
X37589Y-98239D01*
X37702Y-98296D01*
X37758Y-98408D01*
X37758Y-98521D01*
X37195Y-98633D01*
X38208Y-98971D02*
X38320Y-99027D01*
X38545Y-99027D01*
X38658Y-98971D01*
X38714Y-98858D01*
X38714Y-98802D01*
X38658Y-98689D01*
X38545Y-98633D01*
X38376Y-98633D01*
X38264Y-98577D01*
X38208Y-98464D01*
X38208Y-98408D01*
X38264Y-98296D01*
X38376Y-98239D01*
X38545Y-98239D01*
X38658Y-98296D01*
X39108Y-99477D02*
X39164Y-99420D01*
X39276Y-99252D01*
X39333Y-99139D01*
X39389Y-98971D01*
X39445Y-98689D01*
X39445Y-98464D01*
X39389Y-98183D01*
X39333Y-98014D01*
X39276Y-97902D01*
X39164Y-97733D01*
X39108Y-97677D01*
G54D12*
X11380Y-100108D02*
G75*
G03X11380Y-100108I-160J0D01*
G74*
G01*
G54D13*
X12673Y-99405D02*
X12786Y-99405D01*
X12898Y-99461D01*
X12955Y-99517D01*
X13011Y-99630D01*
X13067Y-99855D01*
X13067Y-100136D01*
X13011Y-100361D01*
X12955Y-100473D01*
X12898Y-100530D01*
X12786Y-100586D01*
X12673Y-100586D01*
X12561Y-100530D01*
X12505Y-100473D01*
X12448Y-100361D01*
X12392Y-100136D01*
X12392Y-99855D01*
X12448Y-99630D01*
X12505Y-99517D01*
X12561Y-99461D01*
X12673Y-99405D01*
X13573Y-100473D02*
X13630Y-100530D01*
X13573Y-100586D01*
X13517Y-100530D01*
X13573Y-100473D01*
X13573Y-100586D01*
X14304Y-99911D02*
X14192Y-99855D01*
X14136Y-99798D01*
X14079Y-99686D01*
X14079Y-99630D01*
X14136Y-99517D01*
X14192Y-99461D01*
X14304Y-99405D01*
X14529Y-99405D01*
X14642Y-99461D01*
X14698Y-99517D01*
X14754Y-99630D01*
X14754Y-99686D01*
X14698Y-99798D01*
X14642Y-99855D01*
X14529Y-99911D01*
X14304Y-99911D01*
X14192Y-99967D01*
X14136Y-100023D01*
X14079Y-100136D01*
X14079Y-100361D01*
X14136Y-100473D01*
X14192Y-100530D01*
X14304Y-100586D01*
X14529Y-100586D01*
X14642Y-100530D01*
X14698Y-100473D01*
X14754Y-100361D01*
X14754Y-100136D01*
X14698Y-100023D01*
X14642Y-99967D01*
X14529Y-99911D01*
X15879Y-100586D02*
X15204Y-100586D01*
X15542Y-100586D02*
X15542Y-99405D01*
X15429Y-99573D01*
X15317Y-99686D01*
X15204Y-99742D01*
X16385Y-100586D02*
X16385Y-99798D01*
X16385Y-99911D02*
X16442Y-99855D01*
X16554Y-99798D01*
X16723Y-99798D01*
X16835Y-99855D01*
X16892Y-99967D01*
X16892Y-100586D01*
X16892Y-99967D02*
X16948Y-99855D01*
X17060Y-99798D01*
X17229Y-99798D01*
X17342Y-99855D01*
X17398Y-99967D01*
X17398Y-100586D01*
X17960Y-100586D02*
X17960Y-99798D01*
X17960Y-99911D02*
X18016Y-99855D01*
X18129Y-99798D01*
X18298Y-99798D01*
X18410Y-99855D01*
X18466Y-99967D01*
X18466Y-100586D01*
X18466Y-99967D02*
X18523Y-99855D01*
X18635Y-99798D01*
X18804Y-99798D01*
X18916Y-99855D01*
X18973Y-99967D01*
X18973Y-100586D01*
X21279Y-99348D02*
X20266Y-100867D01*
X22797Y-99405D02*
X22910Y-99405D01*
X23022Y-99461D01*
X23078Y-99517D01*
X23135Y-99630D01*
X23191Y-99855D01*
X23191Y-100136D01*
X23135Y-100361D01*
X23078Y-100473D01*
X23022Y-100530D01*
X22910Y-100586D01*
X22797Y-100586D01*
X22685Y-100530D01*
X22628Y-100473D01*
X22572Y-100361D01*
X22516Y-100136D01*
X22516Y-99855D01*
X22572Y-99630D01*
X22628Y-99517D01*
X22685Y-99461D01*
X22797Y-99405D01*
X23697Y-100473D02*
X23753Y-100530D01*
X23697Y-100586D01*
X23641Y-100530D01*
X23697Y-100473D01*
X23697Y-100586D01*
X24484Y-99405D02*
X24597Y-99405D01*
X24709Y-99461D01*
X24766Y-99517D01*
X24822Y-99630D01*
X24878Y-99855D01*
X24878Y-100136D01*
X24822Y-100361D01*
X24766Y-100473D01*
X24709Y-100530D01*
X24597Y-100586D01*
X24484Y-100586D01*
X24372Y-100530D01*
X24316Y-100473D01*
X24259Y-100361D01*
X24203Y-100136D01*
X24203Y-99855D01*
X24259Y-99630D01*
X24316Y-99517D01*
X24372Y-99461D01*
X24484Y-99405D01*
X25272Y-99405D02*
X26003Y-99405D01*
X25609Y-99855D01*
X25778Y-99855D01*
X25891Y-99911D01*
X25947Y-99967D01*
X26003Y-100080D01*
X26003Y-100361D01*
X25947Y-100473D01*
X25891Y-100530D01*
X25778Y-100586D01*
X25441Y-100586D01*
X25328Y-100530D01*
X25272Y-100473D01*
X26453Y-99517D02*
X26509Y-99461D01*
X26622Y-99405D01*
X26903Y-99405D01*
X27015Y-99461D01*
X27072Y-99517D01*
X27128Y-99630D01*
X27128Y-99742D01*
X27072Y-99911D01*
X26397Y-100586D01*
X27128Y-100586D01*
X27578Y-99405D02*
X27578Y-99630D01*
X28028Y-99405D02*
X28028Y-99630D01*
X29771Y-101036D02*
X29715Y-100980D01*
X29603Y-100811D01*
X29546Y-100698D01*
X29490Y-100530D01*
X29434Y-100248D01*
X29434Y-100023D01*
X29490Y-99742D01*
X29546Y-99573D01*
X29603Y-99461D01*
X29715Y-99292D01*
X29771Y-99236D01*
X30165Y-99517D02*
X30221Y-99461D01*
X30334Y-99405D01*
X30615Y-99405D01*
X30727Y-99461D01*
X30784Y-99517D01*
X30840Y-99630D01*
X30840Y-99742D01*
X30784Y-99911D01*
X30109Y-100586D01*
X30840Y-100586D01*
X32246Y-100586D02*
X32246Y-99405D01*
X32752Y-100586D02*
X32752Y-99967D01*
X32696Y-99855D01*
X32583Y-99798D01*
X32415Y-99798D01*
X32302Y-99855D01*
X32246Y-99911D01*
X33483Y-100586D02*
X33371Y-100530D01*
X33315Y-100473D01*
X33258Y-100361D01*
X33258Y-100023D01*
X33315Y-99911D01*
X33371Y-99855D01*
X33483Y-99798D01*
X33652Y-99798D01*
X33765Y-99855D01*
X33821Y-99911D01*
X33877Y-100023D01*
X33877Y-100361D01*
X33821Y-100473D01*
X33765Y-100530D01*
X33652Y-100586D01*
X33483Y-100586D01*
X34552Y-100586D02*
X34439Y-100530D01*
X34383Y-100417D01*
X34383Y-99405D01*
X35452Y-100530D02*
X35339Y-100586D01*
X35114Y-100586D01*
X35002Y-100530D01*
X34946Y-100417D01*
X34946Y-99967D01*
X35002Y-99855D01*
X35114Y-99798D01*
X35339Y-99798D01*
X35452Y-99855D01*
X35508Y-99967D01*
X35508Y-100080D01*
X34946Y-100192D01*
X35958Y-100530D02*
X36070Y-100586D01*
X36295Y-100586D01*
X36408Y-100530D01*
X36464Y-100417D01*
X36464Y-100361D01*
X36408Y-100248D01*
X36295Y-100192D01*
X36127Y-100192D01*
X36014Y-100136D01*
X35958Y-100023D01*
X35958Y-99967D01*
X36014Y-99855D01*
X36127Y-99798D01*
X36295Y-99798D01*
X36408Y-99855D01*
X36858Y-101036D02*
X36914Y-100980D01*
X37027Y-100811D01*
X37083Y-100698D01*
X37139Y-100530D01*
X37195Y-100248D01*
X37195Y-100023D01*
X37139Y-99742D01*
X37083Y-99573D01*
X37027Y-99461D01*
X36914Y-99292D01*
X36858Y-99236D01*
X11155Y-101442D02*
X11155Y-101892D01*
X10930Y-101667D02*
X11380Y-101667D01*
X13067Y-102145D02*
X12392Y-102145D01*
X12730Y-102145D02*
X12730Y-100964D01*
X12617Y-101133D01*
X12505Y-101245D01*
X12392Y-101301D01*
X13573Y-102032D02*
X13630Y-102089D01*
X13573Y-102145D01*
X13517Y-102089D01*
X13573Y-102032D01*
X13573Y-102145D01*
X14754Y-102145D02*
X14079Y-102145D01*
X14417Y-102145D02*
X14417Y-100964D01*
X14304Y-101133D01*
X14192Y-101245D01*
X14079Y-101301D01*
X15767Y-101357D02*
X15767Y-102145D01*
X15486Y-100908D02*
X15204Y-101751D01*
X15935Y-101751D01*
X16385Y-102145D02*
X16385Y-101357D01*
X16385Y-101470D02*
X16442Y-101414D01*
X16554Y-101357D01*
X16723Y-101357D01*
X16835Y-101414D01*
X16892Y-101526D01*
X16892Y-102145D01*
X16892Y-101526D02*
X16948Y-101414D01*
X17060Y-101357D01*
X17229Y-101357D01*
X17342Y-101414D01*
X17398Y-101526D01*
X17398Y-102145D01*
X17960Y-102145D02*
X17960Y-101357D01*
X17960Y-101470D02*
X18016Y-101414D01*
X18129Y-101357D01*
X18298Y-101357D01*
X18410Y-101414D01*
X18466Y-101526D01*
X18466Y-102145D01*
X18466Y-101526D02*
X18523Y-101414D01*
X18635Y-101357D01*
X18804Y-101357D01*
X18916Y-101414D01*
X18973Y-101526D01*
X18973Y-102145D01*
X21279Y-100908D02*
X20266Y-102426D01*
X22797Y-100964D02*
X22910Y-100964D01*
X23022Y-101020D01*
X23078Y-101076D01*
X23135Y-101189D01*
X23191Y-101414D01*
X23191Y-101695D01*
X23135Y-101920D01*
X23078Y-102032D01*
X23022Y-102089D01*
X22910Y-102145D01*
X22797Y-102145D01*
X22685Y-102089D01*
X22628Y-102032D01*
X22572Y-101920D01*
X22516Y-101695D01*
X22516Y-101414D01*
X22572Y-101189D01*
X22628Y-101076D01*
X22685Y-101020D01*
X22797Y-100964D01*
X23697Y-102032D02*
X23753Y-102089D01*
X23697Y-102145D01*
X23641Y-102089D01*
X23697Y-102032D01*
X23697Y-102145D01*
X24484Y-100964D02*
X24597Y-100964D01*
X24709Y-101020D01*
X24766Y-101076D01*
X24822Y-101189D01*
X24878Y-101414D01*
X24878Y-101695D01*
X24822Y-101920D01*
X24766Y-102032D01*
X24709Y-102089D01*
X24597Y-102145D01*
X24484Y-102145D01*
X24372Y-102089D01*
X24316Y-102032D01*
X24259Y-101920D01*
X24203Y-101695D01*
X24203Y-101414D01*
X24259Y-101189D01*
X24316Y-101076D01*
X24372Y-101020D01*
X24484Y-100964D01*
X25891Y-101357D02*
X25891Y-102145D01*
X25609Y-100908D02*
X25328Y-101751D01*
X26059Y-101751D01*
X27072Y-100964D02*
X26509Y-100964D01*
X26453Y-101526D01*
X26509Y-101470D01*
X26622Y-101414D01*
X26903Y-101414D01*
X27015Y-101470D01*
X27072Y-101526D01*
X27128Y-101639D01*
X27128Y-101920D01*
X27072Y-102032D01*
X27015Y-102089D01*
X26903Y-102145D01*
X26622Y-102145D01*
X26509Y-102089D01*
X26453Y-102032D01*
X27578Y-100964D02*
X27578Y-101189D01*
X28028Y-100964D02*
X28028Y-101189D01*
X29771Y-102595D02*
X29715Y-102539D01*
X29603Y-102370D01*
X29546Y-102257D01*
X29490Y-102089D01*
X29434Y-101807D01*
X29434Y-101582D01*
X29490Y-101301D01*
X29546Y-101133D01*
X29603Y-101020D01*
X29715Y-100851D01*
X29771Y-100795D01*
X30727Y-101357D02*
X30727Y-102145D01*
X30446Y-100908D02*
X30165Y-101751D01*
X30896Y-101751D01*
X32246Y-102145D02*
X32246Y-100964D01*
X32752Y-102145D02*
X32752Y-101526D01*
X32696Y-101414D01*
X32583Y-101357D01*
X32415Y-101357D01*
X32302Y-101414D01*
X32246Y-101470D01*
X33483Y-102145D02*
X33371Y-102089D01*
X33315Y-102032D01*
X33258Y-101920D01*
X33258Y-101582D01*
X33315Y-101470D01*
X33371Y-101414D01*
X33483Y-101357D01*
X33652Y-101357D01*
X33765Y-101414D01*
X33821Y-101470D01*
X33877Y-101582D01*
X33877Y-101920D01*
X33821Y-102032D01*
X33765Y-102089D01*
X33652Y-102145D01*
X33483Y-102145D01*
X34552Y-102145D02*
X34439Y-102089D01*
X34383Y-101976D01*
X34383Y-100964D01*
X35452Y-102089D02*
X35339Y-102145D01*
X35114Y-102145D01*
X35002Y-102089D01*
X34946Y-101976D01*
X34946Y-101526D01*
X35002Y-101414D01*
X35114Y-101357D01*
X35339Y-101357D01*
X35452Y-101414D01*
X35508Y-101526D01*
X35508Y-101639D01*
X34946Y-101751D01*
X35958Y-102089D02*
X36070Y-102145D01*
X36295Y-102145D01*
X36408Y-102089D01*
X36464Y-101976D01*
X36464Y-101920D01*
X36408Y-101807D01*
X36295Y-101751D01*
X36127Y-101751D01*
X36014Y-101695D01*
X35958Y-101582D01*
X35958Y-101526D01*
X36014Y-101414D01*
X36127Y-101357D01*
X36295Y-101357D01*
X36408Y-101414D01*
X36858Y-102595D02*
X36914Y-102539D01*
X37027Y-102370D01*
X37083Y-102257D01*
X37139Y-102089D01*
X37195Y-101807D01*
X37195Y-101582D01*
X37139Y-101301D01*
X37083Y-101133D01*
X37027Y-101020D01*
X36914Y-100851D01*
X36858Y-100795D01*
G54D12*
X11299Y-103421D02*
X11299Y-103031D01*
X10910Y-103031D01*
X10910Y-103421D01*
X11299Y-103421D01*
G54D13*
X13067Y-103704D02*
X12392Y-103704D01*
X12730Y-103704D02*
X12730Y-102523D01*
X12617Y-102692D01*
X12505Y-102804D01*
X12392Y-102860D01*
X13573Y-103591D02*
X13630Y-103648D01*
X13573Y-103704D01*
X13517Y-103648D01*
X13573Y-103591D01*
X13573Y-103704D01*
X14642Y-102917D02*
X14642Y-103704D01*
X14361Y-102467D02*
X14079Y-103310D01*
X14811Y-103310D01*
X15486Y-102523D02*
X15598Y-102523D01*
X15711Y-102579D01*
X15767Y-102635D01*
X15823Y-102748D01*
X15879Y-102973D01*
X15879Y-103254D01*
X15823Y-103479D01*
X15767Y-103591D01*
X15711Y-103648D01*
X15598Y-103704D01*
X15486Y-103704D01*
X15373Y-103648D01*
X15317Y-103591D01*
X15261Y-103479D01*
X15204Y-103254D01*
X15204Y-102973D01*
X15261Y-102748D01*
X15317Y-102635D01*
X15373Y-102579D01*
X15486Y-102523D01*
X16385Y-103704D02*
X16385Y-102917D01*
X16385Y-103029D02*
X16442Y-102973D01*
X16554Y-102917D01*
X16723Y-102917D01*
X16835Y-102973D01*
X16892Y-103085D01*
X16892Y-103704D01*
X16892Y-103085D02*
X16948Y-102973D01*
X17060Y-102917D01*
X17229Y-102917D01*
X17342Y-102973D01*
X17398Y-103085D01*
X17398Y-103704D01*
X17960Y-103704D02*
X17960Y-102917D01*
X17960Y-103029D02*
X18016Y-102973D01*
X18129Y-102917D01*
X18298Y-102917D01*
X18410Y-102973D01*
X18466Y-103085D01*
X18466Y-103704D01*
X18466Y-103085D02*
X18523Y-102973D01*
X18635Y-102917D01*
X18804Y-102917D01*
X18916Y-102973D01*
X18973Y-103085D01*
X18973Y-103704D01*
X21279Y-102467D02*
X20266Y-103985D01*
X22797Y-102523D02*
X22910Y-102523D01*
X23022Y-102579D01*
X23078Y-102635D01*
X23135Y-102748D01*
X23191Y-102973D01*
X23191Y-103254D01*
X23135Y-103479D01*
X23078Y-103591D01*
X23022Y-103648D01*
X22910Y-103704D01*
X22797Y-103704D01*
X22685Y-103648D01*
X22628Y-103591D01*
X22572Y-103479D01*
X22516Y-103254D01*
X22516Y-102973D01*
X22572Y-102748D01*
X22628Y-102635D01*
X22685Y-102579D01*
X22797Y-102523D01*
X23697Y-103591D02*
X23753Y-103648D01*
X23697Y-103704D01*
X23641Y-103648D01*
X23697Y-103591D01*
X23697Y-103704D01*
X24484Y-102523D02*
X24597Y-102523D01*
X24709Y-102579D01*
X24766Y-102635D01*
X24822Y-102748D01*
X24878Y-102973D01*
X24878Y-103254D01*
X24822Y-103479D01*
X24766Y-103591D01*
X24709Y-103648D01*
X24597Y-103704D01*
X24484Y-103704D01*
X24372Y-103648D01*
X24316Y-103591D01*
X24259Y-103479D01*
X24203Y-103254D01*
X24203Y-102973D01*
X24259Y-102748D01*
X24316Y-102635D01*
X24372Y-102579D01*
X24484Y-102523D01*
X25947Y-102523D02*
X25384Y-102523D01*
X25328Y-103085D01*
X25384Y-103029D01*
X25497Y-102973D01*
X25778Y-102973D01*
X25891Y-103029D01*
X25947Y-103085D01*
X26003Y-103198D01*
X26003Y-103479D01*
X25947Y-103591D01*
X25891Y-103648D01*
X25778Y-103704D01*
X25497Y-103704D01*
X25384Y-103648D01*
X25328Y-103591D01*
X27072Y-102523D02*
X26509Y-102523D01*
X26453Y-103085D01*
X26509Y-103029D01*
X26622Y-102973D01*
X26903Y-102973D01*
X27015Y-103029D01*
X27072Y-103085D01*
X27128Y-103198D01*
X27128Y-103479D01*
X27072Y-103591D01*
X27015Y-103648D01*
X26903Y-103704D01*
X26622Y-103704D01*
X26509Y-103648D01*
X26453Y-103591D01*
X27578Y-102523D02*
X27578Y-102748D01*
X28028Y-102523D02*
X28028Y-102748D01*
X29771Y-104154D02*
X29715Y-104098D01*
X29603Y-103929D01*
X29546Y-103816D01*
X29490Y-103648D01*
X29434Y-103366D01*
X29434Y-103142D01*
X29490Y-102860D01*
X29546Y-102692D01*
X29603Y-102579D01*
X29715Y-102410D01*
X29771Y-102354D01*
X30840Y-103704D02*
X30165Y-103704D01*
X30502Y-103704D02*
X30502Y-102523D01*
X30390Y-102692D01*
X30277Y-102804D01*
X30165Y-102860D01*
X31571Y-102523D02*
X31684Y-102523D01*
X31796Y-102579D01*
X31852Y-102635D01*
X31908Y-102748D01*
X31965Y-102973D01*
X31965Y-103254D01*
X31908Y-103479D01*
X31852Y-103591D01*
X31796Y-103648D01*
X31684Y-103704D01*
X31571Y-103704D01*
X31459Y-103648D01*
X31402Y-103591D01*
X31346Y-103479D01*
X31290Y-103254D01*
X31290Y-102973D01*
X31346Y-102748D01*
X31402Y-102635D01*
X31459Y-102579D01*
X31571Y-102523D01*
X33371Y-103704D02*
X33371Y-102523D01*
X33877Y-103704D02*
X33877Y-103085D01*
X33821Y-102973D01*
X33708Y-102917D01*
X33540Y-102917D01*
X33427Y-102973D01*
X33371Y-103029D01*
X34608Y-103704D02*
X34496Y-103648D01*
X34439Y-103591D01*
X34383Y-103479D01*
X34383Y-103142D01*
X34439Y-103029D01*
X34496Y-102973D01*
X34608Y-102917D01*
X34777Y-102917D01*
X34889Y-102973D01*
X34946Y-103029D01*
X35002Y-103142D01*
X35002Y-103479D01*
X34946Y-103591D01*
X34889Y-103648D01*
X34777Y-103704D01*
X34608Y-103704D01*
X35677Y-103704D02*
X35564Y-103648D01*
X35508Y-103535D01*
X35508Y-102523D01*
X36577Y-103648D02*
X36464Y-103704D01*
X36239Y-103704D01*
X36127Y-103648D01*
X36070Y-103535D01*
X36070Y-103085D01*
X36127Y-102973D01*
X36239Y-102917D01*
X36464Y-102917D01*
X36577Y-102973D01*
X36633Y-103085D01*
X36633Y-103198D01*
X36070Y-103310D01*
X37083Y-103648D02*
X37195Y-103704D01*
X37420Y-103704D01*
X37533Y-103648D01*
X37589Y-103535D01*
X37589Y-103479D01*
X37533Y-103366D01*
X37420Y-103310D01*
X37252Y-103310D01*
X37139Y-103254D01*
X37083Y-103142D01*
X37083Y-103085D01*
X37139Y-102973D01*
X37252Y-102917D01*
X37420Y-102917D01*
X37533Y-102973D01*
X37983Y-104154D02*
X38039Y-104098D01*
X38151Y-103929D01*
X38208Y-103816D01*
X38264Y-103648D01*
X38320Y-103366D01*
X38320Y-103142D01*
X38264Y-102860D01*
X38208Y-102692D01*
X38151Y-102579D01*
X38039Y-102410D01*
X37983Y-102354D01*
G54D12*
X10592Y-105572D02*
X11380Y-104785D01*
X10592Y-103998D01*
X9805Y-104785D01*
X10592Y-105572D01*
G54D13*
X12955Y-104476D02*
X12955Y-105263D01*
X12673Y-104026D02*
X12392Y-104869D01*
X13123Y-104869D01*
X13573Y-105151D02*
X13630Y-105207D01*
X13573Y-105263D01*
X13517Y-105207D01*
X13573Y-105151D01*
X13573Y-105263D01*
X14361Y-104082D02*
X14473Y-104082D01*
X14586Y-104138D01*
X14642Y-104194D01*
X14698Y-104307D01*
X14754Y-104532D01*
X14754Y-104813D01*
X14698Y-105038D01*
X14642Y-105151D01*
X14586Y-105207D01*
X14473Y-105263D01*
X14361Y-105263D01*
X14248Y-105207D01*
X14192Y-105151D01*
X14136Y-105038D01*
X14079Y-104813D01*
X14079Y-104532D01*
X14136Y-104307D01*
X14192Y-104194D01*
X14248Y-104138D01*
X14361Y-104082D01*
X15486Y-104082D02*
X15598Y-104082D01*
X15711Y-104138D01*
X15767Y-104194D01*
X15823Y-104307D01*
X15879Y-104532D01*
X15879Y-104813D01*
X15823Y-105038D01*
X15767Y-105151D01*
X15711Y-105207D01*
X15598Y-105263D01*
X15486Y-105263D01*
X15373Y-105207D01*
X15317Y-105151D01*
X15261Y-105038D01*
X15204Y-104813D01*
X15204Y-104532D01*
X15261Y-104307D01*
X15317Y-104194D01*
X15373Y-104138D01*
X15486Y-104082D01*
X16385Y-105263D02*
X16385Y-104476D01*
X16385Y-104588D02*
X16442Y-104532D01*
X16554Y-104476D01*
X16723Y-104476D01*
X16835Y-104532D01*
X16892Y-104644D01*
X16892Y-105263D01*
X16892Y-104644D02*
X16948Y-104532D01*
X17060Y-104476D01*
X17229Y-104476D01*
X17342Y-104532D01*
X17398Y-104644D01*
X17398Y-105263D01*
X17960Y-105263D02*
X17960Y-104476D01*
X17960Y-104588D02*
X18016Y-104532D01*
X18129Y-104476D01*
X18298Y-104476D01*
X18410Y-104532D01*
X18466Y-104644D01*
X18466Y-105263D01*
X18466Y-104644D02*
X18523Y-104532D01*
X18635Y-104476D01*
X18804Y-104476D01*
X18916Y-104532D01*
X18973Y-104644D01*
X18973Y-105263D01*
X21279Y-104026D02*
X20266Y-105544D01*
X22797Y-104082D02*
X22910Y-104082D01*
X23022Y-104138D01*
X23078Y-104194D01*
X23135Y-104307D01*
X23191Y-104532D01*
X23191Y-104813D01*
X23135Y-105038D01*
X23078Y-105151D01*
X23022Y-105207D01*
X22910Y-105263D01*
X22797Y-105263D01*
X22685Y-105207D01*
X22628Y-105151D01*
X22572Y-105038D01*
X22516Y-104813D01*
X22516Y-104532D01*
X22572Y-104307D01*
X22628Y-104194D01*
X22685Y-104138D01*
X22797Y-104082D01*
X23697Y-105151D02*
X23753Y-105207D01*
X23697Y-105263D01*
X23641Y-105207D01*
X23697Y-105151D01*
X23697Y-105263D01*
X24878Y-105263D02*
X24203Y-105263D01*
X24541Y-105263D02*
X24541Y-104082D01*
X24428Y-104251D01*
X24316Y-104363D01*
X24203Y-104419D01*
X25947Y-104082D02*
X25384Y-104082D01*
X25328Y-104644D01*
X25384Y-104588D01*
X25497Y-104532D01*
X25778Y-104532D01*
X25891Y-104588D01*
X25947Y-104644D01*
X26003Y-104757D01*
X26003Y-105038D01*
X25947Y-105151D01*
X25891Y-105207D01*
X25778Y-105263D01*
X25497Y-105263D01*
X25384Y-105207D01*
X25328Y-105151D01*
X26397Y-104082D02*
X27184Y-104082D01*
X26678Y-105263D01*
X27578Y-104082D02*
X27578Y-104307D01*
X28028Y-104082D02*
X28028Y-104307D01*
X29771Y-105713D02*
X29715Y-105657D01*
X29603Y-105488D01*
X29546Y-105375D01*
X29490Y-105207D01*
X29434Y-104926D01*
X29434Y-104701D01*
X29490Y-104419D01*
X29546Y-104251D01*
X29603Y-104138D01*
X29715Y-103969D01*
X29771Y-103913D01*
X30109Y-104082D02*
X30840Y-104082D01*
X30446Y-104532D01*
X30615Y-104532D01*
X30727Y-104588D01*
X30784Y-104644D01*
X30840Y-104757D01*
X30840Y-105038D01*
X30784Y-105151D01*
X30727Y-105207D01*
X30615Y-105263D01*
X30277Y-105263D01*
X30165Y-105207D01*
X30109Y-105151D01*
X32246Y-105263D02*
X32246Y-104082D01*
X32752Y-105263D02*
X32752Y-104644D01*
X32696Y-104532D01*
X32583Y-104476D01*
X32415Y-104476D01*
X32302Y-104532D01*
X32246Y-104588D01*
X33483Y-105263D02*
X33371Y-105207D01*
X33315Y-105151D01*
X33258Y-105038D01*
X33258Y-104701D01*
X33315Y-104588D01*
X33371Y-104532D01*
X33483Y-104476D01*
X33652Y-104476D01*
X33765Y-104532D01*
X33821Y-104588D01*
X33877Y-104701D01*
X33877Y-105038D01*
X33821Y-105151D01*
X33765Y-105207D01*
X33652Y-105263D01*
X33483Y-105263D01*
X34552Y-105263D02*
X34439Y-105207D01*
X34383Y-105094D01*
X34383Y-104082D01*
X35452Y-105207D02*
X35339Y-105263D01*
X35114Y-105263D01*
X35002Y-105207D01*
X34946Y-105094D01*
X34946Y-104644D01*
X35002Y-104532D01*
X35114Y-104476D01*
X35339Y-104476D01*
X35452Y-104532D01*
X35508Y-104644D01*
X35508Y-104757D01*
X34946Y-104869D01*
X35958Y-105207D02*
X36070Y-105263D01*
X36295Y-105263D01*
X36408Y-105207D01*
X36464Y-105094D01*
X36464Y-105038D01*
X36408Y-104926D01*
X36295Y-104869D01*
X36127Y-104869D01*
X36014Y-104813D01*
X35958Y-104701D01*
X35958Y-104644D01*
X36014Y-104532D01*
X36127Y-104476D01*
X36295Y-104476D01*
X36408Y-104532D01*
X36858Y-105713D02*
X36914Y-105657D01*
X37027Y-105488D01*
X37083Y-105375D01*
X37139Y-105207D01*
X37195Y-104926D01*
X37195Y-104701D01*
X37139Y-104419D01*
X37083Y-104251D01*
X37027Y-104138D01*
X36914Y-103969D01*
X36858Y-103913D01*
X9786Y-106075D02*
X11380Y-107668D01*
X11380Y-106075D02*
X9786Y-107668D01*
G54D12*
X11380Y-106872D02*
G75*
G03X11380Y-106872I-796J0D01*
G74*
G01*
G54D13*
X12955Y-106562D02*
X12955Y-107350D01*
X12673Y-106112D02*
X12392Y-106956D01*
X13123Y-106956D01*
X13573Y-107237D02*
X13630Y-107293D01*
X13573Y-107350D01*
X13517Y-107293D01*
X13573Y-107237D01*
X13573Y-107350D01*
X14361Y-106169D02*
X14473Y-106169D01*
X14586Y-106225D01*
X14642Y-106281D01*
X14698Y-106393D01*
X14754Y-106618D01*
X14754Y-106900D01*
X14698Y-107125D01*
X14642Y-107237D01*
X14586Y-107293D01*
X14473Y-107350D01*
X14361Y-107350D01*
X14248Y-107293D01*
X14192Y-107237D01*
X14136Y-107125D01*
X14079Y-106900D01*
X14079Y-106618D01*
X14136Y-106393D01*
X14192Y-106281D01*
X14248Y-106225D01*
X14361Y-106169D01*
X15823Y-106169D02*
X15261Y-106169D01*
X15204Y-106731D01*
X15261Y-106675D01*
X15373Y-106618D01*
X15654Y-106618D01*
X15767Y-106675D01*
X15823Y-106731D01*
X15879Y-106843D01*
X15879Y-107125D01*
X15823Y-107237D01*
X15767Y-107293D01*
X15654Y-107350D01*
X15373Y-107350D01*
X15261Y-107293D01*
X15204Y-107237D01*
X16385Y-107350D02*
X16385Y-106562D01*
X16385Y-106675D02*
X16442Y-106618D01*
X16554Y-106562D01*
X16723Y-106562D01*
X16835Y-106618D01*
X16892Y-106731D01*
X16892Y-107350D01*
X16892Y-106731D02*
X16948Y-106618D01*
X17060Y-106562D01*
X17229Y-106562D01*
X17342Y-106618D01*
X17398Y-106731D01*
X17398Y-107350D01*
X17960Y-107350D02*
X17960Y-106562D01*
X17960Y-106675D02*
X18016Y-106618D01*
X18129Y-106562D01*
X18298Y-106562D01*
X18410Y-106618D01*
X18466Y-106731D01*
X18466Y-107350D01*
X18466Y-106731D02*
X18523Y-106618D01*
X18635Y-106562D01*
X18804Y-106562D01*
X18916Y-106618D01*
X18973Y-106731D01*
X18973Y-107350D01*
X21279Y-106112D02*
X20266Y-107631D01*
X22797Y-106169D02*
X22910Y-106169D01*
X23022Y-106225D01*
X23078Y-106281D01*
X23135Y-106393D01*
X23191Y-106618D01*
X23191Y-106900D01*
X23135Y-107125D01*
X23078Y-107237D01*
X23022Y-107293D01*
X22910Y-107350D01*
X22797Y-107350D01*
X22685Y-107293D01*
X22628Y-107237D01*
X22572Y-107125D01*
X22516Y-106900D01*
X22516Y-106618D01*
X22572Y-106393D01*
X22628Y-106281D01*
X22685Y-106225D01*
X22797Y-106169D01*
X23697Y-107237D02*
X23753Y-107293D01*
X23697Y-107350D01*
X23641Y-107293D01*
X23697Y-107237D01*
X23697Y-107350D01*
X24878Y-107350D02*
X24203Y-107350D01*
X24541Y-107350D02*
X24541Y-106169D01*
X24428Y-106337D01*
X24316Y-106450D01*
X24203Y-106506D01*
X25947Y-106169D02*
X25384Y-106169D01*
X25328Y-106731D01*
X25384Y-106675D01*
X25497Y-106618D01*
X25778Y-106618D01*
X25891Y-106675D01*
X25947Y-106731D01*
X26003Y-106843D01*
X26003Y-107125D01*
X25947Y-107237D01*
X25891Y-107293D01*
X25778Y-107350D01*
X25497Y-107350D01*
X25384Y-107293D01*
X25328Y-107237D01*
X26565Y-107350D02*
X26790Y-107350D01*
X26903Y-107293D01*
X26959Y-107237D01*
X27072Y-107068D01*
X27128Y-106843D01*
X27128Y-106393D01*
X27072Y-106281D01*
X27015Y-106225D01*
X26903Y-106169D01*
X26678Y-106169D01*
X26565Y-106225D01*
X26509Y-106281D01*
X26453Y-106393D01*
X26453Y-106675D01*
X26509Y-106787D01*
X26565Y-106843D01*
X26678Y-106900D01*
X26903Y-106900D01*
X27015Y-106843D01*
X27072Y-106787D01*
X27128Y-106675D01*
X27578Y-106169D02*
X27578Y-106393D01*
X28028Y-106169D02*
X28028Y-106393D01*
X29771Y-107800D02*
X29715Y-107743D01*
X29603Y-107575D01*
X29546Y-107462D01*
X29490Y-107293D01*
X29434Y-107012D01*
X29434Y-106787D01*
X29490Y-106506D01*
X29546Y-106337D01*
X29603Y-106225D01*
X29715Y-106056D01*
X29771Y-106000D01*
X30840Y-107350D02*
X30165Y-107350D01*
X30502Y-107350D02*
X30502Y-106169D01*
X30390Y-106337D01*
X30277Y-106450D01*
X30165Y-106506D01*
X32246Y-107350D02*
X32246Y-106169D01*
X32752Y-107350D02*
X32752Y-106731D01*
X32696Y-106618D01*
X32583Y-106562D01*
X32415Y-106562D01*
X32302Y-106618D01*
X32246Y-106675D01*
X33483Y-107350D02*
X33371Y-107293D01*
X33315Y-107237D01*
X33258Y-107125D01*
X33258Y-106787D01*
X33315Y-106675D01*
X33371Y-106618D01*
X33483Y-106562D01*
X33652Y-106562D01*
X33765Y-106618D01*
X33821Y-106675D01*
X33877Y-106787D01*
X33877Y-107125D01*
X33821Y-107237D01*
X33765Y-107293D01*
X33652Y-107350D01*
X33483Y-107350D01*
X34552Y-107350D02*
X34439Y-107293D01*
X34383Y-107181D01*
X34383Y-106169D01*
X35452Y-107293D02*
X35339Y-107350D01*
X35114Y-107350D01*
X35002Y-107293D01*
X34946Y-107181D01*
X34946Y-106731D01*
X35002Y-106618D01*
X35114Y-106562D01*
X35339Y-106562D01*
X35452Y-106618D01*
X35508Y-106731D01*
X35508Y-106843D01*
X34946Y-106956D01*
X35902Y-107800D02*
X35958Y-107743D01*
X36070Y-107575D01*
X36127Y-107462D01*
X36183Y-107293D01*
X36239Y-107012D01*
X36239Y-106787D01*
X36183Y-106506D01*
X36127Y-106337D01*
X36070Y-106225D01*
X35958Y-106056D01*
X35902Y-106000D01*
M02*
