G04 (created by PCBNEW (2013-07-07 BZR 4022)-stable) date 2/5/2016 12:23:49 PM*
%MOIN*%
G04 Gerber Fmt 3.4, Leading zero omitted, Abs format*
%FSLAX34Y34*%
G01*
G70*
G90*
G04 APERTURE LIST*
%ADD10C,0.00590551*%
%ADD11C,0.0787*%
%ADD12C,0.0843701*%
%ADD13C,0.0984252*%
%ADD14C,0.16*%
%ADD15R,0.1181X0.1181*%
%ADD16C,0.1181*%
%ADD17C,0.06*%
G04 APERTURE END LIST*
G54D10*
G54D11*
X14638Y-65977D03*
X13638Y-65977D03*
X18575Y-30702D03*
X17575Y-30702D03*
X18575Y-26765D03*
X17575Y-26765D03*
X16607Y-81725D03*
X15607Y-81725D03*
X16607Y-54166D03*
X15607Y-54166D03*
X18575Y-69914D03*
X17575Y-69914D03*
X18575Y-65977D03*
X17575Y-65977D03*
X18575Y-62040D03*
X17575Y-62040D03*
X18575Y-58103D03*
X17575Y-58103D03*
X14638Y-69914D03*
X13638Y-69914D03*
X18575Y-38576D03*
X17575Y-38576D03*
X14638Y-62040D03*
X13638Y-62040D03*
X14638Y-58103D03*
X13638Y-58103D03*
X47603Y-14454D03*
X47603Y-15454D03*
X23981Y-12485D03*
X23981Y-13485D03*
X20044Y-14454D03*
X20044Y-15454D03*
X31855Y-12485D03*
X31855Y-13485D03*
X35792Y-12485D03*
X35792Y-13485D03*
X39729Y-47761D03*
X39729Y-48761D03*
X20044Y-49729D03*
X20044Y-50729D03*
X47603Y-49729D03*
X47603Y-50729D03*
X43666Y-51698D03*
X43666Y-52698D03*
X39729Y-51698D03*
X39729Y-52698D03*
X35792Y-51698D03*
X35792Y-52698D03*
X31855Y-51698D03*
X31855Y-52698D03*
X31855Y-47761D03*
X31855Y-48761D03*
X35792Y-47761D03*
X35792Y-48761D03*
X18575Y-34639D03*
X17575Y-34639D03*
X43666Y-47761D03*
X43666Y-48761D03*
X14638Y-42552D03*
X13638Y-42552D03*
X18575Y-22828D03*
X17575Y-22828D03*
X16607Y-18891D03*
X15607Y-18891D03*
X14638Y-26765D03*
X13638Y-26765D03*
X14638Y-22828D03*
X13638Y-22828D03*
X14638Y-30702D03*
X13638Y-30702D03*
X27918Y-12485D03*
X27918Y-13485D03*
X31855Y-83194D03*
X31855Y-84194D03*
X50071Y-65977D03*
X49071Y-65977D03*
X50071Y-77788D03*
X49071Y-77788D03*
X54008Y-73851D03*
X53008Y-73851D03*
X54008Y-69914D03*
X53008Y-69914D03*
X54008Y-65977D03*
X53008Y-65977D03*
X43666Y-83194D03*
X43666Y-84194D03*
X39729Y-83194D03*
X39729Y-84194D03*
X35792Y-83194D03*
X35792Y-84194D03*
X35792Y-16422D03*
X35792Y-17422D03*
X31855Y-87131D03*
X31855Y-88131D03*
X35792Y-87131D03*
X35792Y-88131D03*
X39729Y-87131D03*
X39729Y-88131D03*
X43666Y-87131D03*
X43666Y-88131D03*
X20044Y-85162D03*
X20044Y-86162D03*
X47603Y-85162D03*
X47603Y-86162D03*
X54008Y-62040D03*
X53008Y-62040D03*
X54008Y-22828D03*
X53008Y-22828D03*
X50071Y-62040D03*
X49071Y-62040D03*
X31855Y-16422D03*
X31855Y-17422D03*
X27918Y-16422D03*
X27918Y-17422D03*
X23981Y-16422D03*
X23981Y-17422D03*
X50071Y-42552D03*
X49071Y-42552D03*
X50071Y-30702D03*
X49071Y-30702D03*
X50071Y-26765D03*
X49071Y-26765D03*
X50071Y-22828D03*
X49071Y-22828D03*
X52040Y-18891D03*
X51040Y-18891D03*
X54008Y-38576D03*
X53008Y-38576D03*
X54008Y-34639D03*
X53008Y-34639D03*
X54008Y-30702D03*
X53008Y-30702D03*
X54008Y-26765D03*
X53008Y-26765D03*
X54008Y-58103D03*
X53008Y-58103D03*
X52040Y-54166D03*
X51040Y-54166D03*
X50071Y-58103D03*
X49071Y-58103D03*
X59000Y-85500D03*
X59000Y-86500D03*
G54D12*
X47850Y-88100D03*
X53850Y-88100D03*
G54D11*
X14638Y-73851D03*
X13638Y-73851D03*
X18575Y-73851D03*
X17575Y-73851D03*
X18575Y-42552D03*
X17575Y-42552D03*
X14638Y-34560D03*
X13638Y-34560D03*
X27918Y-51698D03*
X27918Y-52698D03*
X27918Y-47761D03*
X27918Y-48761D03*
X39729Y-16422D03*
X39729Y-17422D03*
X39729Y-12485D03*
X39729Y-13485D03*
X50071Y-34521D03*
X49071Y-34521D03*
X54008Y-42592D03*
X53008Y-42592D03*
X54008Y-77788D03*
X53008Y-77788D03*
X50071Y-69914D03*
X49071Y-69914D03*
X27918Y-87131D03*
X27918Y-88131D03*
X27918Y-83194D03*
X27918Y-84194D03*
X14638Y-77788D03*
X13638Y-77788D03*
X18575Y-77788D03*
X17575Y-77788D03*
X16607Y-46489D03*
X15607Y-46489D03*
X14638Y-38615D03*
X13638Y-38615D03*
X23981Y-47761D03*
X23981Y-48761D03*
X23981Y-51698D03*
X23981Y-52698D03*
X43666Y-16422D03*
X43666Y-17422D03*
X43666Y-12485D03*
X43666Y-13485D03*
X52040Y-46292D03*
X51040Y-46292D03*
X50071Y-38537D03*
X49071Y-38537D03*
X52040Y-81725D03*
X51040Y-81725D03*
X50071Y-73851D03*
X49071Y-73851D03*
X23981Y-87131D03*
X23981Y-88131D03*
X23981Y-83194D03*
X23981Y-84194D03*
G54D13*
X13850Y-48400D03*
X19850Y-48400D03*
G54D14*
X14000Y-13600D03*
X57850Y-13600D03*
X57850Y-91162D03*
X14000Y-91162D03*
G54D15*
X53475Y-92850D03*
G54D16*
X51475Y-92850D03*
G54D15*
X41275Y-93125D03*
G54D16*
X35275Y-93125D03*
X33275Y-93125D03*
X31275Y-93125D03*
X29275Y-93125D03*
X27275Y-93125D03*
X37275Y-93125D03*
X39275Y-93125D03*
G54D17*
X46175Y-93275D03*
X46175Y-88275D03*
M02*
