G04 (created by PCBNEW (2013-07-07 BZR 4022)-stable) date 2/5/2016 12:23:49 PM*
%MOIN*%
G04 Gerber Fmt 3.4, Leading zero omitted, Abs format*
%FSLAX34Y34*%
G01*
G70*
G90*
G04 APERTURE LIST*
%ADD10C,0.00590551*%
%ADD11C,0.019685*%
%ADD12C,0.0787*%
%ADD13C,0.0843701*%
%ADD14C,0.0984252*%
%ADD15C,0.16*%
%ADD16R,0.1181X0.1181*%
%ADD17C,0.1181*%
%ADD18C,0.06*%
%ADD19C,0.0393701*%
G04 APERTURE END LIST*
G54D10*
G54D11*
X43180Y-32878D02*
X43180Y-31696D01*
X42617Y-32878D02*
X42617Y-31696D01*
X42336Y-31696D01*
X42167Y-31753D01*
X42055Y-31865D01*
X41998Y-31978D01*
X41942Y-32203D01*
X41942Y-32371D01*
X41998Y-32596D01*
X42055Y-32709D01*
X42167Y-32821D01*
X42336Y-32878D01*
X42617Y-32878D01*
X41436Y-32259D02*
X41042Y-32259D01*
X40874Y-32878D02*
X41436Y-32878D01*
X41436Y-31696D01*
X40874Y-31696D01*
X40142Y-31696D02*
X39917Y-31696D01*
X39805Y-31753D01*
X39693Y-31865D01*
X39636Y-32090D01*
X39636Y-32484D01*
X39693Y-32709D01*
X39805Y-32821D01*
X39917Y-32878D01*
X40142Y-32878D01*
X40255Y-32821D01*
X40367Y-32709D01*
X40424Y-32484D01*
X40424Y-32090D01*
X40367Y-31865D01*
X40255Y-31753D01*
X40142Y-31696D01*
X39130Y-32878D02*
X39130Y-31696D01*
X38455Y-32878D01*
X38455Y-31696D01*
X37893Y-32878D02*
X37893Y-31696D01*
X36655Y-32765D02*
X36712Y-32821D01*
X36880Y-32878D01*
X36993Y-32878D01*
X37162Y-32821D01*
X37274Y-32709D01*
X37330Y-32596D01*
X37387Y-32371D01*
X37387Y-32203D01*
X37330Y-31978D01*
X37274Y-31865D01*
X37162Y-31753D01*
X36993Y-31696D01*
X36880Y-31696D01*
X36712Y-31753D01*
X36655Y-31809D01*
X36205Y-32821D02*
X36037Y-32878D01*
X35756Y-32878D01*
X35643Y-32821D01*
X35587Y-32765D01*
X35531Y-32653D01*
X35531Y-32540D01*
X35587Y-32428D01*
X35643Y-32371D01*
X35756Y-32315D01*
X35980Y-32259D01*
X36093Y-32203D01*
X36149Y-32146D01*
X36205Y-32034D01*
X36205Y-31921D01*
X36149Y-31809D01*
X36093Y-31753D01*
X35980Y-31696D01*
X35699Y-31696D01*
X35531Y-31753D01*
X35306Y-32990D02*
X34406Y-32990D01*
X33956Y-32203D02*
X34068Y-32146D01*
X34124Y-32090D01*
X34181Y-31978D01*
X34181Y-31921D01*
X34124Y-31809D01*
X34068Y-31753D01*
X33956Y-31696D01*
X33731Y-31696D01*
X33618Y-31753D01*
X33562Y-31809D01*
X33506Y-31921D01*
X33506Y-31978D01*
X33562Y-32090D01*
X33618Y-32146D01*
X33731Y-32203D01*
X33956Y-32203D01*
X34068Y-32259D01*
X34124Y-32315D01*
X34181Y-32428D01*
X34181Y-32653D01*
X34124Y-32765D01*
X34068Y-32821D01*
X33956Y-32878D01*
X33731Y-32878D01*
X33618Y-32821D01*
X33562Y-32765D01*
X33506Y-32653D01*
X33506Y-32428D01*
X33562Y-32315D01*
X33618Y-32259D01*
X33731Y-32203D01*
X33000Y-32878D02*
X33000Y-31696D01*
X32437Y-32878D02*
X32437Y-31696D01*
X31762Y-32878D01*
X31762Y-31696D01*
X30525Y-32765D02*
X30581Y-32821D01*
X30750Y-32878D01*
X30862Y-32878D01*
X31031Y-32821D01*
X31144Y-32709D01*
X31200Y-32596D01*
X31256Y-32371D01*
X31256Y-32203D01*
X31200Y-31978D01*
X31144Y-31865D01*
X31031Y-31753D01*
X30862Y-31696D01*
X30750Y-31696D01*
X30581Y-31753D01*
X30525Y-31809D01*
X30019Y-32878D02*
X30019Y-31696D01*
X30019Y-32259D02*
X29344Y-32259D01*
X29344Y-32878D02*
X29344Y-31696D01*
X29063Y-32990D02*
X28163Y-32990D01*
X28050Y-31696D02*
X27657Y-32878D01*
X27263Y-31696D01*
X26250Y-32878D02*
X26925Y-32878D01*
X26588Y-32878D02*
X26588Y-31696D01*
X26700Y-31865D01*
X26813Y-31978D01*
X26925Y-32034D01*
X25744Y-32765D02*
X25688Y-32821D01*
X25744Y-32878D01*
X25801Y-32821D01*
X25744Y-32765D01*
X25744Y-32878D01*
X24957Y-31696D02*
X24844Y-31696D01*
X24732Y-31753D01*
X24676Y-31809D01*
X24619Y-31921D01*
X24563Y-32146D01*
X24563Y-32428D01*
X24619Y-32653D01*
X24676Y-32765D01*
X24732Y-32821D01*
X24844Y-32878D01*
X24957Y-32878D01*
X25069Y-32821D01*
X25126Y-32765D01*
X25182Y-32653D01*
X25238Y-32428D01*
X25238Y-32146D01*
X25182Y-31921D01*
X25126Y-31809D01*
X25069Y-31753D01*
X24957Y-31696D01*
G54D12*
X14638Y-65977D03*
X13638Y-65977D03*
X18575Y-30702D03*
X17575Y-30702D03*
X18575Y-26765D03*
X17575Y-26765D03*
X16607Y-81725D03*
X15607Y-81725D03*
X16607Y-54166D03*
X15607Y-54166D03*
X18575Y-69914D03*
X17575Y-69914D03*
X18575Y-65977D03*
X17575Y-65977D03*
X18575Y-62040D03*
X17575Y-62040D03*
X18575Y-58103D03*
X17575Y-58103D03*
X14638Y-69914D03*
X13638Y-69914D03*
X18575Y-38576D03*
X17575Y-38576D03*
X14638Y-62040D03*
X13638Y-62040D03*
X14638Y-58103D03*
X13638Y-58103D03*
X47603Y-14454D03*
X47603Y-15454D03*
X23981Y-12485D03*
X23981Y-13485D03*
X20044Y-14454D03*
X20044Y-15454D03*
X31855Y-12485D03*
X31855Y-13485D03*
X35792Y-12485D03*
X35792Y-13485D03*
X39729Y-47761D03*
X39729Y-48761D03*
X20044Y-49729D03*
X20044Y-50729D03*
X47603Y-49729D03*
X47603Y-50729D03*
X43666Y-51698D03*
X43666Y-52698D03*
X39729Y-51698D03*
X39729Y-52698D03*
X35792Y-51698D03*
X35792Y-52698D03*
X31855Y-51698D03*
X31855Y-52698D03*
X31855Y-47761D03*
X31855Y-48761D03*
X35792Y-47761D03*
X35792Y-48761D03*
X18575Y-34639D03*
X17575Y-34639D03*
X43666Y-47761D03*
X43666Y-48761D03*
X14638Y-42552D03*
X13638Y-42552D03*
X18575Y-22828D03*
X17575Y-22828D03*
X16607Y-18891D03*
X15607Y-18891D03*
X14638Y-26765D03*
X13638Y-26765D03*
X14638Y-22828D03*
X13638Y-22828D03*
X14638Y-30702D03*
X13638Y-30702D03*
X27918Y-12485D03*
X27918Y-13485D03*
X31855Y-83194D03*
X31855Y-84194D03*
X50071Y-65977D03*
X49071Y-65977D03*
X50071Y-77788D03*
X49071Y-77788D03*
X54008Y-73851D03*
X53008Y-73851D03*
X54008Y-69914D03*
X53008Y-69914D03*
X54008Y-65977D03*
X53008Y-65977D03*
X43666Y-83194D03*
X43666Y-84194D03*
X39729Y-83194D03*
X39729Y-84194D03*
X35792Y-83194D03*
X35792Y-84194D03*
X35792Y-16422D03*
X35792Y-17422D03*
X31855Y-87131D03*
X31855Y-88131D03*
X35792Y-87131D03*
X35792Y-88131D03*
X39729Y-87131D03*
X39729Y-88131D03*
X43666Y-87131D03*
X43666Y-88131D03*
X20044Y-85162D03*
X20044Y-86162D03*
X47603Y-85162D03*
X47603Y-86162D03*
X54008Y-62040D03*
X53008Y-62040D03*
X54008Y-22828D03*
X53008Y-22828D03*
X50071Y-62040D03*
X49071Y-62040D03*
X31855Y-16422D03*
X31855Y-17422D03*
X27918Y-16422D03*
X27918Y-17422D03*
X23981Y-16422D03*
X23981Y-17422D03*
X50071Y-42552D03*
X49071Y-42552D03*
X50071Y-30702D03*
X49071Y-30702D03*
X50071Y-26765D03*
X49071Y-26765D03*
X50071Y-22828D03*
X49071Y-22828D03*
X52040Y-18891D03*
X51040Y-18891D03*
X54008Y-38576D03*
X53008Y-38576D03*
X54008Y-34639D03*
X53008Y-34639D03*
X54008Y-30702D03*
X53008Y-30702D03*
X54008Y-26765D03*
X53008Y-26765D03*
X54008Y-58103D03*
X53008Y-58103D03*
X52040Y-54166D03*
X51040Y-54166D03*
X50071Y-58103D03*
X49071Y-58103D03*
X59000Y-85500D03*
X59000Y-86500D03*
G54D13*
X47850Y-88100D03*
X53850Y-88100D03*
G54D12*
X14638Y-73851D03*
X13638Y-73851D03*
X18575Y-73851D03*
X17575Y-73851D03*
X18575Y-42552D03*
X17575Y-42552D03*
X14638Y-34560D03*
X13638Y-34560D03*
X27918Y-51698D03*
X27918Y-52698D03*
X27918Y-47761D03*
X27918Y-48761D03*
X39729Y-16422D03*
X39729Y-17422D03*
X39729Y-12485D03*
X39729Y-13485D03*
X50071Y-34521D03*
X49071Y-34521D03*
X54008Y-42592D03*
X53008Y-42592D03*
X54008Y-77788D03*
X53008Y-77788D03*
X50071Y-69914D03*
X49071Y-69914D03*
X27918Y-87131D03*
X27918Y-88131D03*
X27918Y-83194D03*
X27918Y-84194D03*
X14638Y-77788D03*
X13638Y-77788D03*
X18575Y-77788D03*
X17575Y-77788D03*
X16607Y-46489D03*
X15607Y-46489D03*
X14638Y-38615D03*
X13638Y-38615D03*
X23981Y-47761D03*
X23981Y-48761D03*
X23981Y-51698D03*
X23981Y-52698D03*
X43666Y-16422D03*
X43666Y-17422D03*
X43666Y-12485D03*
X43666Y-13485D03*
X52040Y-46292D03*
X51040Y-46292D03*
X50071Y-38537D03*
X49071Y-38537D03*
X52040Y-81725D03*
X51040Y-81725D03*
X50071Y-73851D03*
X49071Y-73851D03*
X23981Y-87131D03*
X23981Y-88131D03*
X23981Y-83194D03*
X23981Y-84194D03*
G54D14*
X13850Y-48400D03*
X19850Y-48400D03*
G54D15*
X14000Y-13600D03*
X57850Y-13600D03*
X57850Y-91162D03*
X14000Y-91162D03*
G54D16*
X53475Y-92850D03*
G54D17*
X51475Y-92850D03*
G54D16*
X41275Y-93125D03*
G54D17*
X35275Y-93125D03*
X33275Y-93125D03*
X31275Y-93125D03*
X29275Y-93125D03*
X27275Y-93125D03*
X37275Y-93125D03*
X39275Y-93125D03*
G54D18*
X46175Y-93275D03*
X46175Y-88275D03*
G54D19*
X18067Y-14454D02*
X20044Y-14454D01*
X20044Y-14454D02*
X20044Y-13655D01*
X20044Y-13655D02*
X21214Y-12485D01*
X21214Y-12485D02*
X23981Y-12485D01*
X16607Y-15914D02*
X18067Y-14454D01*
X46200Y-88250D02*
X47700Y-88250D01*
X47700Y-88250D02*
X47850Y-88100D01*
X47850Y-88100D02*
X48300Y-88100D01*
X48412Y-85162D02*
X47603Y-85162D01*
X49200Y-85950D02*
X48412Y-85162D01*
X49200Y-87200D02*
X49200Y-85950D01*
X48300Y-88100D02*
X49200Y-87200D01*
X43666Y-83194D02*
X43666Y-78516D01*
X23253Y-58103D02*
X18575Y-58103D01*
X43666Y-78516D02*
X23253Y-58103D01*
X47603Y-85162D02*
X47603Y-54553D01*
X44748Y-51698D02*
X43666Y-51698D01*
X47603Y-54553D02*
X44748Y-51698D01*
X16607Y-18891D02*
X16791Y-18891D01*
X16607Y-49892D02*
X16607Y-54166D01*
X19750Y-46750D02*
X16607Y-49892D01*
X19750Y-21850D02*
X19750Y-46750D01*
X16791Y-18891D02*
X19750Y-21850D01*
X16607Y-18891D02*
X16607Y-20757D01*
X18575Y-22725D02*
X18575Y-22828D01*
X16607Y-20757D02*
X18575Y-22725D01*
X16607Y-18891D02*
X16607Y-18686D01*
X52040Y-18387D02*
X52040Y-18891D01*
X51288Y-17635D02*
X52040Y-18387D01*
X50406Y-17635D02*
X51288Y-17635D01*
X49284Y-18757D02*
X50406Y-17635D01*
X19800Y-18757D02*
X49284Y-18757D01*
X18918Y-17875D02*
X19800Y-18757D01*
X17418Y-17875D02*
X18918Y-17875D01*
X16607Y-18686D02*
X17418Y-17875D01*
X47603Y-49729D02*
X46996Y-49729D01*
X52040Y-53564D02*
X52040Y-54166D01*
X51307Y-52832D02*
X52040Y-53564D01*
X47500Y-52832D02*
X51307Y-52832D01*
X46492Y-51824D02*
X47500Y-52832D01*
X46492Y-50233D02*
X46492Y-51824D01*
X46996Y-49729D02*
X46492Y-50233D01*
X43666Y-51698D02*
X43666Y-50662D01*
X44599Y-49729D02*
X47603Y-49729D01*
X43666Y-50662D02*
X44599Y-49729D01*
X16607Y-18891D02*
X16607Y-15914D01*
X52040Y-18891D02*
X52991Y-18891D01*
X52991Y-18891D02*
X54008Y-19908D01*
X54008Y-19908D02*
X54008Y-22828D01*
X52040Y-54166D02*
X53266Y-54166D01*
X54008Y-54908D02*
X54008Y-58103D01*
X53266Y-54166D02*
X54008Y-54908D01*
X43666Y-83194D02*
X45634Y-83194D01*
X45634Y-83194D02*
X47603Y-85162D01*
X16607Y-54166D02*
X17666Y-54166D01*
X18575Y-55075D02*
X18575Y-58103D01*
X17666Y-54166D02*
X18575Y-55075D01*
X51475Y-92850D02*
X53475Y-92850D01*
X46175Y-93275D02*
X51050Y-93275D01*
X51050Y-93275D02*
X51475Y-92850D01*
X27275Y-93125D02*
X27275Y-93525D01*
X55550Y-89950D02*
X59000Y-86500D01*
X52325Y-89950D02*
X55550Y-89950D01*
X49950Y-92325D02*
X52325Y-89950D01*
X44600Y-92325D02*
X49950Y-92325D01*
X42650Y-94275D02*
X44600Y-92325D01*
X28025Y-94275D02*
X42650Y-94275D01*
X27275Y-93525D02*
X28025Y-94275D01*
X23981Y-48761D02*
X23981Y-49918D01*
X23170Y-50729D02*
X20044Y-50729D01*
X23981Y-49918D02*
X23170Y-50729D01*
X19850Y-48400D02*
X21700Y-48400D01*
X22061Y-48761D02*
X23981Y-48761D01*
X21700Y-48400D02*
X22061Y-48761D01*
X41275Y-93125D02*
X41275Y-92000D01*
X51229Y-15454D02*
X47603Y-15454D01*
X55750Y-19975D02*
X51229Y-15454D01*
X55750Y-84850D02*
X55750Y-19975D01*
X49325Y-91275D02*
X55750Y-84850D01*
X42000Y-91275D02*
X49325Y-91275D01*
X41275Y-92000D02*
X42000Y-91275D01*
X43666Y-17422D02*
X45634Y-17422D01*
X45634Y-17422D02*
X47603Y-15454D01*
X39275Y-93125D02*
X39275Y-91375D01*
X51040Y-50140D02*
X51040Y-46292D01*
X54950Y-54050D02*
X51040Y-50140D01*
X54950Y-84200D02*
X54950Y-54050D01*
X48900Y-90250D02*
X54950Y-84200D01*
X40400Y-90250D02*
X48900Y-90250D01*
X39275Y-91375D02*
X40400Y-90250D01*
X49071Y-42552D02*
X49071Y-44324D01*
X49071Y-44324D02*
X51040Y-46292D01*
X37275Y-93125D02*
X37275Y-90775D01*
X51040Y-86709D02*
X51040Y-81725D01*
X48400Y-89350D02*
X51040Y-86709D01*
X38700Y-89350D02*
X48400Y-89350D01*
X37275Y-90775D02*
X38700Y-89350D01*
X51040Y-81725D02*
X50625Y-81725D01*
X49071Y-80171D02*
X49071Y-77788D01*
X50625Y-81725D02*
X49071Y-80171D01*
X23981Y-88131D02*
X23981Y-88206D01*
X35275Y-90575D02*
X35275Y-93125D01*
X33800Y-89100D02*
X35275Y-90575D01*
X24875Y-89100D02*
X33800Y-89100D01*
X23981Y-88206D02*
X24875Y-89100D01*
X24061Y-88211D02*
X23981Y-88131D01*
X20044Y-86162D02*
X20044Y-87244D01*
X20044Y-87244D02*
X20931Y-88131D01*
X20931Y-88131D02*
X23981Y-88131D01*
X33275Y-93125D02*
X33275Y-90800D01*
X15607Y-84457D02*
X15607Y-81725D01*
X21000Y-89850D02*
X15607Y-84457D01*
X32325Y-89850D02*
X21000Y-89850D01*
X33275Y-90800D02*
X32325Y-89850D01*
X15607Y-81725D02*
X15325Y-81725D01*
X13638Y-80038D02*
X13638Y-77788D01*
X15325Y-81725D02*
X13638Y-80038D01*
X31275Y-93125D02*
X31275Y-91325D01*
X15607Y-50892D02*
X15607Y-46489D01*
X12850Y-53650D02*
X15607Y-50892D01*
X12850Y-83150D02*
X12850Y-53650D01*
X20400Y-90700D02*
X12850Y-83150D01*
X30650Y-90700D02*
X20400Y-90700D01*
X31275Y-91325D02*
X30650Y-90700D01*
X15607Y-46489D02*
X15189Y-46489D01*
X15189Y-46489D02*
X13638Y-44938D01*
X13638Y-44938D02*
X13638Y-42552D01*
X13850Y-48400D02*
X13850Y-51100D01*
X29275Y-92550D02*
X29275Y-93125D01*
X28350Y-91625D02*
X29275Y-92550D01*
X19850Y-91625D02*
X28350Y-91625D01*
X12100Y-83875D02*
X19850Y-91625D01*
X12100Y-52850D02*
X12100Y-83875D01*
X13850Y-51100D02*
X12100Y-52850D01*
X53008Y-65977D02*
X53008Y-67308D01*
X54008Y-68308D02*
X54008Y-69914D01*
X53008Y-67308D02*
X54008Y-68308D01*
X54008Y-73851D02*
X54008Y-72608D01*
X53008Y-71608D02*
X53008Y-69914D01*
X54008Y-72608D02*
X53008Y-71608D01*
X34131Y-88131D02*
X35792Y-88131D01*
X33131Y-87131D02*
X34131Y-88131D01*
X31855Y-87131D02*
X33131Y-87131D01*
X49071Y-58103D02*
X49071Y-59071D01*
X50071Y-60071D02*
X50071Y-62040D01*
X49071Y-59071D02*
X50071Y-60071D01*
X50071Y-58103D02*
X50071Y-55135D01*
X50071Y-55135D02*
X51040Y-54166D01*
X53008Y-62040D02*
X53008Y-63008D01*
X54008Y-64008D02*
X54008Y-65977D01*
X53008Y-63008D02*
X54008Y-64008D01*
X53008Y-58103D02*
X53008Y-59208D01*
X54008Y-60208D02*
X54008Y-62040D01*
X53008Y-59208D02*
X54008Y-60208D01*
X50071Y-22828D02*
X50071Y-19859D01*
X50071Y-19859D02*
X51040Y-18891D01*
X17575Y-62040D02*
X17575Y-63375D01*
X18575Y-64375D02*
X18575Y-65977D01*
X17575Y-63375D02*
X18575Y-64375D01*
X15607Y-18891D02*
X15607Y-21859D01*
X15607Y-21859D02*
X14638Y-22828D01*
X14638Y-26765D02*
X14638Y-25438D01*
X13638Y-24438D02*
X13638Y-22828D01*
X14638Y-25438D02*
X13638Y-24438D01*
X27918Y-87131D02*
X29331Y-87131D01*
X30331Y-88131D02*
X31855Y-88131D01*
X29331Y-87131D02*
X30331Y-88131D01*
X17575Y-30702D02*
X17575Y-31575D01*
X18575Y-32575D02*
X18575Y-34639D01*
X17575Y-31575D02*
X18575Y-32575D01*
X17575Y-34639D02*
X17575Y-36175D01*
X18575Y-37175D02*
X18575Y-38576D01*
X17575Y-36175D02*
X18575Y-37175D01*
X14638Y-30702D02*
X14638Y-29538D01*
X13638Y-28538D02*
X13638Y-26765D01*
X14638Y-29538D02*
X13638Y-28538D01*
X13638Y-30702D02*
X13638Y-31838D01*
X14638Y-32838D02*
X14638Y-34560D01*
X13638Y-31838D02*
X14638Y-32838D01*
X17575Y-38576D02*
X17575Y-39775D01*
X18575Y-40775D02*
X18575Y-42552D01*
X17575Y-39775D02*
X18575Y-40775D01*
X14638Y-73851D02*
X14638Y-72038D01*
X13638Y-71038D02*
X13638Y-69914D01*
X14638Y-72038D02*
X13638Y-71038D01*
X17575Y-65977D02*
X17575Y-66875D01*
X18575Y-67875D02*
X18575Y-69914D01*
X17575Y-66875D02*
X18575Y-67875D01*
X14638Y-69914D02*
X14638Y-68438D01*
X13638Y-67438D02*
X13638Y-65977D01*
X14638Y-68438D02*
X13638Y-67438D01*
X13638Y-62040D02*
X13638Y-63038D01*
X14638Y-64038D02*
X14638Y-65977D01*
X13638Y-63038D02*
X14638Y-64038D01*
X49071Y-22828D02*
X49071Y-24171D01*
X50071Y-25171D02*
X50071Y-26765D01*
X49071Y-24171D02*
X50071Y-25171D01*
X27918Y-83194D02*
X29194Y-83194D01*
X30194Y-84194D02*
X31855Y-84194D01*
X29194Y-83194D02*
X30194Y-84194D01*
X17575Y-58103D02*
X17575Y-59375D01*
X18575Y-60375D02*
X18575Y-62040D01*
X17575Y-59375D02*
X18575Y-60375D01*
X13638Y-58103D02*
X13638Y-59638D01*
X14638Y-60638D02*
X14638Y-62040D01*
X13638Y-59638D02*
X14638Y-60638D01*
X15607Y-54166D02*
X15607Y-57135D01*
X15607Y-57135D02*
X14638Y-58103D01*
X39729Y-87131D02*
X41231Y-87131D01*
X42231Y-88131D02*
X43666Y-88131D01*
X41231Y-87131D02*
X42231Y-88131D01*
X43666Y-87131D02*
X46634Y-87131D01*
X46634Y-87131D02*
X47603Y-86162D01*
X35792Y-87131D02*
X37131Y-87131D01*
X38131Y-88131D02*
X39729Y-88131D01*
X37131Y-87131D02*
X38131Y-88131D01*
X23981Y-83194D02*
X24894Y-83194D01*
X25894Y-84194D02*
X27918Y-84194D01*
X24894Y-83194D02*
X25894Y-84194D01*
X23981Y-87131D02*
X24731Y-87131D01*
X25731Y-88131D02*
X27918Y-88131D01*
X24731Y-87131D02*
X25731Y-88131D01*
X50071Y-73851D02*
X50071Y-72271D01*
X49071Y-71271D02*
X49071Y-69914D01*
X50071Y-72271D02*
X49071Y-71271D01*
X52040Y-81725D02*
X52040Y-78757D01*
X52040Y-78757D02*
X53008Y-77788D01*
X31855Y-83194D02*
X33394Y-83194D01*
X34394Y-84194D02*
X35792Y-84194D01*
X33394Y-83194D02*
X34394Y-84194D01*
X50071Y-42552D02*
X50071Y-41171D01*
X49071Y-40171D02*
X49071Y-38537D01*
X50071Y-41171D02*
X49071Y-40171D01*
X49071Y-34521D02*
X49071Y-35871D01*
X50071Y-36871D02*
X50071Y-38537D01*
X49071Y-35871D02*
X50071Y-36871D01*
X52040Y-46292D02*
X52040Y-43560D01*
X52040Y-43560D02*
X53008Y-42592D01*
X39729Y-13485D02*
X41314Y-13485D01*
X42314Y-12485D02*
X43666Y-12485D01*
X41314Y-13485D02*
X42314Y-12485D01*
X39729Y-17422D02*
X41077Y-17422D01*
X42077Y-16422D02*
X43666Y-16422D01*
X41077Y-17422D02*
X42077Y-16422D01*
X23981Y-51698D02*
X24998Y-51698D01*
X25998Y-52698D02*
X27918Y-52698D01*
X24998Y-51698D02*
X25998Y-52698D01*
X23981Y-47761D02*
X25261Y-47761D01*
X26261Y-48761D02*
X27918Y-48761D01*
X25261Y-47761D02*
X26261Y-48761D01*
X17575Y-73851D02*
X17575Y-75075D01*
X18575Y-76075D02*
X18575Y-77788D01*
X17575Y-75075D02*
X18575Y-76075D01*
X13638Y-73851D02*
X13638Y-75138D01*
X14638Y-76138D02*
X14638Y-77788D01*
X13638Y-75138D02*
X14638Y-76138D01*
X31855Y-13485D02*
X33214Y-13485D01*
X34214Y-12485D02*
X35792Y-12485D01*
X33214Y-13485D02*
X34214Y-12485D01*
X35792Y-83194D02*
X37294Y-83194D01*
X38294Y-84194D02*
X39729Y-84194D01*
X37294Y-83194D02*
X38294Y-84194D01*
X49071Y-26765D02*
X49071Y-27671D01*
X50071Y-28671D02*
X50071Y-30702D01*
X49071Y-27671D02*
X50071Y-28671D01*
X49071Y-30702D02*
X49071Y-31871D01*
X50071Y-32871D02*
X50071Y-34521D01*
X49071Y-31871D02*
X50071Y-32871D01*
X53008Y-38576D02*
X53008Y-39808D01*
X54008Y-40808D02*
X54008Y-42592D01*
X53008Y-39808D02*
X54008Y-40808D01*
X53008Y-34639D02*
X53008Y-36108D01*
X54008Y-37108D02*
X54008Y-38576D01*
X53008Y-36108D02*
X54008Y-37108D01*
X53008Y-30702D02*
X53008Y-31808D01*
X54008Y-32808D02*
X54008Y-34639D01*
X53008Y-31808D02*
X54008Y-32808D01*
X53008Y-26765D02*
X53008Y-27808D01*
X54008Y-28808D02*
X54008Y-30702D01*
X53008Y-27808D02*
X54008Y-28808D01*
X53008Y-22828D02*
X53008Y-24008D01*
X54008Y-25008D02*
X54008Y-26765D01*
X53008Y-24008D02*
X54008Y-25008D01*
X35792Y-17422D02*
X37377Y-17422D01*
X38377Y-16422D02*
X39729Y-16422D01*
X37377Y-17422D02*
X38377Y-16422D01*
X35792Y-13485D02*
X37214Y-13485D01*
X38214Y-12485D02*
X39729Y-12485D01*
X37214Y-13485D02*
X38214Y-12485D01*
X31855Y-17422D02*
X33377Y-17422D01*
X34377Y-16422D02*
X35792Y-16422D01*
X33377Y-17422D02*
X34377Y-16422D01*
X39729Y-83194D02*
X41194Y-83194D01*
X42194Y-84194D02*
X43666Y-84194D01*
X41194Y-83194D02*
X42194Y-84194D01*
X27918Y-13485D02*
X29514Y-13485D01*
X30514Y-12485D02*
X31855Y-12485D01*
X29514Y-13485D02*
X30514Y-12485D01*
X27918Y-17422D02*
X29477Y-17422D01*
X30477Y-16422D02*
X31855Y-16422D01*
X29477Y-17422D02*
X30477Y-16422D01*
X23981Y-17422D02*
X25577Y-17422D01*
X26577Y-16422D02*
X27918Y-16422D01*
X25577Y-17422D02*
X26577Y-16422D01*
X23981Y-13485D02*
X25614Y-13485D01*
X26614Y-12485D02*
X27918Y-12485D01*
X25614Y-13485D02*
X26614Y-12485D01*
X20044Y-15454D02*
X23012Y-15454D01*
X23012Y-15454D02*
X23981Y-16422D01*
X14638Y-38615D02*
X14638Y-36938D01*
X13638Y-35938D02*
X13638Y-34560D01*
X14638Y-36938D02*
X13638Y-35938D01*
X16607Y-46489D02*
X16607Y-43521D01*
X16607Y-43521D02*
X17575Y-42552D01*
X20044Y-85162D02*
X23012Y-85162D01*
X23012Y-85162D02*
X23981Y-84194D01*
X50071Y-77788D02*
X50071Y-76371D01*
X49071Y-75371D02*
X49071Y-73851D01*
X50071Y-76371D02*
X49071Y-75371D01*
X49071Y-62040D02*
X49071Y-62971D01*
X50071Y-63971D02*
X50071Y-65977D01*
X49071Y-62971D02*
X50071Y-63971D01*
X43666Y-13485D02*
X43666Y-14166D01*
X43954Y-14454D02*
X47603Y-14454D01*
X43666Y-14166D02*
X43954Y-14454D01*
X20044Y-49729D02*
X18870Y-49729D01*
X19698Y-52698D02*
X23981Y-52698D01*
X18500Y-51500D02*
X19698Y-52698D01*
X18500Y-50100D02*
X18500Y-51500D01*
X18870Y-49729D02*
X18500Y-50100D01*
X13638Y-38615D02*
X13638Y-39538D01*
X14638Y-40538D02*
X14638Y-42552D01*
X13638Y-39538D02*
X14638Y-40538D01*
X35792Y-47761D02*
X37361Y-47761D01*
X38361Y-48761D02*
X39729Y-48761D01*
X37361Y-47761D02*
X38361Y-48761D01*
X39729Y-47761D02*
X40861Y-47761D01*
X41861Y-48761D02*
X43666Y-48761D01*
X40861Y-47761D02*
X41861Y-48761D01*
X43666Y-47761D02*
X47861Y-47761D01*
X48370Y-50729D02*
X47603Y-50729D01*
X49000Y-50100D02*
X48370Y-50729D01*
X49000Y-48900D02*
X49000Y-50100D01*
X47861Y-47761D02*
X49000Y-48900D01*
X39729Y-51698D02*
X41298Y-51698D01*
X42298Y-52698D02*
X43666Y-52698D01*
X41298Y-51698D02*
X42298Y-52698D01*
X35792Y-51698D02*
X37298Y-51698D01*
X38298Y-52698D02*
X39729Y-52698D01*
X37298Y-51698D02*
X38298Y-52698D01*
X49071Y-65977D02*
X49071Y-67471D01*
X50071Y-68471D02*
X50071Y-69914D01*
X49071Y-67471D02*
X50071Y-68471D01*
X31855Y-51698D02*
X33198Y-51698D01*
X34198Y-52698D02*
X35792Y-52698D01*
X33198Y-51698D02*
X34198Y-52698D01*
X31855Y-47761D02*
X32961Y-47761D01*
X33961Y-48761D02*
X35792Y-48761D01*
X32961Y-47761D02*
X33961Y-48761D01*
X27918Y-47761D02*
X29161Y-47761D01*
X30161Y-48761D02*
X31855Y-48761D01*
X29161Y-47761D02*
X30161Y-48761D01*
X17575Y-26765D02*
X17575Y-27975D01*
X18575Y-28975D02*
X18575Y-30702D01*
X17575Y-27975D02*
X18575Y-28975D01*
X17575Y-22828D02*
X17575Y-23775D01*
X18575Y-24775D02*
X18575Y-26765D01*
X17575Y-23775D02*
X18575Y-24775D01*
X16607Y-81725D02*
X16607Y-78757D01*
X16607Y-78757D02*
X17575Y-77788D01*
X17575Y-69914D02*
X17575Y-71875D01*
X18575Y-72875D02*
X18575Y-73851D01*
X17575Y-71875D02*
X18575Y-72875D01*
X27918Y-51698D02*
X28998Y-51698D01*
X29998Y-52698D02*
X31855Y-52698D01*
X28998Y-51698D02*
X29998Y-52698D01*
X53850Y-88100D02*
X53950Y-88100D01*
X56550Y-85500D02*
X59000Y-85500D01*
X53950Y-88100D02*
X56550Y-85500D01*
X54008Y-77788D02*
X54008Y-76508D01*
X53008Y-75508D02*
X53008Y-73851D01*
X54008Y-76508D02*
X53008Y-75508D01*
M02*
