G04 (created by PCBNEW (2013-07-07 BZR 4022)-stable) date 2/5/2016 12:23:49 PM*
%MOIN*%
G04 Gerber Fmt 3.4, Leading zero omitted, Abs format*
%FSLAX34Y34*%
G01*
G70*
G90*
G04 APERTURE LIST*
%ADD10C,0.00590551*%
%ADD11C,0.012*%
%ADD12C,0.008*%
G04 APERTURE END LIST*
G54D10*
G54D11*
X14350Y-48900D02*
X19350Y-48900D01*
X19350Y-48900D02*
X19350Y-47900D01*
X19350Y-47900D02*
X14350Y-47900D01*
X19350Y-48400D02*
X19850Y-48400D01*
X13850Y-48400D02*
X14350Y-48400D01*
X14350Y-48600D02*
X14650Y-48900D01*
X14350Y-48900D02*
X14350Y-47900D01*
G54D12*
X16202Y-50272D02*
X16202Y-50665D01*
X16226Y-50744D01*
X16273Y-50796D01*
X16345Y-50822D01*
X16392Y-50822D01*
X15964Y-50822D02*
X15964Y-50272D01*
X15797Y-50665D01*
X15630Y-50272D01*
X15630Y-50822D01*
X15392Y-50822D02*
X15392Y-50272D01*
X15202Y-50272D01*
X15154Y-50298D01*
X15130Y-50325D01*
X15107Y-50377D01*
X15107Y-50455D01*
X15130Y-50508D01*
X15154Y-50534D01*
X15202Y-50560D01*
X15392Y-50560D01*
X14630Y-50822D02*
X14916Y-50822D01*
X14773Y-50822D02*
X14773Y-50272D01*
X14821Y-50351D01*
X14869Y-50403D01*
X14916Y-50429D01*
M02*
